{
.appVersion = "3151";
classes = (
{
code = "matraA.rj
matraIi.rj
matraAu_LengthMark.rj
";
name = MatraADefault;
},
{
code = "matraA_alt1.rj
matraIi_alt1a.rj
matraAu_LengthMark_alt1.rj
";
name = MatraAlt1;
},
{
code = "matraA_alt1a.rj
matraIi_alt2a.rj
matraAu_LengthMark_alt1a.rj
";
name = MatraAlt1a;
},
{
code = "matraA_alt1c.rj
matraIi_alt1c.rj
matraAu_LengthMark_alt1c.rj
";
name = MatraAlt1c;
},
{
code = "matraA_alt1d.rj
matraIi_alt2d.rj
matraAu_LengthMark_alt1d.rj
";
name = MatraAlt1d;
},
{
code = "Kha.rj  Ga.rj  Nya.rj  Ttha.rj  Nna.rj  Tha.rj  Sha.rj

#Two letter conjuncts
KhaRa.rj KhaKha.rj KhaCha.rj KhaTa.rj KhaNa.rj KhaMa.rj KhaYa.rj KhaLa.rj KhaVa.rj KhaSha.rj KhaSa.rj 
GaRa.rj GaGa.rj GaGha.rj GaCha.rj GaNna.rj GaDa.rj GaDha.rj GaNa.rj GaBa.rj GaBha.rj GaMa.rj GaYa.rj GaLa.rj GaVa.rj GaSha.rj GaSa.rj
NyaRa.rj NyaCa.rj NyaCha.rj NyaJa.rj NyaJha.rj NyaNya.rj NyaMa.rj NyaYa.rj NyaVa.rj NyaSha.rj NyaSa.rj NyaNa.rj NyaLa.rj
TthaRa.rj TthaTtha.rj TthaNa.rj TthaMa.rj TthaLa.rj TthaVa.rj TthaSa.rj TthaYa.rj
NnaRa.rj NnaTta.rj NnaTtha.rj NnaNa.rj NnaDda.rj NnaDdha.rj NnaNna.rj NnaMa.rj NnaYa.rj NnaVa.rj NnaLa.rj
ThaRa.rj ThaTha.rj ThaNa.rj ThaMa.rj ThaYa.rj ThaLa.rj ThaVa.rj ThaSa.rj
ShaRa.rj ShaCa.rj ShaCha.rj ShaTta.rj ShaTa.rj ShaNa.rj ShaPa.rj ShaBa.rj ShaMa.rj ShaYa.rj ShaLa.rj ShaVa.rj ShaSha.rj
RaDhaNa.rj

#Three and Four letter conjuncts
KhaTaYa.rj
GaTaYa.rj GaGhaYa.rj GaNyaJa.rj GaDaVa.rj GaDhaVa.rj GaDhaRa.rj GaNaYa.rj GaPha.rj GaPhaRa.rj GaBhaYa.rj GaRaYa.rj GaVaYa.rj
NyaKaSsa.rj NyaKaSsaVa.rj NyaCaMa.rj NyaCaYa.rj NyaChaVa.rj NyaJaYa.rj NyaJaNya.rj NyaJaVa.rj NyaShaRa.rj NyaShaLa.rj NyaShaVa.rj
NnaDdaYa.rj NnaDdaRa.rj
ThaVaYa.rj 
DhaNaYa.rj DhaRaYa.rj
NaDhaRaYa.rj
ShaCaYa.rj ShaVaYa.rj ShaRaYa.rj
RaDhaNaYa.rj RaDhaYa.rj RaDhaVa.rj
";
name = HeadlessLetters1;
},
{
code = "GaJaNya.rj
";
name = HeadlessLetters1a;
},
{
code = "GaJaNya_alt_Aa.rj
";
name = HeadlessLetters1a_alt;
},
{

glyphs = (
{
glyphname = .notdef;
lastChange = "2024-03-05 08:43:46 +0000";
layers = (
{
layerId = "C3E057B1-67D4-4FCF-93C0-B6D1362B390D";
paths = (
{
closed = 1;
nodes = (
"512 -26 LINE",
"512 654 LINE",
"80 654 LINE",
"80 -26 LINE"
);
},
{
closed = 1;
nodes = (
"476 4 LINE",
"144 637 LINE",
"111 614 LINE",
"443 -19 LINE"
);
},
{
closed = 1;
nodes = (
"481 614 LINE",
"448 637 LINE",
"116 4 LINE",
"149 -19 LINE"
);
},
{
closed = 1;
nodes = (
"129 606 LINE",
"463 606 LINE",
"463 21 LINE",
"129 21 LINE"
);
}
);
width = 592;
}
);
},
{
color = 3;
glyphname = Chandrabindu.rj;
lastChange = "2024-03-05 08:13:15 +0000";
layers = (
{
anchors = (
{
name = _top2;
position = "{219, 646}";
}
);
layerId = "C3E057B1-67D4-4FCF-93C0-B6D1362B390D";
paths = (
{
closed = 1;
nodes = (
"268 753 OFFCURVE",
"301 780 OFFCURVE",
"301 818 CURVE SMOOTH",
"301 892 OFFCURVE",
"212 893 OFFCURVE",
"212 916 CURVE SMOOTH",
"212 931 OFFCURVE",
"236 931 OFFCURVE",
"236 946 CURVE SMOOTH",
"236 959 OFFCURVE",
"218 966 OFFCURVE",
"218 975 CURVE SMOOTH",
"218 979 OFFCURVE",
"220 984 OFFCURVE",
"230 989 CURVE",
"226 1000 LINE",
"200 996 OFFCURVE",
"189 986 OFFCURVE",
"189 975 CURVE SMOOTH",
"189 965 OFFCURVE",
"201 961 OFFCURVE",
"201 952 CURVE SMOOTH",
"201 937 OFFCURVE",
"167 934 OFFCURVE",
"167 911 CURVE SMOOTH",
"167 869 OFFCURVE",
"258 878 OFFCURVE",
"258 827 CURVE SMOOTH",
"258 805 OFFCURVE",
"239 792 OFFCURVE",
"208 792 CURVE SMOOTH",
"183 792 OFFCURVE",
"166 802 OFFCURVE",
"166 818 CURVE SMOOTH",
"166 827 OFFCURVE",
"173 833 OFFCURVE",
"183 833 CURVE SMOOTH",
"198 833 OFFCURVE",
"204 825 OFFCURVE",
"200 814 CURVE",
"209 810 LINE",
"219 813 OFFCURVE",
"225 822 OFFCURVE",
"225 831 CURVE SMOOTH",
"225 848 OFFCURVE",
"207 862 OFFCURVE",
"180 862 CURVE SMOOTH",
"145 862 OFFCURVE",
"123 844 OFFCURVE",
"123 815 CURVE SMOOTH",
"123 780 OFFCURVE",
"159 753 OFFCURVE",
"210 753 CURVE SMOOTH"
);
},
{
closed = 1;
nodes = (
"302 683 OFFCURVE",
"343 696 OFFCURVE",
"372 723 CURVE",
"323 769 LINE",
"295 739 OFFCURVE",
"257 723 OFFCURVE",
"214 723 CURVE SMOOTH",
"173 723 OFFCURVE",
"131 737 OFFCURVE",
"99 765 CURVE",
"85 752 LINE",
"128 707 OFFCURVE",
"193 683 OFFCURVE",
"256 683 CURVE SMOOTH"
);
}
);
width = 390;
}
);
unicode = 0901;
script = devanagari;
category = Mark;
subCategory = Nonspacing;
},
{
color = 3;
glyphname = Bindu.rj;
lastChange = "2024-03-05 08:13:15 +0000";
layers = (
{
anchors = (
{
name = _top2;
position = "{134, 646}";
}
);
layerId = "C3E057B1-67D4-4FCF-93C0-B6D1362B390D";
paths = (
{
closed = 1;
nodes = (
"147 693 LINE",
"175 715 OFFCURVE",
"215 744 OFFCURVE",
"249 774 CURVE",
"249 787 LINE",
"206 822 OFFCURVE",
"171 850 OFFCURVE",
"130 878 CURVE",
"124 878 LINE",
"88 850 OFFCURVE",
"59 827 OFFCURVE",
"20 795 CURVE",
"20 781 LINE",
"62 749 OFFCURVE",
"106 715 OFFCURVE",
"142 693 CURVE"
);
},
{
closed = 1;
nodes = (
"111 758 OFFCURVE",
"98 768 OFFCURVE",
"78 787 CURVE",
"90 771 LINE",
"113 789 OFFCURVE",
"133 804 OFFCURVE",
"155 818 CURVE",
"131 833 LINE",
"155 814 OFFCURVE",
"169 803 OFFCURVE",
"194 784 CURVE",
"182 799 LINE",
"162 784 OFFCURVE",
"134 763 OFFCURVE",
"108 747 CURVE",
"146 731 LINE"
);
}
);
width = 269;
}
);
unicode = 0902;
script = devanagari;
category = Mark;
subCategory = Nonspacing;
},
{
color = 3;
glyphname = Visarga.rj;
lastChange = "2024-03-05 09:53:24 +0000";
layers = (
{
layerId = "C3E057B1-67D4-4FCF-93C0-B6D1362B390D";
paths = (
{
closed = 1;
nodes = (
"366 -6 LINE",
"337 11 OFFCURVE",
"206 99 OFFCURVE",
"137 155 CURVE SMOOTH",
"127 163 OFFCURVE",
"126 167 OFFCURVE",
"137 178 CURVE SMOOTH",
"206 242 OFFCURVE",
"327 353 OFFCURVE",
"362 385 CURVE",
"362 394 LINE",
"319 429 OFFCURVE",
"267 471 OFFCURVE",
"226 502 CURVE",
"192 473 LINE",
"215 456 OFFCURVE",
"224 450 OFFCURVE",
"235 441 CURVE SMOOTH",
"244 434 OFFCURVE",
"246 430 OFFCURVE",
"235 419 CURVE SMOOTH",
"178 362 OFFCURVE",
"33 236 OFFCURVE",
"4 206 CURVE",
"4 197 LINE",
"71 139 OFFCURVE",
"220 50 OFFCURVE",
"352 -26 CURVE"
);
},
{
closed = 1;
nodes = (
"283 88 OFFCURVE",
"331 133 OFFCURVE",
"368 175 CURVE",
"368 184 LINE",
"327 217 OFFCURVE",
"268 262 OFFCURVE",
"221 295 CURVE",
"187 267 LINE",
"214 248 OFFCURVE",
"224 240 OFFCURVE",
"250 218 CURVE SMOOTH",
"257 212 OFFCURVE",
"257 208 OFFCURVE",
"252 202 CURVE SMOOTH",
"225 174 OFFCURVE",
"191 143 OFFCURVE",
"153 112 CURVE",
"241 54 LINE"
);
},
{
closed = 1;
nodes = (
"182 330 LINE",
"159 346 OFFCURVE",
"146 357 OFFCURVE",
"128 372 CURVE SMOOTH",
"118 381 OFFCURVE",
"118 385 OFFCURVE",
"128 395 CURVE SMOOTH",
"150 418 OFFCURVE",
"177 442 OFFCURVE",
"206 469 CURVE",
"226 488 LINE",
"278 539 OFFCURVE",
"329 590 OFFCURVE",
"358 623 CURVE",
"209 603 LINE",
"146 560 OFFCURVE",
"80 503 OFFCURVE",
"5 427 CURVE",
"5 417 LINE",
"57 370 OFFCURVE",
"102 336 OFFCURVE",
"152 302 CURVE"
);
},
{
closed = 1;
nodes = (
"358 623 LINE",
"351 654 LINE",
"-5 654 LINE",
"-7 646 LINE",
"20 565 OFFCURVE",
"106 542 OFFCURVE",
"182 542 CURVE"
);
}
);
width = 381;
}
);
unicode = 0903;
script = devanagari;
category = Mark;
subCategory = Spacing;
},
{
color = 3;
glyphname = Avagraha.rj;
lastChange = "2024-03-05 08:13:15 +0000";
layers = (
{
layerId = "C3E057B1-67D4-4FCF-93C0-B6D1362B390D";
paths = (
{
closed = 1;
nodes = (
"235 82 OFFCURVE",
"304 141 OFFCURVE",
"304 206 CURVE SMOOTH",
"304 246 OFFCURVE",
"286 279 OFFCURVE",
"216 339 CURVE SMOOTH",
"166 381 OFFCURVE",
"155 411 OFFCURVE",
"155 449 CURVE SMOOTH",
"155 519 OFFCURVE",
"231 564 OFFCURVE",
"317 591 CURVE",
"190 596 LINE",
"78 571 OFFCURVE",
"42 539 OFFCURVE",
"42 482 CURVE SMOOTH",
"42 441 OFFCURVE",
"76 418 OFFCURVE",
"131 371 CURVE SMOOTH",
"187 323 OFFCURVE",
"205 291 OFFCURVE",
"205 254 CURVE SMOOTH",
"205 207 OFFCURVE",
"154 170 OFFCURVE",
"91 170 CURVE",
"179 144 LINE",
"152 178 OFFCURVE",
"120 211 OFFCURVE",
"86 211 CURVE SMOOTH",
"51 211 OFFCURVE",
"30 192 OFFCURVE",
"30 158 CURVE SMOOTH",
"30 121 OFFCURVE",
"72 82 OFFCURVE",
"137 82 CURVE SMOOTH"
);
},
{
closed = 1;
nodes = (
"359 -9 LINE",
"280 48 OFFCURVE",
"225 99 OFFCURVE",
"165 144 CURVE",
"108 133 LINE",
"182 83 OFFCURVE",
"260 25 OFFCURVE",
"347 -26 CURVE"
);
},
{
closed = 1;
nodes = (
"317 591 LINE",
"275 654 LINE",
"-7 654 LINE",
"-9 646 LINE",
"18 564 OFFCURVE",
"75 548 OFFCURVE",
"147 548 CURVE"
);
}
);
width = 339;
}
);
unicode = 093D;
script = devanagari;
category = Symbol;
},
{
color = 4;
glyphname = vowelA.rj;
lastChange = "2024-03-05 09:53:24 +0000";
layers = (
{
anchors = (
{
name = top2;
position = "{294, 646}";
}
);
layerId = "C3E057B1-67D4-4FCF-93C0-B6D1362B390D";
paths = (
{
closed = 1;
nodes = (
"629 -29 LINE",
"594 -9 LINE SMOOTH",
"536 24 OFFCURVE",
"529 37 OFFCURVE",
"529 103 CURVE SMOOTH",
"529 646 LINE",
"429 634 LINE",
"429 297 LINE SMOOTH",
"429 177 OFFCURVE",
"381 125 OFFCURVE",
"279 125 CURVE SMOOTH",
"250 125 OFFCURVE",
"221 132 OFFCURVE",
"195 142 CURVE",
"187 124 LINE",
"334 70 OFFCURVE",
"475 15 OFFCURVE",
"619 -46 CURVE"
);
},
{
closed = 1;
nodes = (
"302 187 OFFCURVE",
"354 228 OFFCURVE",
"354 324 CURVE SMOOTH",
"354 591 LINE",
"254 572 LINE",
"254 358 LINE SMOOTH",
"254 302 OFFCURVE",
"224 272 OFFCURVE",
"165 272 CURVE SMOOTH",
"125 272 OFFCURVE",
"83 284 OFFCURVE",
"23 328 CURVE",
"10 313 LINE",
"91 234 OFFCURVE",
"158 187 OFFCURVE",
"230 187 CURVE SMOOTH"
);
},
{
closed = 1;
nodes = (
"178 340 OFFCURVE",
"195 357 OFFCURVE",
"195 396 CURVE SMOOTH",
"195 411 OFFCURVE",
"192 447 OFFCURVE",
"189 468 CURVE",
"165 429 LINE",
"210 422 OFFCURVE",
"236 423 OFFCURVE",
"270 403 CURVE",
"276 449 LINE",
"235 480 OFFCURVE",
"181 494 OFFCURVE",
"141 494 CURVE SMOOTH",
"89 494 OFFCURVE",
"52 463 OFFCURVE",
"52 418 CURVE SMOOTH",
"52 375 OFFCURVE",
"98 340 OFFCURVE",
"145 340 CURVE SMOOTH"
);
},
{
closed = 1;
nodes = (
"490 335 LINE",
"408 398 OFFCURVE",
"348 434 OFFCURVE",
"311 449 CURVE",
"307 391 LINE",
"373 369 OFFCURVE",
"420 344 OFFCURVE",
"476 304 CURVE"
);
},
{
closed = 1;
nodes = (
"215 544 OFFCURVE",
"275 549 OFFCURVE",
"315 562 CURVE",
"326 569 LINE",
"489 569 LINE",
"529 646 LINE",
"522 654 LINE",
"4 654 LINE",
"0 646 LINE",
"24 582 OFFCURVE",
"78 544 OFFCURVE",
"167 544 CURVE SMOOTH"
);
}
);
width = 585;
}
);
leftKerningGroup = LK_vowelA;
rightKerningGroup = RK_Danda;
rightMetricsKey = matraA.rj;
unicode = 0905;
script = devanagari;
category = Letter;
},
{
color = 4;
glyphname = vowelI.rj;
lastChange = "2024-03-05 09:53:24 +0000";
layers = (
{
anchors = (
{
name = top2;
position = "{303, 646}";
}
);
layerId = "C3E057B1-67D4-4FCF-93C0-B6D1362B390D";
paths = (
{
closed = 1;
nodes = (
"393 -9 LINE",
"359 7 LINE SMOOTH",
"191 86 OFFCURVE",
"147 127 OFFCURVE",
"147 197 CURVE SMOOTH",
"147 236 OFFCURVE",
"183 263 OFFCURVE",
"233 269 CURVE",
"200 279 LINE",
"200 77 LINE",
"359 7 LINE",
"309 33 OFFCURVE",
"296 50 OFFCURVE",
"296 89 CURVE SMOOTH",
"296 283 LINE",
"242 307 OFFCURVE",
"201 317 OFFCURVE",
"161 317 CURVE SMOOTH",
"89 317 OFFCURVE",
"38 274 OFFCURVE",
"38 213 CURVE SMOOTH",
"38 126 OFFCURVE",
"112 86 OFFCURVE",
"351 -12 CURVE SMOOTH",
"385 -26 LINE"
);
},
{
closed = 1;
nodes = (
"617 -14 LINE",
"492 60 OFFCURVE",
"467 79 OFFCURVE",
"467 131 CURVE SMOOTH",
"467 266 LINE",
"433 259 LINE",
"477 246 OFFCURVE",
"517 221 OFFCURVE",
"517 182 CURVE SMOOTH",
"517 131 OFFCURVE",
"487 104 OFFCURVE",
"438 87 CURVE",
"531 21 LINE",
"575 45 OFFCURVE",
"606 79 OFFCURVE",
"606 143 CURVE SMOOTH",
"606 220 OFFCURVE",
"524 280 OFFCURVE",
"382 317 CURVE",
"370 308 LINE",
"370 100 LINE",
"372 95 LINE",
"412 69 OFFCURVE",
"549 -1 OFFCURVE",
"606 -31 CURVE"
);
},
{
closed = 1;
nodes = (
"297 355 OFFCURVE",
"344 402 OFFCURVE",
"344 474 CURVE SMOOTH",
"344 589 LINE",
"247 570 LINE",
"247 511 LINE SMOOTH",
"247 462 OFFCURVE",
"225 438 OFFCURVE",
"177 438 CURVE SMOOTH",
"129 438 OFFCURVE",
"86 455 OFFCURVE",
"30 490 CURVE",
"16 475 LINE",
"96 389 OFFCURVE",
"162 355 OFFCURVE",
"229 355 CURVE SMOOTH"
);
},
{
closed = 1;
nodes = (
"229 544 OFFCURVE",
"272 554 OFFCURVE",
"315 567 CURVE",
"342 569 LINE",
"499 569 LINE",
"526 646 LINE",
"517 654 LINE",
"10 654 LINE",
"5 646 LINE",
"28 582 OFFCURVE",
"84 544 OFFCURVE",
"171 544 CURVE SMOOTH"
);
},
{
closed = 1;
nodes = (
"595 313 LINE",
"532 357 OFFCURVE",
"526 367 OFFCURVE",
"526 410 CURVE SMOOTH",
"526 646 LINE",
"429 596 LINE",
"429 383 LINE",
"465 360 OFFCURVE",
"536 325 OFFCURVE",
"585 297 CURVE"
);
}
);
width = 617;
}
);
leftKerningGroup = LK_Gha;
rightKerningGroup = RK_Danda;
unicode = 0907;
script = devanagari;
category = Letter;
},
{
color = 4;
glyphname = vowelIi.rj;
lastChange = "2024-03-05 08:13:15 +0000";
layers = (
{
anchors = (
{
name = top2;
position = "{299, 646}";
}
);
components = (
{
name = vowelI.rj;
}
);
layerId = "C3E057B1-67D4-4FCF-93C0-B6D1362B390D";
paths = (
{
closed = 1;
nodes = (
"242 -117 OFFCURVE",
"274 -101 OFFCURVE",
"293 -83 CURVE",
"244 -48 LINE",
"224 -64 OFFCURVE",
"201 -72 OFFCURVE",
"182 -72 CURVE SMOOTH",
"169 -72 OFFCURVE",
"161 -68 OFFCURVE",
"161 -59 CURVE SMOOTH",
"161 -42 OFFCURVE",
"188 -28 OFFCURVE",
"221 -28 CURVE SMOOTH",
"257 -28 OFFCURVE",
"313 -46 OFFCURVE",
"367 -77 CURVE",
"377 -62 LINE",
"301 -12 OFFCURVE",
"227 17 OFFCURVE",
"177 17 CURVE SMOOTH",
"127 17 OFFCURVE",
"92 -8 OFFCURVE",
"92 -44 CURVE SMOOTH",
"92 -80 OFFCURVE",
"141 -117 OFFCURVE",
"195 -117 CURVE SMOOTH"
);
}
);
width = 617;
}
);
leftKerningGroup = LK_Gha;
rightKerningGroup = RK_Danda;
unicode = 0908;
script = devanagari;
category = Letter;
},
{
color = 4;
glyphname = vowelU.rj;
lastChange = "2024-03-05 08:13:15 +0000";
layers = (
{
anchors = (
{
name = bottom;
position = "{290, 9}";
},
{
name = top2;
position = "{256, 646}";
}
);
layerId = "C3E057B1-67D4-4FCF-93C0-B6D1362B390D";
paths = (
{
closed = 1;
nodes = (
"430 31 OFFCURVE",
"495 91 OFFCURVE",
"495 174 CURVE SMOOTH",
"495 246 OFFCURVE",
"401 337 OFFCURVE",
"326 337 CURVE SMOOTH",
"272 337 OFFCURVE",
"220 298 OFFCURVE",
"194 237 CURVE",
"249 174 LINE",
"259 176 LINE",
"285 220 OFFCURVE",
"336 256 OFFCURVE",
"375 256 CURVE SMOOTH",
"394 256 OFFCURVE",
"406 244 OFFCURVE",
"406 223 CURVE SMOOTH",
"406 174 OFFCURVE",
"340 125 OFFCURVE",
"274 125 CURVE SMOOTH",
"212 125 OFFCURVE",
"134 168 OFFCURVE",
"43 252 CURVE",
"28 237 LINE",
"145 98 OFFCURVE",
"248 31 OFFCURVE",
"342 31 CURVE SMOOTH"
);
},
{
closed = 1;
nodes = (
"265 208 LINE",
"231 236 OFFCURVE",
"151 306 OFFCURVE",
"120 338 CURVE",
"154 274 LINE",
"164 342 OFFCURVE",
"227 395 OFFCURVE",
"305 395 CURVE SMOOTH",
"355 395 OFFCURVE",
"405 377 OFFCURVE",
"454 356 CURVE",
"425 417 LINE",
"370 465 OFFCURVE",
"308 490 OFFCURVE",
"249 490 CURVE SMOOTH",
"118 490 OFFCURVE",
"94 392 OFFCURVE",
"61 392 CURVE SMOOTH",
"52 392 OFFCURVE",
"40 400 OFFCURVE",
"23 415 CURVE",
"9 402 LINE",
"75 326 OFFCURVE",
"164 243 OFFCURVE",
"249 174 CURVE"
);
},
{
closed = 1;
nodes = (
"253 547 OFFCURVE",
"354 561 OFFCURVE",
"390 574 CURVE",
"468 646 LINE",
"459 654 LINE",
"9 654 LINE",
"5 646 LINE",
"26 585 OFFCURVE",
"87 547 OFFCURVE",
"181 547 CURVE SMOOTH"
);
},
{
closed = 1;
nodes = (
"468 361 LINE",
"468 646 LINE",
"368 616 LINE",
"368 422 LINE",
"454 356 LINE"
);
}
);
width = 525;
}
);
leftKerningGroup = LK_Dda;
rightKerningGroup = RK_Dda;
unicode = 0909;
script = devanagari;
category = Letter;
},
{
color = 4;
glyphname = vowelE.rj;
lastChange = "2024-03-05 09:53:24 +0000";
layers = (
{
anchors = (
{
name = top1;
position = "{507, 646}";
},
{
name = top2;
position = "{300, 646}";
}
);
layerId = "C3E057B1-67D4-4FCF-93C0-B6D1362B390D";
paths = (
{
closed = 1;
nodes = (
"578 -7 LINE",
"538 19 LINE SMOOTH",
"501 43 OFFCURVE",
"497 54 OFFCURVE",
"497 101 CURVE SMOOTH",
"497 648 LINE",
"397 619 LINE",
"397 101 LINE",
"409 117 LINE",
"368 148 OFFCURVE",
"322 182 OFFCURVE",
"272 222 CURVE",
"312 156 LINE",
"312 611 LINE",
"212 611 LINE",
"212 400 LINE",
"270 444 LINE",
"246 461 OFFCURVE",
"220 470 OFFCURVE",
"189 470 CURVE SMOOTH",
"83 470 OFFCURVE",
"101 336 OFFCURVE",
"53 336 CURVE SMOOTH",
"40 336 OFFCURVE",
"27 343 OFFCURVE",
"12 355 CURVE",
"-3 337 LINE",
"65 274 OFFCURVE",
"301 127 OFFCURVE",
"428 54 CURVE SMOOTH",
"567 -26 LINE"
);
},
{
closed = 1;
nodes = (
"205 533 OFFCURVE",
"258 548 OFFCURVE",
"273 584 CURVE",
"257 569 LINE",
"457 569 LINE",
"497 648 LINE",
"488 654 LINE",
"2 654 LINE",
"-4 644 LINE",
"6 579 OFFCURVE",
"72 533 OFFCURVE",
"154 533 CURVE SMOOTH"
);
}
);
width = 534;
}
);
leftKerningGroup = LK_Jha;
rightKerningGroup = RK_Danda;
rightMetricsKey = matraA.rj;
unicode = 090F;
script = devanagari;
category = Letter;
},
{
color = 4;
glyphname = vowelO.rj;
lastChange = "2024-03-05 09:53:24 +0000";
layers = (
{
anchors = (
{
name = top2;
position = "{404, 646}";
}
);
components = (
{
name = matraE.rj;
transform = "{1, 0, 0, 1, -23, 10}";
},
{
name = matraA.rj;
transform = "{1, 0, 0, 1, 594, 0}";
}
);
layerId = "C3E057B1-67D4-4FCF-93C0-B6D1362B390D";
paths = (
{
closed = 1;
nodes = (
"639 -29 LINE",
"604 -9 LINE SMOOTH",
"546 24 OFFCURVE",
"539 37 OFFCURVE",
"539 103 CURVE SMOOTH",
"539 646 LINE",
"439 634 LINE",
"439 297 LINE SMOOTH",
"439 177 OFFCURVE",
"391 125 OFFCURVE",
"289 125 CURVE SMOOTH",
"260 125 OFFCURVE",
"231 132 OFFCURVE",
"205 142 CURVE",
"197 124 LINE",
"344 70 OFFCURVE",
"485 15 OFFCURVE",
"629 -46 CURVE"
);
},
{
closed = 1;
nodes = (
"312 187 OFFCURVE",
"364 228 OFFCURVE",
"364 324 CURVE SMOOTH",
"364 591 LINE",
"264 572 LINE",
"264 358 LINE SMOOTH",
"264 302 OFFCURVE",
"234 272 OFFCURVE",
"175 272 CURVE SMOOTH",
"135 272 OFFCURVE",
"93 284 OFFCURVE",
"33 328 CURVE",
"20 313 LINE",
"101 234 OFFCURVE",
"168 187 OFFCURVE",
"240 187 CURVE SMOOTH"
);
},
{
closed = 1;
nodes = (
"198 336 OFFCURVE",
"215 353 OFFCURVE",
"215 392 CURVE SMOOTH",
"215 407 OFFCURVE",
"212 443 OFFCURVE",
"209 464 CURVE",
"185 425 LINE",
"230 418 OFFCURVE",
"256 419 OFFCURVE",
"290 399 CURVE",
"296 445 LINE",
"255 476 OFFCURVE",
"201 490 OFFCURVE",
"161 490 CURVE SMOOTH",
"109 490 OFFCURVE",
"72 459 OFFCURVE",
"72 414 CURVE SMOOTH",
"72 371 OFFCURVE",
"118 336 OFFCURVE",
"165 336 CURVE SMOOTH"
);
},
{
closed = 1;
nodes = (
"500 335 LINE",
"418 398 OFFCURVE",
"358 434 OFFCURVE",
"321 449 CURVE",
"317 391 LINE",
"383 369 OFFCURVE",
"430 344 OFFCURVE",
"486 304 CURVE"
);
},
{
closed = 1;
nodes = (
"225 544 OFFCURVE",
"285 549 OFFCURVE",
"325 562 CURVE",
"336 569 LINE",
"499 569 LINE",
"539 646 LINE",
"532 654 LINE",
"14 654 LINE",
"10 646 LINE",
"34 582 OFFCURVE",
"88 544 OFFCURVE",
"177 544 CURVE SMOOTH"
);
}
);
width = 793;
}
);
leftKerningGroup = LK_vowelA;
rightKerningGroup = RK_Danda;
rightMetricsKey = matraA.rj;
unicode = 0913;
script = devanagari;
category = Letter;
},
{
color = 4;
glyphname = Ka.rj;
lastChange = "2024-03-05 09:53:24 +0000";
layers = (
{
anchors = (
{
name = bottom;
position = "{327, 36}";
},
{
name = bottom2;
position = "{326, 49}";
},
{
name = bottom3;
position = "{327, 36}";
},
{
name = top;
position = "{74, 604}";
},
{
name = top1;
position = "{426, 646}";
},
{
name = top2;
position = "{342, 646}";
}
);
components = (
{
name = _terminal;
transform = "{1, 0, 0, 1, 506, 0}";
}
);
layerId = "C3E057B1-67D4-4FCF-93C0-B6D1362B390D";
paths = (
{
closed = 1;
nodes = (
"525 -8 LINE",
"470 27 LINE SMOOTH",
"434 50 OFFCURVE",
"426 64 OFFCURVE",
"426 104 CURVE SMOOTH",
"426 602 LINE",
"326 602 LINE",
"326 407 LINE",
"348 408 LINE",
"316 449 OFFCURVE",
"260 474 OFFCURVE",
"195 474 CURVE SMOOTH",
"97 474 OFFCURVE",
"31 415 OFFCURVE",
"31 325 CURVE SMOOTH",
"31 226 OFFCURVE",
"96 167 OFFCURVE",
"366 42 CURVE SMOOTH",
"420 17 OFFCURVE",
"471 -7 OFFCURVE",
"515 -26 CURVE"
);
},
{
closed = 1;
nodes = (
"263 140 LINE",
"191 175 OFFCURVE",
"149 229 OFFCURVE",
"149 285 CURVE SMOOTH",
"149 345 OFFCURVE",
"189 380 OFFCURVE",
"257 380 CURVE SMOOTH",
"281 380 OFFCURVE",
"304 375 OFFCURVE",
"336 363 CURVE",
"326 390 LINE",
"326 247 LINE",
"374 284 LINE",
"345 294 OFFCURVE",
"328 297 OFFCURVE",
"310 297 CURVE SMOOTH",
"248 297 OFFCURVE",
"213 254 OFFCURVE",
"213 201 CURVE SMOOTH",
"213 179 OFFCURVE",
"217 158 OFFCURVE",
"227 133 CURVE"
);
},
{
closed = 1;
nodes = (
"554 327 LINE",
"495 367 OFFCURVE",
"460 393 OFFCURVE",
"373 431 CURVE",
"373 364 LINE",
"456 335 OFFCURVE",
"493 316 OFFCURVE",
"563 273 CURVE"
);
},
{
closed = 1;
nodes = (
"606 223 LINE",
"606 405 LINE",
"515 443 LINE",
"506 438 LINE",
"506 223 LINE"
);
},
{
closed = 1;
nodes = (
"328 542 OFFCURVE",
"504 561 OFFCURVE",
"615 576 CURVE",
"622 584 LINE",
"580 654 LINE",
"-4 654 LINE",
"-9 646 LINE",
"22 574 OFFCURVE",
"81 542 OFFCURVE",
"194 542 CURVE SMOOTH"
);
}
);
width = 661;
}
);
leftKerningGroup = LK_Ka;
leftMetricsKey = Ba.rj;
rightKerningGroup = RK_Danda;
unicode = 0915;
script = devanagari;
category = Letter;
},
{
color = 4;
glyphname = Kha.rj;
lastChange = "2024-03-05 09:53:24 +0000";
layers = (
{
anchors = (
{
name = bottom;
position = "{433, -17}";
},
{
name = bottom2;
position = "{433, 49}";
},
{
name = bottom3;
position = "{433, -16}";
},
{
name = top1;
position = "{533, 646}";
},
{
name = top2;
position = "{327, 646}";
}
);
layerId = "C3E057B1-67D4-4FCF-93C0-B6D1362B390D";
paths = (
{
closed = 1;
nodes = (
"632 -9 LINE",
"578 24 LINE SMOOTH",
"543 45 OFFCURVE",
"533 63 OFFCURVE",
"533 103 CURVE SMOOTH",
"533 646 LINE",
"433 589 LINE",
"433 309 LINE",
"444 313 LINE",
"418 333 OFFCURVE",
"382 344 OFFCURVE",
"346 344 CURVE SMOOTH",
"277 344 OFFCURVE",
"228 301 OFFCURVE",
"228 240 CURVE SMOOTH",
"228 155 OFFCURVE",
"298 100 OFFCURVE",
"622 -26 CURVE"
);
},
{
closed = 1;
nodes = (
"394 19 LINE",
"372 30 LINE SMOOTH",
"224 104 OFFCURVE",
"152 174 OFFCURVE",
"152 258 CURVE SMOOTH",
"152 340 OFFCURVE",
"212 392 OFFCURVE",
"297 392 CURVE SMOOTH",
"307 392 OFFCURVE",
"318 392 OFFCURVE",
"336 390 CURVE",
"333 439 LINE",
"292 457 OFFCURVE",
"234 469 OFFCURVE",
"210 469 CURVE SMOOTH",
"103 469 OFFCURVE",
"33 405 OFFCURVE",
"33 307 CURVE SMOOTH",
"33 226 OFFCURVE",
"72 172 OFFCURVE",
"164 118 CURVE",
"162 114 LINE",
"131 120 OFFCURVE",
"95 116 OFFCURVE",
"65 105 CURVE",
"63 94 LINE",
"137 40 LINE",
"156 47 OFFCURVE",
"187 50 OFFCURVE",
"207 50 CURVE SMOOTH",
"252 50 OFFCURVE",
"293 38 OFFCURVE",
"360 9 CURVE SMOOTH",
"385 -2 LINE"
);
},
{
closed = 1;
nodes = (
"360 138 OFFCURVE",
"330 175 OFFCURVE",
"330 212 CURVE SMOOTH",
"330 248 OFFCURVE",
"356 269 OFFCURVE",
"400 269 CURVE SMOOTH",
"421 269 OFFCURVE",
"437 264 OFFCURVE",
"460 255 CURVE",
"436 295 LINE",
"436 179 LINE",
"467 205 LINE",
"450 212 OFFCURVE",
"434 216 OFFCURVE",
"421 216 CURVE SMOOTH",
"389 216 OFFCURVE",
"367 194 OFFCURVE",
"367 164 CURVE SMOOTH",
"367 153 OFFCURVE",
"369 140 OFFCURVE",
"375 126 CURVE",
"410 110 LINE"
);
},
{
closed = 1;
nodes = (
"343 395 LINE",
"343 594 LINE",
"243 594 LINE",
"243 433 LINE",
"336 390 LINE"
);
},
{
closed = 1;
nodes = (
"227 540 OFFCURVE",
"290 548 OFFCURVE",
"330 558 CURVE",
"312 569 LINE",
"495 569 LINE",
"533 646 LINE",
"523 654 LINE",
"-4 654 LINE",
"-8 646 LINE",
"18 570 OFFCURVE",
"92 540 OFFCURVE",
"184 540 CURVE SMOOTH"
);
}
);
width = 588;
}
);
leftKerningGroup = LK_Ka;
rightKerningGroup = RK_Danda;
rightMetricsKey = matraA.rj;
unicode = 0916;
script = devanagari;
category = Letter;
},
{
color = 4;
glyphname = Ga.rj;
lastChange = "2024-03-05 09:53:24 +0000";
layers = (
{
anchors = (
{
name = bottom;
position = "{393, 133}";
},
{
name = bottom2;
position = "{393, 50}";
},
{
name = bottom3;
position = "{393, 30}";
},
{
name = top;
position = "{95, 604}";
},
{
name = top1;
position = "{493, 646}";
},
{
name = top2;
position = "{287, 646}";
}
);
components = (
{
name = _terminal;
transform = "{1, 0, 0, 1, 393, 1}";
}
);
layerId = "C3E057B1-67D4-4FCF-93C0-B6D1362B390D";
paths = (
{
closed = 1;
nodes = (
"265 121 OFFCURVE",
"293 156 OFFCURVE",
"293 217 CURVE SMOOTH",
"293 608 LINE",
"193 608 LINE",
"193 335 LINE",
"212 378 LINE",
"199 395 OFFCURVE",
"182 404 OFFCURVE",
"163 404 CURVE SMOOTH",
"94 404 OFFCURVE",
"98 300 OFFCURVE",
"59 300 CURVE SMOOTH",
"50 300 OFFCURVE",
"41 304 OFFCURVE",
"30 314 CURVE",
"13 303 LINE",
"55 186 OFFCURVE",
"130 121 OFFCURVE",
"207 121 CURVE SMOOTH"
);
},
{
closed = 1;
nodes = (
"204 529 OFFCURVE",
"252 544 OFFCURVE",
"266 580 CURVE",
"267 569 LINE",
"453 569 LINE",
"493 646 LINE",
"484 654 LINE",
"5 654 LINE",
"0 646 LINE",
"10 583 OFFCURVE",
"77 529 OFFCURVE",
"157 529 CURVE SMOOTH"
);
},
{
closed = 1;
nodes = (
"493 223 LINE",
"493 646 LINE",
"393 608 LINE",
"393 223 LINE"
);
}
);
width = 548;
}
);
leftKerningGroup = LK_Na;
rightKerningGroup = RK_Danda;
rightMetricsKey = matraA.rj;
unicode = 0917;
script = devanagari;
category = Letter;
},
{
color = 4;
glyphname = Gha.rj;
lastChange = "2024-03-05 08:13:15 +0000";
layers = (
{
anchors = (
{
name = bottom2;
position = "{399, 49}";
},
{
name = bottom3;
position = "{394, 30}";
},
{
name = top;
position = "{84, 604}";
},
{
name = top1;
position = "{499, 646}";
},
{
name = top2;
position = "{287, 646}";
}
);
components = (
{
name = _terminal;
transform = "{1, 0, 0, 1, 399, -10}";
}
);
layerId = "C3E057B1-67D4-4FCF-93C0-B6D1362B390D";
paths = (
{
closed = 1;
nodes = (
"351 289 LINE SMOOTH",
"350 337 OFFCURVE",
"331 348 OFFCURVE",
"258 373 CURVE",
"251 362 LINE",
"262 352 OFFCURVE",
"267 345 OFFCURVE",
"267 335 CURVE SMOOTH",
"267 320 OFFCURVE",
"258 309 OFFCURVE",
"234 309 CURVE SMOOTH",
"198 309 OFFCURVE",
"160 334 OFFCURVE",
"102 397 CURVE",
"153 331 LINE",
"191 392 OFFCURVE",
"235 416 OFFCURVE",
"290 416 CURVE SMOOTH",
"359 416 OFFCURVE",
"421 387 OFFCURVE",
"534 311 CURVE",
"547 329 LINE",
"507 365 OFFCURVE",
"499 378 OFFCURVE",
"499 421 CURVE SMOOTH",
"499 646 LINE",
"399 632 LINE",
"399 417 LINE",
"413 443 LINE",
"367 486 OFFCURVE",
"302 512 OFFCURVE",
"241 512 CURVE SMOOTH",
"119 512 OFFCURVE",
"86 425 OFFCURVE",
"44 425 CURVE SMOOTH",
"35 425 OFFCURVE",
"28 428 OFFCURVE",
"14 439 CURVE",
"0 425 LINE",
"55 363 OFFCURVE",
"153 272 OFFCURVE",
"230 269 CURVE",
"352 232 LINE"
);
},
{
closed = 1;
nodes = (
"358 58 OFFCURVE",
"423 81 OFFCURVE",
"466 113 CURVE",
"415 211 LINE",
"383 178 OFFCURVE",
"286 146 OFFCURVE",
"200 151 CURVE SMOOTH",
"154 153 OFFCURVE",
"132 163 OFFCURVE",
"133 182 CURVE SMOOTH",
"135 207 OFFCURVE",
"178 226 OFFCURVE",
"273 226 CURVE SMOOTH",
"299 226 OFFCURVE",
"318 225 OFFCURVE",
"343 223 CURVE",
"352 232 LINE",
"269 298 LINE",
"252 300 OFFCURVE",
"235 302 OFFCURVE",
"217 306 CURVE",
"201 306 OFFCURVE",
"184 325 OFFCURVE",
"169 323 CURVE SMOOTH",
"106 312 OFFCURVE",
"50 280 OFFCURVE",
"50 218 CURVE SMOOTH",
"50 146 OFFCURVE",
"174 67 OFFCURVE",
"272 62 CURVE SMOOTH"
);
},
{
closed = 1;
nodes = (
"499 165 LINE",
"499 265 LINE",
"409 309 LINE",
"399 304 LINE",
"399 165 LINE"
);
},
{
closed = 1;
nodes = (
"326 605 LINE",
"226 605 LINE",
"226 454 LINE",
"326 438 LINE"
);
},
{
closed = 1;
nodes = (
"219 556 OFFCURVE",
"276 567 OFFCURVE",
"301 586 CURVE",
"319 569 LINE",
"459 569 LINE",
"499 646 LINE",
"490 654 LINE",
"11 654 LINE",
"6 646 LINE",
"27 586 OFFCURVE",
"79 556 OFFCURVE",
"152 556 CURVE SMOOTH"
);
}
);
width = 558;
}
);
leftKerningGroup = LK_Gha;
rightKerningGroup = RK_Gha;
unicode = 0918;
script = devanagari;
category = Letter;
},
{
color = 4;
glyphname = Nga.rj;
lastChange = "2024-03-05 09:53:24 +0000";
layers = (
{
anchors = (
{
name = bottom;
position = "{284, 9}";
},
{
name = bottom1;
position = "{284, 9}";
},
{
name = bottom2;
position = "{284, 29}";
},
{
name = bottom3;
position = "{314, 9}";
},
{
name = bottomRu;
position = "{336, 33}";
},
{
name = top;
position = "{73, 604}";
},
{
name = top1;
position = "{511, 646}";
},
{
name = top2;
position = "{278, 646}";
}
);
layerId = "C3E057B1-67D4-4FCF-93C0-B6D1362B390D";
paths = (
{
closed = 1;
nodes = (
"423 33 OFFCURVE",
"486 89 OFFCURVE",
"486 166 CURVE SMOOTH",
"486 250 OFFCURVE",
"399 339 OFFCURVE",
"318 339 CURVE SMOOTH",
"263 339 OFFCURVE",
"206 305 OFFCURVE",
"181 245 CURVE",
"206 241 LINE",
"107 325 LINE",
"134 274 LINE",
"151 351 OFFCURVE",
"207 396 OFFCURVE",
"283 396 CURVE SMOOTH",
"364 396 OFFCURVE",
"429 364 OFFCURVE",
"549 266 CURVE",
"563 282 LINE",
"524 318 OFFCURVE",
"511 343 OFFCURVE",
"511 382 CURVE SMOOTH",
"511 646 LINE",
"411 613 LINE",
"411 381 LINE",
"440 406 LINE",
"370 462 OFFCURVE",
"290 487 OFFCURVE",
"227 487 CURVE SMOOTH",
"141 487 OFFCURVE",
"66 440 OFFCURVE",
"44 360 CURVE SMOOTH",
"40 347 OFFCURVE",
"44 337 OFFCURVE",
"55 326 CURVE SMOOTH",
"113 269 OFFCURVE",
"178 216 OFFCURVE",
"240 178 CURVE",
"250 180 LINE",
"280 230 OFFCURVE",
"325 260 OFFCURVE",
"361 260 CURVE SMOOTH",
"384 260 OFFCURVE",
"397 248 OFFCURVE",
"397 226 CURVE SMOOTH",
"397 176 OFFCURVE",
"333 127 OFFCURVE",
"263 127 CURVE SMOOTH",
"200 127 OFFCURVE",
"126 167 OFFCURVE",
"36 250 CURVE",
"21 235 LINE",
"134 100 OFFCURVE",
"240 33 OFFCURVE",
"336 33 CURVE SMOOTH"
);
},
{
closed = 1;
nodes = (
"341 613 LINE",
"241 613 LINE",
"241 443 LINE",
"341 420 LINE"
);
},
{
closed = 1;
nodes = (
"242 549 OFFCURVE",
"302 565 OFFCURVE",
"329 584 CURVE",
"315 569 LINE",
"487 569 LINE",
"511 646 LINE",
"502 654 LINE",
"5 654 LINE",
"0 646 LINE",
"21 585 OFFCURVE",
"82 549 OFFCURVE",
"173 549 CURVE SMOOTH"
);
}
);
width = 559;
}
);
leftKerningGroup = LK_Dda;
rightKerningGroup = RK_Tta;
unicode = 0919;
script = devanagari;
category = Letter;
},
{
color = 4;
glyphname = Ca.rj;
lastChange = "2024-03-05 08:13:15 +0000";
layers = (
{
anchors = (
{
name = bottom;
position = "{346, 69}";
},
{
name = bottom2;
position = "{346, 49}";
},
{
name = bottom3;
position = "{346, 30}";
},
{
name = top;
position = "{84, 594}";
},
{
name = top1;
position = "{446, 646}";
},
{
name = top2;
position = "{244, 646}";
}
);
components = (
{
name = _terminal;
transform = "{1, 0, 0, 1, 346, 0}";
}
);
layerId = "C3E057B1-67D4-4FCF-93C0-B6D1362B390D";
paths = (
{
closed = 1;
nodes = (
"319 125 OFFCURVE",
"361 133 OFFCURVE",
"388 153 CURVE",
"340 239 LINE",
"315 226 OFFCURVE",
"296 219 OFFCURVE",
"259 220 CURVE SMOOTH",
"190 221 OFFCURVE",
"151 233 OFFCURVE",
"133 280 CURVE",
"112 234 LINE",
"148 223 LINE",
"165 320 OFFCURVE",
"216 377 OFFCURVE",
"296 377 CURVE SMOOTH",
"339 377 OFFCURVE",
"382 361 OFFCURVE",
"434 335 CURVE",
"394 418 LINE",
"346 452 OFFCURVE",
"291 474 OFFCURVE",
"245 474 CURVE SMOOTH",
"104 474 OFFCURVE",
"85 348 OFFCURVE",
"53 348 CURVE SMOOTH",
"44 348 OFFCURVE",
"33 354 OFFCURVE",
"18 372 CURVE",
"0 359 LINE",
"85 206 OFFCURVE",
"169 125 OFFCURVE",
"285 125 CURVE SMOOTH"
);
},
{
closed = 1;
nodes = (
"376 185 LINE",
"397 302 LINE",
"369 312 OFFCURVE",
"349 315 OFFCURVE",
"332 315 CURVE SMOOTH",
"271 315 OFFCURVE",
"230 271 OFFCURVE",
"230 213 CURVE SMOOTH",
"230 197 OFFCURVE",
"240 185 OFFCURVE",
"245 171 CURVE"
);
},
{
closed = 1;
nodes = (
"285 534 OFFCURVE",
"335 549 OFFCURVE",
"389 561 CURVE",
"446 646 LINE",
"437 654 LINE",
"6 654 LINE",
"1 646 LINE",
"32 575 OFFCURVE",
"90 534 OFFCURVE",
"194 534 CURVE SMOOTH"
);
},
{
closed = 1;
nodes = (
"446 216 LINE",
"446 646 LINE",
"346 618 LINE",
"346 216 LINE"
);
}
);
width = 501;
}
);
leftKerningGroup = LK_Ca;
rightKerningGroup = RK_Danda;
rightMetricsKey = matraA.rj;
unicode = 091A;
script = devanagari;
category = Letter;
},
{
color = 4;
glyphname = Cha.rj;
lastChange = "2024-03-05 09:53:24 +0000";
layers = (
{
anchors = (
{
name = bottom;
position = "{378, 36}";
},
{
name = bottom2;
position = "{382, 46}";
},
{
name = bottom3;
position = "{377, 30}";
},
{
name = top;
position = "{84, 594}";
},
{
name = top1;
position = "{477, 646}";
},
{
name = top2;
position = "{244, 646}";
}
);
layerId = "C3E057B1-67D4-4FCF-93C0-B6D1362B390D";
paths = (
{
closed = 1;
nodes = (
"576 -8 LINE",
"523 23 LINE SMOOTH",
"488 44 OFFCURVE",
"477 63 OFFCURVE",
"477 103 CURVE SMOOTH",
"477 646 LINE",
"379 589 LINE",
"379 291 LINE",
"396 295 LINE",
"370 315 OFFCURVE",
"334 326 OFFCURVE",
"298 326 CURVE SMOOTH",
"234 326 OFFCURVE",
"181 282 OFFCURVE",
"181 230 CURVE SMOOTH",
"181 150 OFFCURVE",
"251 101 OFFCURVE",
"567 -26 CURVE"
);
},
{
closed = 1;
nodes = (
"201 143 OFFCURVE",
"234 151 OFFCURVE",
"265 167 CURVE",
"252 204 LINE",
"227 194 OFFCURVE",
"206 190 OFFCURVE",
"189 190 CURVE SMOOTH",
"149 190 OFFCURVE",
"126 207 OFFCURVE",
"126 236 CURVE SMOOTH",
"126 271 OFFCURVE",
"153 296 OFFCURVE",
"190 296 CURVE",
"149 365 LINE",
"81 365 OFFCURVE",
"33 319 OFFCURVE",
"33 253 CURVE SMOOTH",
"33 189 OFFCURVE",
"87 143 OFFCURVE",
"164 143 CURVE SMOOTH"
);
},
{
closed = 1;
nodes = (
"309 131 OFFCURVE",
"283 160 OFFCURVE",
"283 193 CURVE SMOOTH",
"283 228 OFFCURVE",
"310 251 OFFCURVE",
"352 251 CURVE SMOOTH",
"373 251 OFFCURVE",
"389 246 OFFCURVE",
"412 237 CURVE",
"382 277 LINE",
"382 169 LINE",
"416 192 LINE",
"399 199 OFFCURVE",
"383 203 OFFCURVE",
"370 203 CURVE SMOOTH",
"340 203 OFFCURVE",
"316 180 OFFCURVE",
"316 151 CURVE SMOOTH",
"316 140 OFFCURVE",
"318 127 OFFCURVE",
"324 113 CURVE",
"363 100 LINE"
);
},
{
closed = 1;
nodes = (
"267 267 LINE",
"232 289 OFFCURVE",
"179 332 OFFCURVE",
"138 371 CURVE",
"181 312 LINE",
"190 374 OFFCURVE",
"243 419 OFFCURVE",
"301 419 CURVE SMOOTH",
"327 419 OFFCURVE",
"362 410 OFFCURVE",
"398 390 CURVE",
"406 443 LINE",
"358 484 OFFCURVE",
"306 504 OFFCURVE",
"249 504 CURVE SMOOTH",
"137 504 OFFCURVE",
"109 407 OFFCURVE",
"72 407 CURVE SMOOTH",
"66 407 OFFCURVE",
"56 410 OFFCURVE",
"37 423 CURVE",
"21 405 LINE",
"102 331 OFFCURVE",
"186 270 OFFCURVE",
"253 230 CURVE"
);
},
{
closed = 1;
nodes = (
"403 344 LINE",
"390 357 OFFCURVE",
"354 370 OFFCURVE",
"326 370 CURVE SMOOTH",
"273 370 OFFCURVE",
"232 324 OFFCURVE",
"232 273 CURVE",
"387 269 LINE"
);
},
{
closed = 1;
nodes = (
"272 554 OFFCURVE",
"381 566 OFFCURVE",
"414 579 CURVE",
"477 646 LINE",
"468 654 LINE",
"6 654 LINE",
"2 646 LINE",
"22 585 OFFCURVE",
"85 554 OFFCURVE",
"181 554 CURVE SMOOTH"
);
}
);
width = 532;
}
);
leftKerningGroup = LK_Ka;
rightKerningGroup = RK_Danda;
rightMetricsKey = matraA.rj;
unicode = 091B;
script = devanagari;
category = Letter;
},
{
color = 4;
glyphname = Ja.rj;
lastChange = "2024-03-05 09:53:24 +0000";
layers = (
{
anchors = (
{
name = bottom;
position = "{274, 15}";
},
{
name = bottom1;
position = "{274, 15}";
},
{
name = bottom2;
position = "{279, 39}";
},
{
name = bottom3;
position = "{353, 9}";
},
{
name = bottomRu;
position = "{327, 45}";
},
{
name = top;
position = "{79, 604}";
},
{
name = top1;
position = "{455, 646}";
},
{
name = top2;
position = "{336, 646}";
}
);
components = (
{
name = _terminal;
transform = "{1, 0, 0, 1, 527, 0}";
}
);
layerId = "C3E057B1-67D4-4FCF-93C0-B6D1362B390D";
paths = (
{
closed = 1;
nodes = (
"410 45 OFFCURVE",
"475 97 OFFCURVE",
"475 175 CURVE SMOOTH",
"475 261 OFFCURVE",
"385 349 OFFCURVE",
"307 349 CURVE SMOOTH",
"252 349 OFFCURVE",
"211 318 OFFCURVE",
"186 255 CURVE",
"211 251 LINE",
"112 335 LINE",
"149 284 LINE",
"166 359 OFFCURVE",
"224 406 OFFCURVE",
"311 406 CURVE SMOOTH",
"385 406 OFFCURVE",
"460 369 OFFCURVE",
"547 301 CURVE",
"547 366 LINE",
"513 399 OFFCURVE",
"461 439 OFFCURVE",
"416 462 CURVE",
"385 469 LINE",
"338 486 OFFCURVE",
"293 497 OFFCURVE",
"251 497 CURVE SMOOTH",
"150 497 OFFCURVE",
"73 447 OFFCURVE",
"49 360 CURVE SMOOTH",
"44 342 OFFCURVE",
"50 334 OFFCURVE",
"60 326 CURVE SMOOTH",
"118 279 OFFCURVE",
"183 226 OFFCURVE",
"245 188 CURVE",
"255 190 LINE",
"280 238 OFFCURVE",
"318 270 OFFCURVE",
"353 270 CURVE SMOOTH",
"372 270 OFFCURVE",
"387 258 OFFCURVE",
"387 232 CURVE SMOOTH",
"387 181 OFFCURVE",
"318 137 OFFCURVE",
"257 137 CURVE SMOOTH",
"193 137 OFFCURVE",
"119 179 OFFCURVE",
"31 260 CURVE",
"16 245 LINE",
"124 115 OFFCURVE",
"226 45 OFFCURVE",
"327 45 CURVE SMOOTH"
);
},
{
closed = 1;
nodes = (
"627 193 LINE",
"627 425 LINE",
"536 463 LINE",
"527 458 LINE",
"527 193 LINE"
);
},
{
closed = 1;
nodes = (
"455 608 LINE",
"355 608 LINE",
"355 443 LINE",
"455 400 LINE"
);
},
{
closed = 1;
nodes = (
"338 549 OFFCURVE",
"519 566 OFFCURVE",
"630 576 CURVE",
"637 584 LINE",
"595 654 LINE",
"5 654 LINE",
"0 646 LINE",
"31 579 OFFCURVE",
"91 549 OFFCURVE",
"204 549 CURVE SMOOTH"
);
}
);
width = 682;
}
);
leftKerningGroup = LK_Dda;
rightKerningGroup = RK_Danda;
rightMetricsKey = Ka.rj;
unicode = 091C;
script = devanagari;
category = Letter;
},
{
color = 4;
glyphname = Jha.rj;
lastChange = "2024-03-05 09:53:24 +0000";
layers = (
{
anchors = (
{
name = bottom;
position = "{292, 33}";
},
{
name = bottom2;
position = "{227, 101}";
},
{
name = bottom3;
position = "{238, 79}";
},
{
name = top;
position = "{93, 584}";
},
{
name = top1;
position = "{531, 646}";
},
{
name = top2;
position = "{293, 646}";
}
);
layerId = "C3E057B1-67D4-4FCF-93C0-B6D1362B390D";
paths = (
{
closed = 1;
nodes = (
"455 10 LINE",
"398 59 LINE SMOOTH",
"356 95 OFFCURVE",
"346 115 OFFCURVE",
"346 152 CURVE SMOOTH",
"346 638 LINE",
"246 598 LINE",
"246 404 LINE",
"291 444 LINE",
"273 461 OFFCURVE",
"254 470 OFFCURVE",
"222 470 CURVE SMOOTH",
"98 470 OFFCURVE",
"116 340 OFFCURVE",
"61 340 CURVE SMOOTH",
"50 340 OFFCURVE",
"34 346 OFFCURVE",
"19 358 CURVE",
"3 341 LINE",
"127 217 OFFCURVE",
"274 108 OFFCURVE",
"439 -9 CURVE"
);
},
{
closed = 1;
nodes = (
"583 117 LINE",
"538 150 OFFCURVE",
"531 167 OFFCURVE",
"531 210 CURVE SMOOTH",
"531 646 LINE",
"431 639 LINE",
"431 210 LINE",
"442 232 LINE",
"399 260 OFFCURVE",
"343 309 OFFCURVE",
"317 332 CURVE",
"298 271 LINE",
"388 210 OFFCURVE",
"458 170 OFFCURVE",
"571 100 CURVE"
);
},
{
closed = 1;
nodes = (
"204 531 OFFCURVE",
"287 544 OFFCURVE",
"301 580 CURVE",
"272 569 LINE",
"491 569 LINE",
"531 646 LINE",
"522 654 LINE",
"5 654 LINE",
"0 646 LINE",
"16 582 OFFCURVE",
"77 531 OFFCURVE",
"157 531 CURVE SMOOTH"
);
}
);
width = 583;
}
);
leftKerningGroup = LK_Jha;
rightKerningGroup = RK_Pha;
unicode = 091D;
script = devanagari;
category = Letter;
},
{
color = 4;
glyphname = Nya.rj;
lastChange = "2024-03-05 10:10:30 +0000";
layers = (
{
anchors = (
{
name = bottom;
position = "{266, 200}";
},
{
name = bottom2;
position = "{245, 106}";
},
{
name = bottom3;
position = "{500, 12}";
},
{
name = bottomRu;
position = "{242, 150}";
},
{
name = top;
position = "{74, 604}";
},
{
name = top1;
position = "{560, 646}";
},
{
name = top2;
position = "{324, 646}";
}
);
layerId = "C3E057B1-67D4-4FCF-93C0-B6D1362B390D";
paths = (
{
closed = 1;
nodes = (
"659 -9 LINE",
"601 29 LINE SMOOTH",
"563 54 OFFCURVE",
"560 71 OFFCURVE",
"560 103 CURVE SMOOTH",
"560 646 LINE",
"460 612 LINE",
"460 118 LINE",
"478 123 LINE",
"429 155 OFFCURVE",
"404 174 OFFCURVE",
"322 240 CURVE",
"290 185 LINE",
"317 167 OFFCURVE",
"633 -18 OFFCURVE",
"648 -26 CURVE"
);
},
{
closed = 1;
nodes = (
"179 311 OFFCURVE",
"197 329 OFFCURVE",
"197 371 CURVE SMOOTH",
"197 387 OFFCURVE",
"194 425 OFFCURVE",
"191 447 CURVE",
"165 406 LINE",
"213 398 OFFCURVE",
"241 399 OFFCURVE",
"277 378 CURVE",
"283 427 LINE",
"240 460 OFFCURVE",
"182 475 OFFCURVE",
"140 475 CURVE SMOOTH",
"84 475 OFFCURVE",
"45 442 OFFCURVE",
"45 394 CURVE SMOOTH",
"45 348 OFFCURVE",
"94 311 OFFCURVE",
"144 311 CURVE SMOOTH"
);
},
{
closed = 1;
nodes = (
"314 150 OFFCURVE",
"366 188 OFFCURVE",
"366 284 CURVE SMOOTH",
"366 612 LINE",
"266 612 LINE",
"266 318 LINE SMOOTH",
"266 262 OFFCURVE",
"236 232 OFFCURVE",
"177 232 CURVE SMOOTH",
"137 232 OFFCURVE",
"95 244 OFFCURVE",
"35 288 CURVE",
"22 273 LINE",
"106 190 OFFCURVE",
"179 150 OFFCURVE",
"242 150 CURVE SMOOTH"
);
},
{
closed = 1;
nodes = (
"224 544 OFFCURVE",
"280 549 OFFCURVE",
"317 562 CURVE",
"328 569 LINE",
"520 569 LINE",
"560 646 LINE",
"553 654 LINE",
"6 654 LINE",
"2 646 LINE",
"27 582 OFFCURVE",
"85 544 OFFCURVE",
"179 544 CURVE SMOOTH"
);
}
);
width = 615;
}
);
leftKerningGroup = LK_vowelA;
rightKerningGroup = RK_Danda;
rightMetricsKey = matraA.rj;
unicode = 091E;
script = devanagari;
category = Letter;
},
{
color = 4;
glyphname = Tta.rj;
lastChange = "2024-03-05 08:13:15 +0000";
layers = (
{
anchors = (
{
name = bottom;
position = "{336, 20}";
},
{
name = bottom2;
position = "{267, 85}";
},
{
name = bottom3;
position = "{299, 55}";
},
{
name = bottomRu;
position = "{332, 20}";
},
{
name = top;
position = "{104, 584}";
},
{
name = top1;
position = "{513, 646}";
},
{
name = top2;
position = "{294, 646}";
}
);
layerId = "C3E057B1-67D4-4FCF-93C0-B6D1362B390D";
paths = (
{
closed = 1;
nodes = (
"497 -6 LINE",
"411 67 OFFCURVE",
"372 101 OFFCURVE",
"299 175 CURVE",
"275 190 LINE",
"229 232 OFFCURVE",
"174 278 OFFCURVE",
"148 301 CURVE",
"166 246 LINE",
"201 321 OFFCURVE",
"252.009 363 OFFCURVE",
"326 363 CURVE SMOOTH",
"394 363 OFFCURVE",
"463 327 OFFCURVE",
"550 262 CURVE",
"564 278 LINE",
"527 316 OFFCURVE",
"513 338 OFFCURVE",
"513 377 CURVE SMOOTH",
"513 646 LINE",
"413 634 LINE",
"413 363 LINE",
"423 397 LINE",
"363 454 OFFCURVE",
"317 469 OFFCURVE",
"268 469 CURVE SMOOTH",
"132 469 OFFCURVE",
"107 355 OFFCURVE",
"61 355 CURVE SMOOTH",
"50 355 OFFCURVE",
"37 363 OFFCURVE",
"20 377 CURVE",
"4 359 LINE",
"125 244 OFFCURVE",
"305 105 OFFCURVE",
"483 -22 CURVE"
);
},
{
closed = 1;
nodes = (
"365 101 OFFCURVE",
"362 116 OFFCURVE",
"362 130 CURVE SMOOTH",
"362 164 OFFCURVE",
"383 188 OFFCURVE",
"415 188 CURVE SMOOTH",
"439 188 OFFCURVE",
"465 178 OFFCURVE",
"485 161 CURVE",
"497 176 LINE",
"441 243 OFFCURVE",
"404 273 OFFCURVE",
"345 273 CURVE SMOOTH",
"301 273 OFFCURVE",
"262 240 OFFCURVE",
"244 190 CURVE",
"388 82 LINE"
);
},
{
closed = 1;
nodes = (
"340 635 LINE",
"240 635 LINE",
"240 415 LINE",
"340 408 LINE"
);
},
{
closed = 1;
nodes = (
"217 541 OFFCURVE",
"275 555 OFFCURVE",
"296 571 CURVE",
"304 569 LINE",
"478 569 LINE",
"513 646 LINE",
"504 654 LINE",
"6 654 LINE",
"0 644 LINE",
"22 584 OFFCURVE",
"79 541 OFFCURVE",
"167 541 CURVE SMOOTH"
);
}
);
width = 570;
}
);
leftKerningGroup = LK_Tta;
rightKerningGroup = RK_Tta;
unicode = 091F;
script = devanagari;
category = Letter;
},
{
color = 4;
glyphname = Ttha.rj;
lastChange = "2024-03-05 08:13:15 +0000";
layers = (
{
anchors = (
{
name = bottom;
position = "{257, 36}";
},
{
name = bottom1;
position = "{261, 36}";
},
{
name = bottom2;
position = "{261, 62}";
},
{
name = bottom3;
position = "{272, 30}";
},
{
name = bottomRu;
position = "{317, 20}";
},
{
name = top;
position = "{102, 604}";
},
{
name = top1;
position = "{340, 646}";
},
{
name = top2;
position = "{262, 646}";
}
);
layerId = "C3E057B1-67D4-4FCF-93C0-B6D1362B390D";
paths = (
{
closed = 1;
nodes = (
"481 -8 LINE",
"408 35 OFFCURVE",
"356 65 OFFCURVE",
"308 98 CURVE",
"258 127 LINE",
"188 173 OFFCURVE",
"164 205 OFFCURVE",
"164 291 CURVE SMOOTH",
"164 358 OFFCURVE",
"208 408 OFFCURVE",
"289 408 CURVE SMOOTH",
"308 408 OFFCURVE",
"337 403 OFFCURVE",
"352 398 CURVE",
"325 447 LINE",
"266 477 LINE",
"245 482 OFFCURVE",
"226 484 OFFCURVE",
"207 484 CURVE SMOOTH",
"106 484 OFFCURVE",
"39 418 OFFCURVE",
"39 312 CURVE SMOOTH",
"39 232 OFFCURVE",
"69 170 OFFCURVE",
"254 76 CURVE SMOOTH",
"319 44 OFFCURVE",
"367 24 OFFCURVE",
"470 -26 CURVE"
);
},
{
closed = 1;
nodes = (
"428 84 OFFCURVE",
"467 142 OFFCURVE",
"467 230 CURVE SMOOTH",
"467 291 LINE SMOOTH",
"467 361 OFFCURVE",
"431 408 OFFCURVE",
"318 467 CURVE",
"281 414 LINE",
"328 403 OFFCURVE",
"354 382 OFFCURVE",
"354 325 CURVE SMOOTH",
"354 283 LINE SMOOTH",
"354 208 OFFCURVE",
"318 147 OFFCURVE",
"234 131 CURVE",
"351 60 LINE"
);
},
{
closed = 1;
nodes = (
"341 601 LINE",
"241 601 LINE",
"241 455 LINE",
"341 427 LINE"
);
},
{
closed = 1;
nodes = (
"256 545 OFFCURVE",
"389 557 OFFCURVE",
"471 575 CURVE",
"476 583 LINE",
"434 654 LINE",
"15 654 LINE",
"10 646 LINE",
"21 590 OFFCURVE",
"96 545 OFFCURVE",
"193 545 CURVE SMOOTH"
);
}
);
width = 506;
}
);
leftKerningGroup = LK_Ka;
unicode = 0920;
script = devanagari;
category = Letter;
},
{
color = 4;
glyphname = Dda.rj;
lastChange = "2024-03-05 09:53:24 +0000";
layers = (
{
anchors = (
{
name = bottom;
position = "{280, 9}";
},
{
name = bottom1;
position = "{280, 9}";
},
{
name = bottom2;
position = "{280, 29}";
},
{
name = bottom3;
position = "{320, 9}";
},
{
name = bottomRu;
position = "{332, 33}";
},
{
name = top;
position = "{80, 604}";
},
{
name = top1;
position = "{455, 646}";
},
{
name = top2;
position = "{245, 646}";
}
);
layerId = "C3E057B1-67D4-4FCF-93C0-B6D1362B390D";
paths = (
{
closed = 1;
nodes = (
"419 33 OFFCURVE",
"482 89 OFFCURVE",
"482 166 CURVE SMOOTH",
"482 250 OFFCURVE",
"395 339 OFFCURVE",
"314 339 CURVE SMOOTH",
"259 339 OFFCURVE",
"212 305 OFFCURVE",
"187 245 CURVE",
"212 241 LINE",
"113 325 LINE",
"140 274 LINE",
"157 351 OFFCURVE",
"213 396 OFFCURVE",
"289 396 CURVE SMOOTH",
"339 396 OFFCURVE",
"396 376 OFFCURVE",
"441 348 CURVE",
"440 406 LINE",
"370 452 OFFCURVE",
"296 487 OFFCURVE",
"233 487 CURVE SMOOTH",
"147 487 OFFCURVE",
"72 444 OFFCURVE",
"47 364 CURVE SMOOTH",
"43 351 OFFCURVE",
"47 341 OFFCURVE",
"58 330 CURVE SMOOTH",
"116 275 OFFCURVE",
"184 218 OFFCURVE",
"246 178 CURVE",
"256 180 LINE",
"282 230 OFFCURVE",
"321 260 OFFCURVE",
"357 260 CURVE SMOOTH",
"380 260 OFFCURVE",
"393 248 OFFCURVE",
"393 226 CURVE SMOOTH",
"393 176 OFFCURVE",
"329 127 OFFCURVE",
"259 127 CURVE SMOOTH",
"196 127 OFFCURVE",
"122 167 OFFCURVE",
"32 250 CURVE",
"17 235 LINE",
"130 100 OFFCURVE",
"236 33 OFFCURVE",
"332 33 CURVE SMOOTH"
);
},
{
closed = 1;
nodes = (
"238 549 OFFCURVE",
"343 560 OFFCURVE",
"377 574 CURVE",
"455 646 LINE",
"447 654 LINE",
"5 654 LINE",
"0 646 LINE",
"21 585 OFFCURVE",
"82 549 OFFCURVE",
"173 549 CURVE SMOOTH"
);
},
{
closed = 1;
nodes = (
"455 353 LINE",
"455 646 LINE",
"355 616 LINE",
"355 412 LINE",
"441 348 LINE"
);
}
);
width = 512;
}
);
leftKerningGroup = LK_Dda;
rightKerningGroup = RK_Dda;
unicode = 0921;
script = devanagari;
category = Letter;
},
{
color = 4;
glyphname = Ddha.rj;
lastChange = "2024-03-05 08:13:15 +0000";
layers = (
{
anchors = (
{
name = bottom;
position = "{334, 32}";
},
{
name = bottom1;
position = "{334, 32}";
},
{
name = bottom2;
position = "{329, 39}";
},
{
name = bottom3;
position = "{359, 9}";
},
{
name = bottomRu;
position = "{379, 49}";
},
{
name = top;
position = "{97, 584}";
},
{
name = top1;
position = "{533, 646}";
},
{
name = top2;
position = "{289, 646}";
}
);
layerId = "C3E057B1-67D4-4FCF-93C0-B6D1362B390D";
paths = (
{
closed = 1;
nodes = (
"203 331 OFFCURVE",
"271 365 OFFCURVE",
"346 365 CURVE SMOOTH",
"412 365 OFFCURVE",
"473 331 OFFCURVE",
"570 262 CURVE",
"584 278 LINE",
"547 316 OFFCURVE",
"533 338 OFFCURVE",
"533 377 CURVE SMOOTH",
"533 646 LINE",
"433 634 LINE",
"433 363 LINE",
"456 388 LINE",
"392 449 OFFCURVE",
"330 469 OFFCURVE",
"278 469 CURVE SMOOTH",
"142 469 OFFCURVE",
"98 352 OFFCURVE",
"60 352 CURVE SMOOTH",
"47 352 OFFCURVE",
"37 358 OFFCURVE",
"18 374 CURVE",
"3 361 LINE",
"112 270 OFFCURVE",
"118 268 OFFCURVE",
"151 223 CURVE"
);
},
{
closed = 1;
nodes = (
"448 49 OFFCURVE",
"503 103 OFFCURVE",
"503 166 CURVE SMOOTH",
"503 232 OFFCURVE",
"411 308 OFFCURVE",
"341 308 CURVE SMOOTH",
"302 308 OFFCURVE",
"261 278 OFFCURVE",
"230 232 CURVE",
"321 174 LINE",
"346 205 OFFCURVE",
"376 233 OFFCURVE",
"399 233 CURVE SMOOTH",
"413 233 OFFCURVE",
"421 226 OFFCURVE",
"421 214 CURVE SMOOTH",
"421 180 OFFCURVE",
"373 145 OFFCURVE",
"319 145 CURVE SMOOTH",
"223 145 OFFCURVE",
"147 244 OFFCURVE",
"106 311 CURVE",
"3 361 LINE",
"162 145 OFFCURVE",
"256 49 OFFCURVE",
"374 49 CURVE SMOOTH"
);
},
{
closed = 1;
nodes = (
"360 635 LINE",
"260 635 LINE",
"260 415 LINE",
"360 408 LINE"
);
},
{
closed = 1;
nodes = (
"215 541 OFFCURVE",
"271 555 OFFCURVE",
"291 571 CURVE",
"294 569 LINE",
"498 569 LINE",
"533 646 LINE",
"524 654 LINE",
"6 654 LINE",
"0 644 LINE",
"22 584 OFFCURVE",
"79 541 OFFCURVE",
"167 541 CURVE SMOOTH"
);
}
);
width = 590;
}
);
leftKerningGroup = LK_Tta;
rightKerningGroup = RK_Tta;
unicode = 0922;
script = devanagari;
category = Letter;
},
{
color = 4;
glyphname = Nna.rj;
lastChange = "2024-03-05 08:13:15 +0000";
layers = (
{
anchors = (
{
name = bottom;
position = "{420, 49}";
},
{
name = bottom3;
position = "{596, -6}";
},
{
name = top;
position = "{93, 604}";
},
{
name = top1;
position = "{586, 646}";
},
{
name = top2;
position = "{319, 646}";
}
);
components = (
{
name = _terminal;
transform = "{1, 0, 0, 1, 486, 0}";
}
);
layerId = "C3E057B1-67D4-4FCF-93C0-B6D1362B390D";
paths = (
{
closed = 1;
nodes = (
"441 -3 LINE",
"305 71 LINE SMOOTH",
"194 131 OFFCURVE",
"144 184 OFFCURVE",
"144 252 CURVE SMOOTH",
"144 314 OFFCURVE",
"190 361 OFFCURVE",
"254 361 CURVE SMOOTH",
"275 361 OFFCURVE",
"300 355 OFFCURVE",
"338 340 CURVE",
"345 366 LINE",
"305 419 OFFCURVE",
"257 450 OFFCURVE",
"190 450 CURVE SMOOTH",
"87 450 OFFCURVE",
"26 393 OFFCURVE",
"26 296 CURVE SMOOTH",
"26 206 OFFCURVE",
"101 130 OFFCURVE",
"258 55 CURVE SMOOTH",
"427 -26 LINE"
);
},
{
closed = 1;
nodes = (
"388 153 OFFCURVE",
"398 162 OFFCURVE",
"398 187 CURVE",
"340 331 LINE",
"282 331 OFFCURVE",
"231 294 OFFCURVE",
"231 252 CURVE SMOOTH",
"231 200 OFFCURVE",
"297 153 OFFCURVE",
"361 153 CURVE SMOOTH"
);
},
{
closed = 1;
nodes = (
"398 604 LINE",
"298 604 LINE",
"298 287 LINE",
"398 187 LINE"
);
},
{
closed = 1;
nodes = (
"232 540 OFFCURVE",
"289 545 OFFCURVE",
"326 558 CURVE",
"337 569 LINE",
"530 569 LINE",
"586 646 LINE",
"579 654 LINE",
"4 654 LINE",
"0 646 LINE",
"25 582 OFFCURVE",
"82 540 OFFCURVE",
"187 540 CURVE SMOOTH"
);
},
{
closed = 1;
nodes = (
"586 203 LINE",
"586 646 LINE",
"486 604 LINE",
"486 203 LINE"
);
}
);
width = 641;
}
);
leftKerningGroup = LK_Ka;
rightKerningGroup = RK_Danda;
rightMetricsKey = matraA.rj;
unicode = 0923;
script = devanagari;
category = Letter;
},
{
color = 4;
glyphname = Ta.rj;
lastChange = "2024-03-05 09:53:24 +0000";
layers = (
{
anchors = (
{
name = bottom3;
position = "{462, -26}";
},
{
name = top;
position = "{78, 594}";
},
{
name = top1;
position = "{438, 646}";
},
{
name = top2;
position = "{237, 646}";
}
);
components = (
{
name = _terminal;
transform = "{1, 0, 0, 1, 338, 0}";
}
);
layerId = "C3E057B1-67D4-4FCF-93C0-B6D1362B390D";
paths = (
{
closed = 1;
nodes = (
"354 -8 LINE",
"239 76 OFFCURVE",
"159 147 OFFCURVE",
"102 230 CURVE",
"122 166 LINE",
"192 166 OFFCURVE",
"226 213 OFFCURVE",
"226 272 CURVE SMOOTH",
"226 290 OFFCURVE",
"225 297 OFFCURVE",
"225 315 CURVE SMOOTH",
"225 354 OFFCURVE",
"246 375 OFFCURVE",
"285 375 CURVE SMOOTH",
"315 375 OFFCURVE",
"333 366 OFFCURVE",
"375 329 CURVE",
"374 378 LINE",
"333 430 OFFCURVE",
"273 456 OFFCURVE",
"198 456 CURVE SMOOTH",
"96 456 OFFCURVE",
"30 394 OFFCURVE",
"30 300 CURVE SMOOTH",
"30 194 OFFCURVE",
"126 97 OFFCURVE",
"341 -27 CURVE"
);
},
{
closed = 1;
nodes = (
"269 536 OFFCURVE",
"341 548 OFFCURVE",
"397 573 CURVE",
"438 646 LINE",
"429 654 LINE",
"0 654 LINE",
"-5 646 LINE",
"22 572 OFFCURVE",
"82 536 OFFCURVE",
"178 536 CURVE SMOOTH"
);
},
{
closed = 1;
nodes = (
"438 203 LINE",
"438 646 LINE",
"338 618 LINE",
"338 203 LINE"
);
}
);
width = 493;
}
);
leftKerningGroup = LK_Ka;
rightKerningGroup = RK_Danda;
rightMetricsKey = matraA.rj;
unicode = 0924;
script = devanagari;
category = Letter;
},
{
color = 4;
glyphname = Tha.rj;
lastChange = "2024-03-05 09:53:24 +0000";
layers = (
{
anchors = (
{
name = bottom;
position = "{337, 11}";
},
{
name = bottom2;
position = "{324, 59}";
},
{
name = bottom3;
position = "{278, 9}";
},
{
name = top;
position = "{73, 604}";
},
{
name = top1;
position = "{432, 646}";
},
{
name = top2;
position = "{233, 646}";
}
);
layerId = "C3E057B1-67D4-4FCF-93C0-B6D1362B390D";
paths = (
{
closed = 1;
nodes = (
"531 -20 LINE",
"477 11 LINE SMOOTH",
"441 32 OFFCURVE",
"432 49 OFFCURVE",
"432 88 CURVE SMOOTH",
"432 646 LINE",
"332 603 LINE",
"332 287 LINE",
"360 287 LINE",
"323 325 OFFCURVE",
"266 350 OFFCURVE",
"213 350 CURVE SMOOTH",
"182 350 OFFCURVE",
"151 344 OFFCURVE",
"127 333 CURVE SMOOTH",
"98 320 LINE",
"69 303 OFFCURVE",
"50 268 OFFCURVE",
"50 236 CURVE SMOOTH",
"50 119 OFFCURVE",
"175 77 OFFCURVE",
"523 -38 CURVE"
);
},
{
closed = 1;
nodes = (
"261 98 LINE",
"190 130 OFFCURVE",
"163 164 OFFCURVE",
"163 209 CURVE SMOOTH",
"163 249 OFFCURVE",
"200 277 OFFCURVE",
"253 277 CURVE SMOOTH",
"278 277 OFFCURVE",
"312 272 OFFCURVE",
"346 256 CURVE",
"337 287 LINE",
"337 160 LINE",
"360 199 LINE",
"345 207 OFFCURVE",
"330 211 OFFCURVE",
"313 211 CURVE SMOOTH",
"258 211 OFFCURVE",
"227 186 OFFCURVE",
"229 143 CURVE SMOOTH",
"230 119 OFFCURVE",
"238 96 OFFCURVE",
"251 81 CURVE"
);
},
{
closed = 1;
nodes = (
"312 190 LINE",
"258 214 OFFCURVE",
"217 239 OFFCURVE",
"175 284 CURVE",
"144 253 LINE",
"192 214 OFFCURVE",
"246 185 OFFCURVE",
"302 166 CURVE"
);
},
{
closed = 1;
nodes = (
"170 297 LINE",
"157 316 OFFCURVE",
"152 333 OFFCURVE",
"152 349 CURVE SMOOTH",
"152 390 OFFCURVE",
"180 419 OFFCURVE",
"241 419 CURVE SMOOTH",
"278 419 OFFCURVE",
"323 403 OFFCURVE",
"349 380 CURVE",
"357 422 LINE",
"315 472 OFFCURVE",
"249 502 OFFCURVE",
"178 502 CURVE SMOOTH",
"91 502 OFFCURVE",
"39 460 OFFCURVE",
"39 395 CURVE SMOOTH",
"39 346 OFFCURVE",
"77 301 OFFCURVE",
"151 272 CURVE"
);
},
{
closed = 1;
nodes = (
"259 557 OFFCURVE",
"331 567 OFFCURVE",
"385 587 CURVE",
"432 646 LINE",
"423 654 LINE",
"5 654 LINE",
"0 646 LINE",
"34 586 OFFCURVE",
"104 557 OFFCURVE",
"193 557 CURVE SMOOTH"
);
}
);
width = 487;
}
);
leftKerningGroup = LK_Tha;
rightKerningGroup = RK_Danda;
rightMetricsKey = matraA.rj;
unicode = 0925;
script = devanagari;
category = Letter;
},
{
color = 4;
glyphname = Da.rj;
lastChange = "2024-03-05 08:14:05 +0000";
layers = (
{
anchors = (
{
name = bottom;
position = "{378, 129}";
},
{
name = bottom2;
position = "{378, 19}";
},
{
name = bottom3;
position = "{378, 0}";
},
{
name = top;
position = "{94, 594}";
},
{
name = top1;
position = "{459, 646}";
},
{
name = top2;
position = "{254, 646}";
}
);
components = (
{
name = _terminal;
transform = "{1, 0, 0, 1, 378, -30}";
}
);
layerId = "C3E057B1-67D4-4FCF-93C0-B6D1362B390D";
paths = (
{
closed = 1;
nodes = (
"172 334 OFFCURVE",
"240 393 OFFCURVE",
"317 393 CURVE SMOOTH",
"363 393 OFFCURVE",
"411 377 OFFCURVE",
"451 351 CURVE",
"459 355 LINE",
"459 646 LINE",
"359 634 LINE",
"359 423 LINE",
"416 408 LINE",
"361 466 OFFCURVE",
"316 489 OFFCURVE",
"253 489 CURVE SMOOTH",
"131 489 OFFCURVE",
"78 367 OFFCURVE",
"51 367 CURVE SMOOTH",
"42 367 OFFCURVE",
"31 374 OFFCURVE",
"14 389 CURVE",
"-1 377 LINE",
"87 293 OFFCURVE",
"114 273 OFFCURVE",
"140 240 CURVE"
);
},
{
closed = 1;
nodes = (
"367 87 OFFCURVE",
"409 105 OFFCURVE",
"439 136 CURVE",
"478 165 LINE",
"478 211 LINE SMOOTH",
"478 273 OFFCURVE",
"401 339 OFFCURVE",
"335 339 CURVE SMOOTH",
"295 339 OFFCURVE",
"252 314 OFFCURVE",
"218 255 CURVE",
"307 210 LINE",
"334 243 OFFCURVE",
"358 264 OFFCURVE",
"378 264 CURVE SMOOTH",
"389 264 OFFCURVE",
"395 258 OFFCURVE",
"395 248 CURVE SMOOTH",
"395 220 OFFCURVE",
"345 179 OFFCURVE",
"287 179 CURVE SMOOTH",
"205 179 OFFCURVE",
"141 228 OFFCURVE",
"105 326 CURVE",
"-1 377 LINE",
"113 183 OFFCURVE",
"209 87 OFFCURVE",
"318 87 CURVE SMOOTH"
);
},
{
closed = 1;
nodes = (
"268 539 OFFCURVE",
"360 553 OFFCURVE",
"395 574 CURVE",
"459 646 LINE",
"450 654 LINE",
"-4 654 LINE",
"-9 646 LINE",
"13 581 OFFCURVE",
"91 539 OFFCURVE",
"188 539 CURVE SMOOTH"
);
}
);
width = 523;
}
);
leftKerningGroup = LK_Tta;
rightKerningGroup = RK_Danda;
unicode = 0926;
script = devanagari;
category = Letter;
},
{
color = 4;
glyphname = Dha.rj;
lastChange = "2024-03-05 09:53:24 +0000";
layers = (
{
anchors = (
{
name = bottom;
position = "{340, 36}";
},
{
name = bottom2;
position = "{354, 40}";
},
{
name = bottom3;
position = "{332, 19}";
},
{
name = top1;
position = "{439, 646}";
},
{
name = top2;
position = "{257, 646}";
}
);
layerId = "C3E057B1-67D4-4FCF-93C0-B6D1362B390D";
paths = (
{
closed = 1;
nodes = (
"538 -8 LINE",
"484 24 LINE SMOOTH",
"448 45 OFFCURVE",
"439 62 OFFCURVE",
"439 101 CURVE SMOOTH",
"439 654 LINE",
"339 654 LINE",
"339 412 LINE",
"361 424 LINE",
"207 452 LINE",
"109 457 OFFCURVE",
"40 398 OFFCURVE",
"40 309 CURVE SMOOTH",
"40 194 OFFCURVE",
"144 118 OFFCURVE",
"528 -26 CURVE"
);
},
{
closed = 1;
nodes = (
"271 132 LINE",
"203 165 OFFCURVE",
"156 210 OFFCURVE",
"156 273 CURVE SMOOTH",
"156 338 OFFCURVE",
"196 378 OFFCURVE",
"260 378 CURVE SMOOTH",
"287 378 OFFCURVE",
"313 374 OFFCURVE",
"349 362 CURVE",
"339 388 LINE",
"339 225 LINE",
"382 277 LINE",
"353 287 OFFCURVE",
"336 290 OFFCURVE",
"318 290 CURVE SMOOTH",
"258 290 OFFCURVE",
"220 247 OFFCURVE",
"220 189 CURVE SMOOTH",
"220 170 OFFCURVE",
"225 151 OFFCURVE",
"236 129 CURVE"
);
},
{
closed = 1;
nodes = (
"350 430 LINE",
"220 464 OFFCURVE",
"169 512 OFFCURVE",
"169 592 CURVE SMOOTH",
"169 620 OFFCURVE",
"170 629 OFFCURVE",
"176 654 CURVE",
"48 654 LINE",
"42 639 OFFCURVE",
"41 625 OFFCURVE",
"41 609 CURVE SMOOTH",
"41 509 OFFCURVE",
"117 448 OFFCURVE",
"310 414 CURVE"
);
}
);
width = 494;
}
);
leftKerningGroup = LK_Ka;
rightKerningGroup = RK_Danda;
rightMetricsKey = matraA.rj;
unicode = 0927;
script = devanagari;
category = Letter;
},
{
color = 4;
glyphname = Na.rj;
lastChange = "2024-03-05 09:53:24 +0000";
layers = (
{
anchors = (
{
name = bottom;
position = "{332, 69}";
},
{
name = bottom2;
position = "{332, 49}";
},
{
name = bottom3;
position = "{332, 30}";
},
{
name = top;
position = "{94, 594}";
},
{
name = top1;
position = "{432, 646}";
},
{
name = top2;
position = "{234, 646}";
}
);
components = (
{
name = _terminal;
transform = "{1, 0, 0, 1, 332, 0}";
}
);
layerId = "C3E057B1-67D4-4FCF-93C0-B6D1362B390D";
paths = (
{
closed = 1;
nodes = (
"227 153 OFFCURVE",
"246 179 OFFCURVE",
"246 237 CURVE SMOOTH",
"246 382 LINE",
"224 332 LINE",
"271 327 OFFCURVE",
"318 308 OFFCURVE",
"363 274 CURVE",
"372 321 LINE",
"310 389 OFFCURVE",
"250 423 OFFCURVE",
"160 423 CURVE SMOOTH",
"81 423 OFFCURVE",
"25 371 OFFCURVE",
"25 298 CURVE SMOOTH",
"25 219 OFFCURVE",
"93 153 OFFCURVE",
"174 153 CURVE SMOOTH"
);
},
{
closed = 1;
nodes = (
"264 529 OFFCURVE",
"330 540 OFFCURVE",
"389 566 CURVE",
"432 646 LINE",
"423 654 LINE",
"5 654 LINE",
"0 646 LINE",
"28 567 OFFCURVE",
"88 529 OFFCURVE",
"181 529 CURVE SMOOTH"
);
},
{
closed = 1;
nodes = (
"432 209 LINE",
"432 646 LINE",
"332 594 LINE",
"332 209 LINE"
);
}
);
width = 487;
}
);
leftKerningGroup = LK_Na;
rightKerningGroup = RK_Danda;
rightMetricsKey = matraA.rj;
unicode = 0928;
script = devanagari;
category = Letter;
},
{
color = 4;
glyphname = Pa.rj;
lastChange = "2024-03-05 09:53:24 +0000";
layers = (
{
anchors = (
{
name = bottom;
position = "{367, 36}";
},
{
name = bottom2;
position = "{394, 33}";
},
{
name = bottom3;
position = "{336, 30}";
},
{
name = top;
position = "{79, 604}";
},
{
name = top1;
position = "{470, 646}";
},
{
name = top2;
position = "{263, 646}";
}
);
layerId = "C3E057B1-67D4-4FCF-93C0-B6D1362B390D";
paths = (
{
closed = 1;
nodes = (
"565 -8 LINE",
"511 22 LINE SMOOTH",
"475 42 OFFCURVE",
"470 61 OFFCURVE",
"470 99 CURVE SMOOTH",
"470 646 LINE",
"370 608 LINE",
"370 172 LINE",
"421 266 LINE",
"386 285 OFFCURVE",
"356 293 OFFCURVE",
"324 293 CURVE SMOOTH",
"266 293 OFFCURVE",
"225 254 OFFCURVE",
"225 199 CURVE SMOOTH",
"225 172 OFFCURVE",
"230 159 OFFCURVE",
"241 137 CURVE",
"281 142 LINE",
"195 184 OFFCURVE",
"153 225 OFFCURVE",
"153 277 CURVE SMOOTH",
"153 330 OFFCURVE",
"191 366 OFFCURVE",
"246 366 CURVE SMOOTH",
"255 366 OFFCURVE",
"267 365 OFFCURVE",
"277 364 CURVE",
"285 371 LINE",
"285 610 LINE",
"185 610 LINE",
"185 400 LINE",
"261 407 LINE",
"226 431 OFFCURVE",
"191 443 OFFCURVE",
"158 443 CURVE SMOOTH",
"82 443 OFFCURVE",
"28 389 OFFCURVE",
"28 314 CURVE SMOOTH",
"28 205 OFFCURVE",
"128 138 OFFCURVE",
"556 -26 CURVE"
);
},
{
closed = 1;
nodes = (
"208 539 OFFCURVE",
"224 542 OFFCURVE",
"251 557 CURVE",
"251 569 LINE",
"437 569 LINE",
"470 646 LINE",
"461 654 LINE",
"5 654 LINE",
"0 646 LINE",
"23 572 OFFCURVE",
"80 539 OFFCURVE",
"173 539 CURVE SMOOTH"
);
}
);
width = 521;
}
);
leftKerningGroup = LK_Ka;
rightKerningGroup = RK_Danda;
rightMetricsKey = matraA.rj;
unicode = 092A;
script = devanagari;
category = Letter;
},
{
color = 4;
glyphname = Pha.rj;
lastChange = "2024-03-05 09:53:24 +0000";
layers = (
{
anchors = (
{
name = bottom;
position = "{367, 36}";
},
{
name = bottom2;
position = "{394, 33}";
},
{
name = bottom3;
position = "{336, 30}";
},
{
name = top;
position = "{79, 604}";
},
{
name = top1;
position = "{656, 646}";
},
{
name = top2;
position = "{371, 646}";
}
);
components = (
{
name = Pa.rj;
}
);
layerId = "C3E057B1-67D4-4FCF-93C0-B6D1362B390D";
paths = (
{
closed = 1;
nodes = (
"708 117 LINE",
"663 150 OFFCURVE",
"656 167 OFFCURVE",
"656 210 CURVE SMOOTH",
"656 646 LINE",
"556 639 LINE",
"556 210 LINE",
"567 232 LINE",
"524 260 OFFCURVE",
"468 309 OFFCURVE",
"442 332 CURVE",
"423 271 LINE",
"513 210 OFFCURVE",
"583 170 OFFCURVE",
"696 100 CURVE"
);
},
{
closed = 1;
nodes = (
"627 569 LINE",
"656 646 LINE",
"648 654 LINE",
"419 654 LINE",
"419 569 LINE"
);
}
);
width = 708;
}
);
leftKerningGroup = LK_Ka;
rightKerningGroup = RK_Pha;
rightMetricsKey = Jha.rj;
unicode = 092B;
script = devanagari;
category = Letter;
},
{
color = 4;
glyphname = Ba.rj;
lastChange = "2024-03-05 09:53:24 +0000";
layers = (
{
anchors = (
{
name = bottom;
position = "{327, 36}";
},
{
name = bottom2;
position = "{326, 49}";
},
{
name = bottom3;
position = "{316, 29}";
},
{
name = top;
position = "{74, 604}";
},
{
name = top1;
position = "{426, 646}";
},
{
name = top2;
position = "{234, 646}";
}
);
layerId = "C3E057B1-67D4-4FCF-93C0-B6D1362B390D";
paths = (
{
closed = 1;
nodes = (
"525 -8 LINE",
"470 27 LINE SMOOTH",
"434 50 OFFCURVE",
"426 64 OFFCURVE",
"426 104 CURVE SMOOTH",
"426 646 LINE",
"326 602 LINE",
"326 407 LINE",
"348 408 LINE",
"316 449 OFFCURVE",
"260 474 OFFCURVE",
"195 474 CURVE SMOOTH",
"97 474 OFFCURVE",
"31 415 OFFCURVE",
"31 325 CURVE SMOOTH",
"31 226 OFFCURVE",
"96 167 OFFCURVE",
"366 42 CURVE SMOOTH",
"420 17 OFFCURVE",
"471 -7 OFFCURVE",
"515 -26 CURVE"
);
},
{
closed = 1;
nodes = (
"263 140 LINE",
"191 175 OFFCURVE",
"149 229 OFFCURVE",
"149 285 CURVE SMOOTH",
"149 345 OFFCURVE",
"189 380 OFFCURVE",
"257 380 CURVE SMOOTH",
"281 380 OFFCURVE",
"304 375 OFFCURVE",
"336 363 CURVE",
"326 390 LINE",
"326 247 LINE",
"374 284 LINE",
"345 294 OFFCURVE",
"328 297 OFFCURVE",
"310 297 CURVE SMOOTH",
"248 297 OFFCURVE",
"213 254 OFFCURVE",
"213 201 CURVE SMOOTH",
"213 179 OFFCURVE",
"217 158 OFFCURVE",
"227 133 CURVE"
);
},
{
closed = 1;
nodes = (
"252 542 OFFCURVE",
"311 550 OFFCURVE",
"379 571 CURVE",
"426 646 LINE",
"417 654 LINE",
"-4 654 LINE",
"-9 646 LINE",
"18 576 OFFCURVE",
"82 542 OFFCURVE",
"173 542 CURVE SMOOTH"
);
}
);
width = 481;
}
);
leftKerningGroup = LK_Ka;
rightKerningGroup = RK_Danda;
rightMetricsKey = matraA.rj;
unicode = 092C;
script = devanagari;
category = Letter;
},
{
color = 4;
glyphname = Bha.rj;
lastChange = "2024-03-05 09:53:24 +0000";
layers = (
{
anchors = (
{
name = bottom;
position = "{284, 49}";
},
{
name = bottom3;
position = "{472, -26}";
},
{
name = top;
position = "{94, 584}";
},
{
name = top1;
position = "{450, 646}";
},
{
name = top2;
position = "{254, 646}";
}
);
layerId = "C3E057B1-67D4-4FCF-93C0-B6D1362B390D";
paths = (
{
closed = 1;
nodes = (
"372 -5 LINE",
"277 68 OFFCURVE",
"191 175 OFFCURVE",
"129 249 CURVE",
"167 171 LINE",
"222 190 OFFCURVE",
"238 227 OFFCURVE",
"246 297 CURVE SMOOTH",
"253 357 OFFCURVE",
"275 377 OFFCURVE",
"310 377 CURVE SMOOTH",
"328 377 OFFCURVE",
"351 365 OFFCURVE",
"380 331 CURVE",
"375 408 LINE",
"329 447 OFFCURVE",
"285 464 OFFCURVE",
"247 464 CURVE SMOOTH",
"114 464 OFFCURVE",
"119 316 OFFCURVE",
"52 316 CURVE SMOOTH",
"40 316 OFFCURVE",
"32 321 OFFCURVE",
"19 333 CURVE",
"0 316 LINE",
"78 214 OFFCURVE",
"202 88 OFFCURVE",
"355 -26 CURVE"
);
},
{
closed = 1;
nodes = (
"549 -8 LINE",
"505 20 LINE SMOOTH",
"466 45 OFFCURVE",
"450 65 OFFCURVE",
"450 106 CURVE SMOOTH",
"450 245 LINE",
"350 245 LINE",
"350 79 LINE",
"389 54 OFFCURVE",
"457 16 OFFCURVE",
"539 -26 CURVE"
);
},
{
closed = 1;
nodes = (
"275 536 OFFCURVE",
"353 548 OFFCURVE",
"409 573 CURVE",
"450 646 LINE",
"441 654 LINE",
"6 654 LINE",
"1 646 LINE",
"28 572 OFFCURVE",
"88 536 OFFCURVE",
"184 536 CURVE SMOOTH"
);
},
{
closed = 1;
nodes = (
"450 203 LINE",
"450 646 LINE",
"350 618 LINE",
"350 203 LINE"
);
}
);
width = 505;
}
);
leftKerningGroup = LK_Bha;
rightKerningGroup = RK_Danda;
rightMetricsKey = matraA.rj;
unicode = 092D;
script = devanagari;
category = Letter;
},
{
color = 4;
glyphname = Ma.rj;
lastChange = "2024-03-05 09:53:24 +0000";
layers = (
{
anchors = (
{
name = bottom;
position = "{358, 131}";
},
{
name = bottom2;
position = "{358, 49}";
},
{
name = bottom3;
position = "{358, 30}";
},
{
name = top;
position = "{93, 594}";
},
{
name = top1;
position = "{458, 646}";
},
{
name = top2;
position = "{267, 646}";
}
);
components = (
{
name = _terminal;
transform = "{1, 0, 0, 1, 358, 0}";
}
);
layerId = "C3E057B1-67D4-4FCF-93C0-B6D1362B390D";
paths = (
{
closed = 1;
nodes = (
"238 131 OFFCURVE",
"261 156 OFFCURVE",
"261 207 CURVE SMOOTH",
"261 355 LINE",
"173 414 LINE",
"82 414 OFFCURVE",
"28 365 OFFCURVE",
"28 282 CURVE SMOOTH",
"28 200 OFFCURVE",
"102 131 OFFCURVE",
"194 131 CURVE SMOOTH"
);
},
{
closed = 1;
nodes = (
"389 293 LINE",
"354 339 OFFCURVE",
"290 391 OFFCURVE",
"230 406 CURVE",
"230 309 LINE",
"280 306 OFFCURVE",
"334 288 OFFCURVE",
"382 254 CURVE"
);
},
{
closed = 1;
nodes = (
"259 361 LINE",
"259 620 LINE",
"159 620 LINE",
"159 361 LINE"
);
},
{
closed = 1;
nodes = (
"186 539 OFFCURVE",
"236 556 OFFCURVE",
"246 582 CURVE",
"236 569 LINE",
"424 569 LINE",
"458 646 LINE",
"449 654 LINE",
"5 654 LINE",
"0 646 LINE",
"17 575 OFFCURVE",
"65 539 OFFCURVE",
"139 539 CURVE SMOOTH"
);
},
{
closed = 1;
nodes = (
"458 199 LINE",
"458 646 LINE",
"358 604 LINE",
"358 199 LINE"
);
}
);
width = 513;
}
);
leftKerningGroup = LK_Na;
rightKerningGroup = RK_Danda;
rightMetricsKey = matraA.rj;
unicode = 092E;
script = devanagari;
category = Letter;
},
{
color = 4;
glyphname = Ya.rj;
lastChange = "2024-03-05 09:53:24 +0000";
layers = (
{
anchors = (
{
name = bottom;
position = "{411, 129}";
},
{
name = bottom2;
position = "{411, 49}";
},
{
name = bottom3;
position = "{411, 30}";
},
{
name = top;
position = "{92, 594}";
},
{
name = top1;
position = "{511, 646}";
},
{
name = top2;
position = "{284, 646}";
}
);
components = (
{
name = _terminal;
transform = "{1, 0, 0, 1, 411, 0}";
}
);
layerId = "C3E057B1-67D4-4FCF-93C0-B6D1362B390D";
paths = (
{
closed = 1;
nodes = (
"278 106 LINE",
"300 147 OFFCURVE",
"325 161 OFFCURVE",
"352 161 CURVE SMOOTH",
"379 161 OFFCURVE",
"413 147 OFFCURVE",
"434 129 CURVE",
"444 171 LINE",
"416 239 OFFCURVE",
"355 280 OFFCURVE",
"304 280 CURVE SMOOTH",
"253 280 OFFCURVE",
"209 250 OFFCURVE",
"194 182 CURVE",
"251 168 LINE",
"198 204 OFFCURVE",
"157 236 OFFCURVE",
"94 289 CURVE",
"130 219 LINE",
"130 306 OFFCURVE",
"189 353 OFFCURVE",
"263 353 CURVE SMOOTH",
"276 353 OFFCURVE",
"298 350 OFFCURVE",
"314 346 CURVE",
"321 352 LINE",
"316 383 LINE",
"280 424 OFFCURVE",
"228 451 OFFCURVE",
"182 451 CURVE SMOOTH",
"84 451 OFFCURVE",
"22 385 OFFCURVE",
"22 282 CURVE",
"25 275 LINE",
"79 231 OFFCURVE",
"169 167 OFFCURVE",
"266 101 CURVE"
);
},
{
closed = 1;
nodes = (
"321 623 LINE",
"221 623 LINE",
"221 394 LINE",
"321 352 LINE"
);
},
{
closed = 1;
nodes = (
"225 531 OFFCURVE",
"268 541 OFFCURVE",
"291 550 CURVE",
"292 569 LINE",
"471 569 LINE",
"511 646 LINE",
"502 654 LINE",
"14 654 LINE",
"10 646 LINE",
"29 574 OFFCURVE",
"85 531 OFFCURVE",
"181 531 CURVE SMOOTH"
);
},
{
closed = 1;
nodes = (
"511 209 LINE",
"511 646 LINE",
"411 594 LINE",
"411 209 LINE"
);
}
);
width = 566;
}
);
leftKerningGroup = LK_Ka;
rightKerningGroup = RK_Danda;
rightMetricsKey = matraA.rj;
unicode = 092F;
script = devanagari;
category = Letter;
},
{
color = 4;
glyphname = Ra.rj;
lastChange = "2024-03-05 09:53:24 +0000";
layers = (
{
anchors = (
{
name = bottom3;
position = "{305, 30}";
},
{
name = top;
position = "{84, 594}";
},
{
name = top1;
position = "{405, 646}";
},
{
name = top2;
position = "{222, 646}";
}
);
components = (
{
name = _terminal;
transform = "{1, 0, 0, 1, 305, 0}";
}
);
layerId = "C3E057B1-67D4-4FCF-93C0-B6D1362B390D";
paths = (
{
closed = 1;
nodes = (
"287 172 OFFCURVE",
"349 203 OFFCURVE",
"349 260 CURVE",
"320 400 LINE",
"295 423 OFFCURVE",
"253 440 OFFCURVE",
"217 440 CURVE SMOOTH",
"106 440 OFFCURVE",
"100 341 OFFCURVE",
"56 341 CURVE SMOOTH",
"45 341 OFFCURVE",
"31 349 OFFCURVE",
"18 365 CURVE",
"0 352 LINE",
"62 224 OFFCURVE",
"135 172 OFFCURVE",
"224 172 CURVE SMOOTH"
);
},
{
closed = 1;
nodes = (
"405 213 LINE",
"405 646 LINE",
"305 618 LINE",
"305 213 LINE"
);
},
{
closed = 1;
nodes = (
"250 532 OFFCURVE",
"316 544 OFFCURVE",
"371 571 CURVE",
"405 646 LINE",
"396 654 LINE",
"5 654 LINE",
"0 646 LINE",
"26 570 OFFCURVE",
"111 532 OFFCURVE",
"197 532 CURVE SMOOTH"
);
}
);
width = 460;
}
);
leftKerningGroup = LK_Ca;
rightKerningGroup = RK_Danda;
rightMetricsKey = matraA.rj;
unicode = 0930;
script = devanagari;
category = Letter;
},
{
color = 4;
glyphname = La.rj;
lastChange = "2024-03-05 09:53:24 +0000";
layers = (
{
anchors = (
{
name = bottom;
position = "{405, 49}";
},
{
name = bottom3;
position = "{562, -26}";
},
{
name = top;
position = "{97, 594}";
},
{
name = top1;
position = "{571, 646}";
},
{
name = top2;
position = "{306, 646}";
}
);
components = (
{
name = _terminal;
transform = "{1, 0, 0, 1, 471, 0}";
}
);
layerId = "C3E057B1-67D4-4FCF-93C0-B6D1362B390D";
paths = (
{
closed = 1;
nodes = (
"433 -5 LINE",
"301 64 LINE SMOOTH",
"190 122 OFFCURVE",
"145 171 OFFCURVE",
"145 236 CURVE SMOOTH",
"145 306 OFFCURVE",
"186 347 OFFCURVE",
"255 347 CURVE SMOOTH",
"276 347 OFFCURVE",
"301 341 OFFCURVE",
"339 326 CURVE",
"346 352 LINE",
"306 405 OFFCURVE",
"260 437 OFFCURVE",
"193 437 CURVE SMOOTH",
"89 437 OFFCURVE",
"27 379 OFFCURVE",
"27 282 CURVE SMOOTH",
"27 184 OFFCURVE",
"92 116 OFFCURVE",
"255 46 CURVE SMOOTH",
"422 -26 LINE"
);
},
{
closed = 1;
nodes = (
"377 140 OFFCURVE",
"386 148 OFFCURVE",
"386 171 CURVE SMOOTH",
"386 389 LINE",
"355 365 LINE",
"395 355 OFFCURVE",
"447 337 OFFCURVE",
"486 318 CURVE",
"502 362 LINE",
"471 390 OFFCURVE",
"381 446 OFFCURVE",
"305 473 CURVE",
"291 464 LINE",
"291 254 LINE",
"326 300 LINE",
"273 300 OFFCURVE",
"232 269 OFFCURVE",
"232 228 CURVE SMOOTH",
"232 186 OFFCURVE",
"296 140 OFFCURVE",
"353 140 CURVE SMOOTH"
);
},
{
closed = 1;
nodes = (
"314 529 OFFCURVE",
"459 542 OFFCURVE",
"537 564 CURVE",
"571 646 LINE",
"562 654 LINE",
"4 654 LINE",
"0 646 LINE",
"25 572 OFFCURVE",
"99 529 OFFCURVE",
"229 529 CURVE SMOOTH"
);
},
{
closed = 1;
nodes = (
"571 203 LINE",
"571 646 LINE",
"471 618 LINE",
"471 203 LINE"
);
}
);
width = 626;
}
);
leftKerningGroup = LK_Ka;
leftMetricsKey = Nna.rj;
rightKerningGroup = RK_Danda;
rightMetricsKey = matraA.rj;
unicode = 0932;
script = devanagari;
category = Letter;
},
{
color = 4;
glyphname = Va.rj;
lastChange = "2024-03-05 09:53:24 +0000";
layers = (
{
anchors = (
{
name = bottom;
position = "{327, 36}";
},
{
name = bottom2;
position = "{326, 49}";
},
{
name = bottom3;
position = "{316, 29}";
},
{
name = top;
position = "{74, 604}";
},
{
name = top1;
position = "{426, 646}";
},
{
name = top2;
position = "{234, 646}";
}
);
layerId = "C3E057B1-67D4-4FCF-93C0-B6D1362B390D";
paths = (
{
closed = 1;
nodes = (
"525 -8 LINE",
"470 27 LINE SMOOTH",
"434 50 OFFCURVE",
"426 64 OFFCURVE",
"426 104 CURVE SMOOTH",
"426 646 LINE",
"326 602 LINE",
"326 407 LINE",
"348 408 LINE",
"316 449 OFFCURVE",
"260 474 OFFCURVE",
"195 474 CURVE SMOOTH",
"97 474 OFFCURVE",
"31 415 OFFCURVE",
"31 325 CURVE SMOOTH",
"31 226 OFFCURVE",
"96 167 OFFCURVE",
"366 42 CURVE SMOOTH",
"420 17 OFFCURVE",
"471 -7 OFFCURVE",
"515 -26 CURVE"
);
},
{
closed = 1;
nodes = (
"363 254 OFFCURVE",
"330 285 OFFCURVE",
"227 297 CURVE",
"221 280 LINE",
"243 267 OFFCURVE",
"262 238 OFFCURVE",
"262 214 CURVE SMOOTH",
"262 191 OFFCURVE",
"248 177 OFFCURVE",
"225 177 CURVE SMOOTH",
"187 177 OFFCURVE",
"149 231 OFFCURVE",
"149 285 CURVE SMOOTH",
"149 345 OFFCURVE",
"189 380 OFFCURVE",
"257 380 CURVE SMOOTH",
"281 380 OFFCURVE",
"304 375 OFFCURVE",
"336 363 CURVE",
"326 390 LINE",
"326 188 LINE",
"363 169 LINE"
);
},
{
closed = 1;
nodes = (
"252 542 OFFCURVE",
"311 550 OFFCURVE",
"379 571 CURVE",
"426 646 LINE",
"417 654 LINE",
"-4 654 LINE",
"-9 646 LINE",
"18 576 OFFCURVE",
"82 542 OFFCURVE",
"173 542 CURVE SMOOTH"
);
}
);
width = 481;
}
);
leftKerningGroup = LK_Ka;
rightKerningGroup = RK_Danda;
rightMetricsKey = matraA.rj;
unicode = 0935;
script = devanagari;
category = Letter;
},
{
color = 4;
glyphname = Sha.rj;
lastChange = "2024-03-05 08:13:15 +0000";
layers = (
{
anchors = (
{
name = bottom;
position = "{439, 49}";
},
{
name = bottom3;
position = "{472, -26}";
},
{
name = top;
position = "{86, 604}";
},
{
name = top1;
position = "{451, 646}";
},
{
name = top2;
position = "{245, 646}";
}
);
components = (
{
name = _terminal;
transform = "{1, 0, 0, 1, 351, 0}";
}
);
layerId = "C3E057B1-67D4-4FCF-93C0-B6D1362B390D";
paths = (
{
closed = 1;
nodes = (
"374 -6 LINE",
"260 65 OFFCURVE",
"202 112 OFFCURVE",
"134 176 CURVE",
"193 90 LINE",
"239 108 OFFCURVE",
"253 141 OFFCURVE",
"260 201 CURVE SMOOTH",
"266 249 OFFCURVE",
"285 267 OFFCURVE",
"315 267 CURVE SMOOTH",
"336 267 OFFCURVE",
"356 252 OFFCURVE",
"381 221 CURVE",
"376 298 LINE",
"334 334 OFFCURVE",
"303 347 OFFCURVE",
"266 347 CURVE SMOOTH",
"140 347 OFFCURVE",
"150 209 OFFCURVE",
"86 209 CURVE SMOOTH",
"74 209 OFFCURVE",
"60 215 OFFCURVE",
"48 225 CURVE",
"31 205 LINE",
"143 103 OFFCURVE",
"221 53 OFFCURVE",
"361 -26 CURVE"
);
},
{
closed = 1;
nodes = (
"182 271 LINE",
"162 297 OFFCURVE",
"154 321 OFFCURVE",
"154 343 CURVE SMOOTH",
"154 388 OFFCURVE",
"182 419 OFFCURVE",
"243 419 CURVE SMOOTH",
"278 419 OFFCURVE",
"329 404 OFFCURVE",
"361 380 CURVE",
"363 418 LINE",
"333 457 OFFCURVE",
"262 502 OFFCURVE",
"187 502 CURVE SMOOTH",
"95 502 OFFCURVE",
"41 459 OFFCURVE",
"41 387 CURVE SMOOTH",
"41 329 OFFCURVE",
"82 284 OFFCURVE",
"163 252 CURVE"
);
},
{
closed = 1;
nodes = (
"451 203 LINE",
"451 646 LINE",
"351 618 LINE",
"351 203 LINE"
);
},
{
closed = 1;
nodes = (
"263 548 OFFCURVE",
"321 554 OFFCURVE",
"404 581 CURVE",
"451 646 LINE",
"442 654 LINE",
"8 654 LINE",
"4 646 LINE",
"28 579 OFFCURVE",
"88 548 OFFCURVE",
"206 548 CURVE SMOOTH"
);
}
);
width = 506;
}
);
leftKerningGroup = LK_Sha;
rightKerningGroup = RK_Danda;
rightMetricsKey = matraA.rj;
unicode = 0936;
script = devanagari;
category = Letter;
},
{
color = 4;
glyphname = Ssa.rj;
lastChange = "2024-03-05 09:53:24 +0000";
layers = (
{
anchors = (
{
name = bottom;
position = "{363, 36}";
},
{
name = bottom2;
position = "{390, 33}";
},
{
name = bottom3;
position = "{332, 30}";
},
{
name = top;
position = "{75, 604}";
},
{
name = top1;
position = "{466, 646}";
},
{
name = top2;
position = "{259, 646}";
}
);
layerId = "C3E057B1-67D4-4FCF-93C0-B6D1362B390D";
paths = (
{
closed = 1;
nodes = (
"561 -8 LINE",
"507 22 LINE SMOOTH",
"471 42 OFFCURVE",
"466 61 OFFCURVE",
"466 99 CURVE SMOOTH",
"466 646 LINE",
"366 608 LINE",
"366 172 LINE",
"423 279 LINE",
"389 298 OFFCURVE",
"370 304 OFFCURVE",
"350 304 CURVE SMOOTH",
"271 304 OFFCURVE",
"229 265 OFFCURVE",
"229 204 CURVE SMOOTH",
"229 179 OFFCURVE",
"241 150 OFFCURVE",
"253 122 CURVE",
"277 142 LINE",
"191 184 OFFCURVE",
"149 225 OFFCURVE",
"149 277 CURVE SMOOTH",
"149 330 OFFCURVE",
"187 366 OFFCURVE",
"242 366 CURVE SMOOTH",
"254 366 OFFCURVE",
"269 365 OFFCURVE",
"281 363 CURVE",
"281 610 LINE",
"181 610 LINE",
"181 400 LINE",
"257 407 LINE",
"222 431 OFFCURVE",
"187 443 OFFCURVE",
"154 443 CURVE SMOOTH",
"78 443 OFFCURVE",
"24 389 OFFCURVE",
"24 314 CURVE SMOOTH",
"24 205 OFFCURVE",
"125 138 OFFCURVE",
"552 -26 CURVE"
);
},
{
closed = 1;
nodes = (
"408 314 LINE",
"259 428 LINE",
"229 379 LINE",
"389 279 LINE"
);
},
{
closed = 1;
nodes = (
"208 539 OFFCURVE",
"220 542 OFFCURVE",
"247 557 CURVE",
"247 569 LINE",
"433 569 LINE",
"466 646 LINE",
"456 654 LINE",
"5 654 LINE",
"0 646 LINE",
"23 572 OFFCURVE",
"80 539 OFFCURVE",
"173 539 CURVE SMOOTH"
);
}
);
width = 517;
}
);
leftKerningGroup = LK_Ka;
rightKerningGroup = RK_Danda;
rightMetricsKey = matraA.rj;
unicode = 0937;
script = devanagari;
category = Letter;
},
{
color = 4;
glyphname = Sa.rj;
lastChange = "2024-03-05 09:53:24 +0000";
layers = (
{
anchors = (
{
name = bottom3;
position = "{523, -26}";
},
{
name = top;
position = "{92, 584}";
},
{
name = top1;
position = "{498, 646}";
},
{
name = top2;
position = "{282, 646}";
}
);
components = (
{
name = _terminal;
transform = "{1, 0, 0, 1, 398, 0}";
}
);
layerId = "C3E057B1-67D4-4FCF-93C0-B6D1362B390D";
paths = (
{
closed = 1;
nodes = (
"404 -6 LINE",
"312 59 OFFCURVE",
"236 134 OFFCURVE",
"172 205 CURVE",
"178 151 LINE",
"249 151 OFFCURVE",
"293 200 OFFCURVE",
"293 281 CURVE SMOOTH",
"293 611 LINE",
"193 611 LINE",
"193 370 LINE",
"252 403 LINE",
"233 419 OFFCURVE",
"213 427 OFFCURVE",
"184 427 CURVE SMOOTH",
"98 427 OFFCURVE",
"101 315 OFFCURVE",
"49 315 CURVE SMOOTH",
"40 315 OFFCURVE",
"30 320 OFFCURVE",
"20 329 CURVE",
"2 313 LINE",
"81 204 OFFCURVE",
"240 73 OFFCURVE",
"389 -26 CURVE"
);
},
{
closed = 1;
nodes = (
"423 293 LINE",
"383 353 OFFCURVE",
"318 402 OFFCURVE",
"265 415 CURVE",
"265 318 LINE",
"313 314 OFFCURVE",
"367 292 OFFCURVE",
"416 254 CURVE"
);
},
{
closed = 1;
nodes = (
"204 529 OFFCURVE",
"252 544 OFFCURVE",
"266 580 CURVE",
"250 569 LINE",
"458 569 LINE",
"498 646 LINE",
"489 654 LINE",
"5 654 LINE",
"0 646 LINE",
"10 583 OFFCURVE",
"77 529 OFFCURVE",
"157 529 CURVE SMOOTH"
);
},
{
closed = 1;
nodes = (
"498 646 LINE",
"398 608 LINE",
"398 213 LINE",
"498 203 LINE"
);
}
);
width = 553;
}
);
leftKerningGroup = LK_Bha;
rightKerningGroup = RK_Danda;
rightMetricsKey = matraA.rj;
unicode = 0938;
script = devanagari;
category = Letter;
},
{
color = 4;
glyphname = Ha.rj;
lastChange = "2024-03-05 09:53:24 +0000";
layers = (
{
anchors = (
{
name = bottom;
position = "{307, -41}";
},
{
name = bottom2;
position = "{247, 53}";
},
{
name = bottom3;
position = "{267, 28}";
},
{
name = bottomRu;
position = "{297, 15}";
},
{
name = top;
position = "{81, 594}";
},
{
name = top1;
position = "{435, 646}";
},
{
name = top2;
position = "{259, 646}";
}
);
layerId = "C3E057B1-67D4-4FCF-93C0-B6D1362B390D";
paths = (
{
closed = 1;
nodes = (
"462 -14 LINE",
"369 38 OFFCURVE",
"288 86 OFFCURVE",
"250 109 CURVE SMOOTH",
"220 127 LINE",
"175 169 OFFCURVE",
"155 210 OFFCURVE",
"155 269 CURVE SMOOTH",
"155 343 OFFCURVE",
"204 388 OFFCURVE",
"278 388 CURVE SMOOTH",
"319 388 OFFCURVE",
"370 376 OFFCURVE",
"428 348 CURVE",
"361 428 LINE",
"319 460 OFFCURVE",
"256 476 OFFCURVE",
"209 476 CURVE SMOOTH",
"104 476 OFFCURVE",
"38 415 OFFCURVE",
"40 315 CURVE SMOOTH",
"42 209 OFFCURVE",
"112 132 OFFCURVE",
"286 47 CURVE SMOOTH",
"335 23 OFFCURVE",
"392 -4 OFFCURVE",
"452 -31 CURVE"
);
},
{
closed = 1;
nodes = (
"318 67 OFFCURVE",
"301 86 OFFCURVE",
"301 119 CURVE SMOOTH",
"301 173 LINE SMOOTH",
"301 238 OFFCURVE",
"316 258 OFFCURVE",
"343 258 CURVE SMOOTH",
"356 258 OFFCURVE",
"363 249 OFFCURVE",
"363 232 CURVE SMOOTH",
"363 176 LINE",
"463 176 LINE",
"463 195 LINE SMOOTH",
"463 248 OFFCURVE",
"368 322 OFFCURVE",
"302 322 CURVE SMOOTH",
"235 322 OFFCURVE",
"196 283 OFFCURVE",
"196 193 CURVE SMOOTH",
"196 161 OFFCURVE",
"200 138 OFFCURVE",
"206 114 CURVE",
"352 47 LINE"
);
},
{
closed = 1;
nodes = (
"518 54 LINE",
"467 87 OFFCURVE",
"463 93 OFFCURVE",
"463 128 CURVE SMOOTH",
"463 181 LINE",
"363 181 LINE",
"363 120 LINE",
"411 92 OFFCURVE",
"447 72 OFFCURVE",
"508 39 CURVE"
);
},
{
closed = 1;
nodes = (
"246 539 OFFCURVE",
"345 548 OFFCURVE",
"398 566 CURVE",
"435 646 LINE",
"426 654 LINE",
"5 654 LINE",
"0 646 LINE",
"17 576 OFFCURVE",
"79 539 OFFCURVE",
"173 539 CURVE SMOOTH"
);
},
{
closed = 1;
nodes = (
"435 353 LINE",
"435 646 LINE",
"335 634 LINE",
"335 429 LINE",
"428 348 LINE"
);
}
);
width = 498;
}
);
leftKerningGroup = LK_Ka;
rightKerningGroup = RK_Ha;
unicode = 0939;
script = devanagari;
category = Letter;
},
{
color = 3;
glyphname = matraA.rj;
lastChange = "2024-03-05 08:13:15 +0000";
layers = (
{
anchors = (
{
name = top1;
position = "{144, 648}";
},
{
name = top2;
position = "{-173, 646}";
}
);
components = (
{
name = _terminal;
transform = "{1, 0, 0, 1, 44, 0}";
}
);
layerId = "C3E057B1-67D4-4FCF-93C0-B6D1362B390D";
paths = (
{
closed = 1;
nodes = (
"144 213 LINE",
"144 648 LINE",
"44 608 LINE",
"44 213 LINE"
);
},
{
closed = 1;
nodes = (
"114 569 LINE",
"144 648 LINE",
"135 654 LINE",
"-128 654 LINE",
"-128 569 LINE"
);
}
);
width = 199;
}
);
rightKerningGroup = RK_Danda;
unicode = 093E;
script = devanagari;
category = Letter;
subCategory = Matra;
},
{
color = 3;
glyphname = matraI.rj;
lastChange = "2024-03-05 08:13:15 +0000";
layers = (
{
components = (
{
name = _terminal;
transform = "{1, 0, 0, 1, 44, 0}";
}
);
layerId = "C3E057B1-67D4-4FCF-93C0-B6D1362B390D";
paths = (
{
closed = 1;
nodes = (
"106 630 OFFCURVE",
"88 648 OFFCURVE",
"88 678 CURVE SMOOTH",
"88 705 OFFCURVE",
"112 723 OFFCURVE",
"146 723 CURVE SMOOTH",
"184 723 OFFCURVE",
"231 691 OFFCURVE",
"248 638 CURVE",
"290 654 LINE",
"256 780 OFFCURVE",
"178 814 OFFCURVE",
"117 814 CURVE SMOOTH",
"50 814 OFFCURVE",
"5 777 OFFCURVE",
"5 723 CURVE SMOOTH",
"5 696 OFFCURVE",
"20 666 OFFCURVE",
"51 646 CURVE",
"144 614 LINE"
);
},
{
closed = 1;
nodes = (
"144 213 LINE",
"144 614 LINE",
"44 654 LINE",
"44 213 LINE"
);
}
);
width = 174;
}
);
unicode = 093F;
script = devanagari;
category = Letter;
subCategory = Matra;
},
{
color = 3;
glyphname = matraIi.rj;
lastChange = "2024-03-05 09:53:24 +0000";
layers = (
{
anchors = (
{
name = top2;
position = "{133, 684}";
}
);
components = (
{
name = _terminal;
transform = "{1, 0, 0, 1, 44, 0}";
}
);
layerId = "C3E057B1-67D4-4FCF-93C0-B6D1362B390D";
paths = (
{
closed = 1;
nodes = (
"144 615 LINE",
"72 743 OFFCURVE",
"-17 814 OFFCURVE",
"-104 814 CURVE SMOOTH",
"-163 814 OFFCURVE",
"-204 779 OFFCURVE",
"-204 730 CURVE SMOOTH",
"-204 684 OFFCURVE",
"-171 656 OFFCURVE",
"-94 624 CURVE",
"-73 625 LINE",
"-73 635 LINE",
"-101 651 OFFCURVE",
"-117 669 OFFCURVE",
"-117 687 CURVE SMOOTH",
"-117 712 OFFCURVE",
"-98 727 OFFCURVE",
"-66 727 CURVE SMOOTH",
"-9 727 OFFCURVE",
"44 688 OFFCURVE",
"96 608 CURVE"
);
},
{
closed = 1;
nodes = (
"144 213 LINE",
"144 615 LINE",
"55 677 LINE",
"44 677 LINE",
"44 213 LINE"
);
}
);
width = 199;
}
);
rightMetricsKey = matraA.rj;
unicode = 0940;
subCategory = Matra;
},
{
color = 3;
glyphname = matraU.rj;
lastChange = "2024-03-05 08:13:15 +0000";
layers = (
{
anchors = (
{
name = _bottom;
position = "{347, 45}";
}
);
layerId = "C3E057B1-67D4-4FCF-93C0-B6D1362B390D";
paths = (
{
closed = 1;
nodes = (
"403 -47 OFFCURVE",
"444 -17 OFFCURVE",
"444 27 CURVE SMOOTH",
"444 68 OFFCURVE",
"405 92 OFFCURVE",
"369 107 CURVE",
"347 87 LINE",
"347 73 LINE SMOOTH",
"347 38 OFFCURVE",
"327 18 OFFCURVE",
"279 18 CURVE SMOOTH",
"224 18 OFFCURVE",
"151 49 OFFCURVE",
"69 106 CURVE",
"56 90 LINE",
"148 9 OFFCURVE",
"248 -47 OFFCURVE",
"340 -47 CURVE SMOOTH"
);
}
);
width = 479;
}
);
unicode = 0941;
script = devanagari;
category = Mark;
subCategory = Nonspacing;
},
{
color = 3;
glyphname = matraUu.rj;
lastChange = "2024-03-05 09:53:24 +0000";
layers = (
{
anchors = (
{
name = _bottom2;
position = "{206, 49}";
}
);
layerId = "C3E057B1-67D4-4FCF-93C0-B6D1362B390D";
paths = (
{
closed = 1;
nodes = (
"239 -77 OFFCURVE",
"269 -52 OFFCURVE",
"292 -28 CURVE",
"238 13 LINE",
"212 -13 OFFCURVE",
"181 -26 OFFCURVE",
"154 -26 CURVE SMOOTH",
"140 -26 OFFCURVE",
"130 -21 OFFCURVE",
"130 -11 CURVE SMOOTH",
"130 10 OFFCURVE",
"173 30 OFFCURVE",
"216 30 CURVE SMOOTH",
"273 30 OFFCURVE",
"342 3 OFFCURVE",
"457 -63 CURVE",
"468 -47 LINE",
"356 23 OFFCURVE",
"258 84 OFFCURVE",
"166 84 CURVE SMOOTH",
"97 84 OFFCURVE",
"50 54 OFFCURVE",
"50 6 CURVE SMOOTH",
"50 -32 OFFCURVE",
"117 -77 OFFCURVE",
"176 -77 CURVE SMOOTH"
);
}
);
width = 518;
}
);
unicode = 0942;
script = devanagari;
category = Mark;
subCategory = Nonspacing;
},
{
color = 3;
glyphname = matraRu.rj;
lastChange = "2024-03-05 08:13:15 +0000";
layers = (
{
anchors = (
{
name = _bottom2;
position = "{166, 42}";
}
);
layerId = "C3E057B1-67D4-4FCF-93C0-B6D1362B390D";
paths = (
{
closed = 1;
nodes = (
"447 -117 LINE",
"353 -54 OFFCURVE",
"262 -20 OFFCURVE",
"214 -20 CURVE SMOOTH",
"188 -20 OFFCURVE",
"169 -25 OFFCURVE",
"128 -57 CURVE",
"162 -70 LINE",
"89 -10 LINE",
"93 -28 LINE",
"134 7 OFFCURVE",
"165 18 OFFCURVE",
"198 18 CURVE SMOOTH",
"237 18 OFFCURVE",
"298 -1 OFFCURVE",
"417 -70 CURVE",
"428 -54 LINE",
"305 22 OFFCURVE",
"227 68 OFFCURVE",
"171 68 CURVE SMOOTH",
"99 68 OFFCURVE",
"83 26 OFFCURVE",
"50 26 CURVE SMOOTH",
"43 26 OFFCURVE",
"34 29 OFFCURVE",
"27 34 CURVE",
"14 19 LINE",
"55 -17 OFFCURVE",
"103 -57 OFFCURVE",
"164 -103 CURVE",
"169 -103 LINE",
"195 -79 OFFCURVE",
"222 -68 OFFCURVE",
"250 -68 CURVE SMOOTH",
"300 -68 OFFCURVE",
"363 -88 OFFCURVE",
"437 -132 CURVE"
);
}
);
width = 566;
}
);
unicode = 0943;
script = devanagari;
category = Mark;
subCategory = Nonspacing;
},
{
color = 3;
glyphname = matraRuu.rj;
lastChange = "2024-03-05 09:53:24 +0000";
layers = (
{
anchors = (
{
name = _bottom2;
position = "{186, 39}";
}
);
layerId = "C3E057B1-67D4-4FCF-93C0-B6D1362B390D";
paths = (
{
closed = 1;
nodes = (
"448 -57 LINE",
"318 24 OFFCURVE",
"239 66 OFFCURVE",
"189 66 CURVE SMOOTH",
"127 66 OFFCURVE",
"106 28 OFFCURVE",
"73 28 CURVE SMOOTH",
"62 28 OFFCURVE",
"52 33 OFFCURVE",
"38 40 CURVE",
"29 27 LINE",
"61 4 OFFCURVE",
"123 -33 OFFCURVE",
"172 -62 CURVE",
"181 -42 LINE",
"119 4 LINE",
"128 -10 LINE",
"153 10 OFFCURVE",
"181 21 OFFCURVE",
"215 21 CURVE SMOOTH",
"240 21 OFFCURVE",
"298 7 OFFCURVE",
"437 -73 CURVE"
);
},
{
closed = 1;
nodes = (
"429 -134 LINE",
"350 -95 OFFCURVE",
"297 -73 OFFCURVE",
"261 -73 CURVE SMOOTH",
"223 -73 OFFCURVE",
"203 -87 OFFCURVE",
"170 -108 CURVE",
"214 -118 LINE",
"136 -66 LINE",
"151 -84 LINE",
"187 -56 OFFCURVE",
"216 -44 OFFCURVE",
"252 -44 CURVE SMOOTH",
"284 -44 OFFCURVE",
"313 -57 OFFCURVE",
"371 -83 CURVE",
"379 -68 LINE",
"288 -20 OFFCURVE",
"266 -7 OFFCURVE",
"221 -7 CURVE SMOOTH",
"158 -7 OFFCURVE",
"142 -44 OFFCURVE",
"99 -44 CURVE SMOOTH",
"88 -44 OFFCURVE",
"80 -41 OFFCURVE",
"68 -34 CURVE",
"58 -47 LINE",
"97 -73 OFFCURVE",
"141 -100 OFFCURVE",
"199 -136 CURVE",
"204 -136 LINE",
"234 -118 OFFCURVE",
"261 -110 OFFCURVE",
"295 -110 CURVE SMOOTH",
"326 -110 OFFCURVE",
"353 -120 OFFCURVE",
"421 -149 CURVE"
);
}
);
width = 572;
}
);
unicode = 0944;
script = devanagari;
category = Mark;
subCategory = Nonspacing;
},
{
color = 3;
glyphname = matraE.rj;
lastChange = "2024-03-05 09:53:24 +0000";
layers = (
{
anchors = (
{
name = _top;
position = "{112, 606}";
}
);
layerId = "C3E057B1-67D4-4FCF-93C0-B6D1362B390D";
paths = (
{
closed = 1;
nodes = (
"102 471 OFFCURVE",
"118 483 OFFCURVE",
"118 504 CURVE SMOOTH",
"118 521 OFFCURVE",
"105 533 OFFCURVE",
"86 533 CURVE SMOOTH",
"70 533 OFFCURVE",
"58 523 OFFCURVE",
"57 507 CURVE",
"66 485 LINE",
"100 481 LINE",
"83 490 OFFCURVE",
"73 505 OFFCURVE",
"73 526 CURVE SMOOTH",
"73 553 OFFCURVE",
"95 572 OFFCURVE",
"133 574 CURVE",
"112 606 LINE",
"56 602 OFFCURVE",
"33 564 OFFCURVE",
"33 524 CURVE SMOOTH",
"33 488 OFFCURVE",
"58 471 OFFCURVE",
"82 471 CURVE SMOOTH"
);
}
);
width = 154;
}
);
unicode = 0947;
script = devanagari;
category = Mark;
subCategory = Nonspacing;
},
{
color = 3;
glyphname = Halant.rj;
lastChange = "2024-03-05 08:13:15 +0000";
layers = (
{
anchors = (
{
name = _bottom3;
position = "{214, 1}";
}
);
layerId = "C3E057B1-67D4-4FCF-93C0-B6D1362B390D";
paths = (
{
closed = 1;
nodes = (
"371 -106 LINE",
"233 -17 OFFCURVE",
"197 -1 OFFCURVE",
"138 -1 CURVE SMOOTH",
"101 -1 OFFCURVE",
"71 -14 OFFCURVE",
"46 -40 CURVE",
"124 -80 LINE",
"147 -63 OFFCURVE",
"164 -56 OFFCURVE",
"185 -56 CURVE SMOOTH",
"226 -56 OFFCURVE",
"269 -72 OFFCURVE",
"360 -123 CURVE"
);
}
);
width = 392;
}
);
unicode = 094D;
script = devanagari;
category = Mark;
subCategory = Nonspacing;
},
{
color = 4;
glyphname = Om.rj;
lastChange = "2024-03-05 08:13:15 +0000";
layers = (
{
components = (
{
name = _terminal;
transform = "{1, 0, 0, 1, 421, 0}";
},
{
name = Chandrabindu.rj;
transform = "{1, 0, 0, 1, 62, 0}";
}
);
layerId = "C3E057B1-67D4-4FCF-93C0-B6D1362B390D";
paths = (
{
closed = 1;
nodes = (
"306 85 OFFCURVE",
"356 124 OFFCURVE",
"356 220 CURVE SMOOTH",
"356 629 LINE",
"256 610 LINE",
"256 244 LINE SMOOTH",
"256 188 OFFCURVE",
"226 158 OFFCURVE",
"167 158 CURVE SMOOTH",
"125 158 OFFCURVE",
"96 168 OFFCURVE",
"37 203 CURVE",
"25 187 LINE",
"92 123 OFFCURVE",
"168 85 OFFCURVE",
"234 85 CURVE SMOOTH"
);
},
{
closed = 1;
nodes = (
"178 220 OFFCURVE",
"195 237 OFFCURVE",
"195 276 CURVE SMOOTH",
"195 291 OFFCURVE",
"192 327 OFFCURVE",
"189 348 CURVE",
"165 309 LINE",
"210 306 OFFCURVE",
"244 297 OFFCURVE",
"270 283 CURVE",
"276 329 LINE",
"239 357 OFFCURVE",
"187 374 OFFCURVE",
"138 374 CURVE SMOOTH",
"88 374 OFFCURVE",
"52 344 OFFCURVE",
"52 302 CURVE SMOOTH",
"52 260 OFFCURVE",
"95 220 OFFCURVE",
"145 220 CURVE SMOOTH"
);
},
{
closed = 1;
nodes = (
"269 387 LINE",
"269 466 OFFCURVE",
"239 504 OFFCURVE",
"174 504 CURVE SMOOTH",
"146 504 OFFCURVE",
"130 501 OFFCURVE",
"101 501 CURVE SMOOTH",
"77 501 OFFCURVE",
"58 511 OFFCURVE",
"44 530 CURVE",
"30 522 LINE",
"47 456 OFFCURVE",
"80 424 OFFCURVE",
"131 424 CURVE SMOOTH",
"159 424 OFFCURVE",
"179 426 OFFCURVE",
"201 426 CURVE SMOOTH",
"241 426 OFFCURVE",
"256 412 OFFCURVE",
"256 382 CURVE"
);
},
{
closed = 1;
nodes = (
"493 231 LINE",
"425 280 OFFCURVE",
"373 309 OFFCURVE",
"311 332 CURVE",
"309 274 LINE",
"375 254 OFFCURVE",
"423 235 OFFCURVE",
"480 197 CURVE"
);
},
{
closed = 1;
nodes = (
"217 554 OFFCURVE",
"277 559 OFFCURVE",
"317 572 CURVE",
"328 569 LINE",
"481 569 LINE",
"521 646 LINE",
"514 654 LINE",
"12 654 LINE",
"8 646 LINE",
"32 587 OFFCURVE",
"86 554 OFFCURVE",
"169 554 CURVE SMOOTH"
);
},
{
closed = 1;
nodes = (
"521 176 LINE",
"521 646 LINE",
"421 634 LINE",
"421 176 LINE"
);
}
);
width = 576;
}
);
rightMetricsKey = matraA.rj;
unicode = 0950;
script = devanagari;
category = Symbol;
},
{
color = 4;
glyphname = vowelRuu.rj;
lastChange = "2024-03-05 10:05:47 +0000";
layers = (
{
anchors = (
{
name = top2;
position = "{271, 646}";
}
);
components = (
{
name = vowelRu_comp;
}
);
layerId = "C3E057B1-67D4-4FCF-93C0-B6D1362B390D";
paths = (
{
closed = 1;
nodes = (
"360 -27 LINE",
"298 19 LINE",
"308 5 LINE",
"333 25 OFFCURVE",
"374 39 OFFCURVE",
"408 39 CURVE SMOOTH",
"454 39 OFFCURVE",
"481 26 OFFCURVE",
"592 -26 CURVE",
"596 -8 LINE",
"506 45 LINE",
"455 67 OFFCURVE",
"425 84 OFFCURVE",
"375 84 CURVE SMOOTH",
"313 84 OFFCURVE",
"285 43 OFFCURVE",
"252 43 CURVE SMOOTH",
"241 43 OFFCURVE",
"231 48 OFFCURVE",
"217 55 CURVE",
"208 42 LINE",
"240 19 OFFCURVE",
"302 -18 OFFCURVE",
"351 -47 CURVE"
);
},
{
closed = 1;
nodes = (
"605 -116 LINE",
"526 -77 OFFCURVE",
"481 -61 OFFCURVE",
"445 -61 CURVE SMOOTH",
"407 -61 OFFCURVE",
"379 -74 OFFCURVE",
"346 -95 CURVE",
"390 -105 LINE",
"312 -53 LINE",
"327 -71 LINE",
"363 -43 OFFCURVE",
"392 -31 OFFCURVE",
"428 -31 CURVE SMOOTH",
"460 -31 OFFCURVE",
"500 -40 OFFCURVE",
"536 -55 CURVE",
"544 -40 LINE",
"488 -9 OFFCURVE",
"442 6 OFFCURVE",
"397 6 CURVE SMOOTH",
"334 6 OFFCURVE",
"318 -31 OFFCURVE",
"275 -31 CURVE SMOOTH",
"264 -31 OFFCURVE",
"256 -28 OFFCURVE",
"244 -21 CURVE",
"234 -34 LINE",
"273 -60 OFFCURVE",
"317 -87 OFFCURVE",
"375 -123 CURVE",
"380 -123 LINE",
"410 -105 OFFCURVE",
"437 -97 OFFCURVE",
"471 -97 CURVE SMOOTH",
"502 -97 OFFCURVE",
"528 -102 OFFCURVE",
"596 -131 CURVE"
);
}
);
width = 571;
}
);
unicode = 0960;
script = devanagari;
category = Letter;
},
{
color = 4;
glyphname = vowelLruu.rj;
lastChange = "2024-03-05 08:13:15 +0000";
layers = (
{
anchors = (
{
name = top2;
position = "{251, 646}";
}
);
components = (
{
name = vowelL_comp;
}
);
layerId = "C3E057B1-67D4-4FCF-93C0-B6D1362B390D";
paths = (
{
closed = 1;
nodes = (
"333 -27 LINE",
"271 19 LINE",
"281 5 LINE",
"306 25 OFFCURVE",
"347 39 OFFCURVE",
"381 39 CURVE SMOOTH",
"427 39 OFFCURVE",
"467 26 OFFCURVE",
"578 -26 CURVE",
"569 -8 LINE",
"489 45 LINE",
"438 67 OFFCURVE",
"398 84 OFFCURVE",
"348 84 CURVE SMOOTH",
"286 84 OFFCURVE",
"258 43 OFFCURVE",
"225 43 CURVE SMOOTH",
"214 43 OFFCURVE",
"204 48 OFFCURVE",
"190 55 CURVE",
"181 42 LINE",
"213 19 OFFCURVE",
"275 -18 OFFCURVE",
"324 -47 CURVE"
);
},
{
closed = 1;
nodes = (
"578 -116 LINE",
"499 -77 OFFCURVE",
"454 -61 OFFCURVE",
"418 -61 CURVE SMOOTH",
"380 -61 OFFCURVE",
"352 -74 OFFCURVE",
"319 -95 CURVE",
"363 -105 LINE",
"285 -53 LINE",
"300 -71 LINE",
"336 -43 OFFCURVE",
"365 -31 OFFCURVE",
"401 -31 CURVE SMOOTH",
"433 -31 OFFCURVE",
"473 -40 OFFCURVE",
"509 -55 CURVE",
"517 -40 LINE",
"461 -9 OFFCURVE",
"415 6 OFFCURVE",
"370 6 CURVE SMOOTH",
"307 6 OFFCURVE",
"291 -31 OFFCURVE",
"248 -31 CURVE SMOOTH",
"237 -31 OFFCURVE",
"229 -28 OFFCURVE",
"217 -21 CURVE",
"207 -34 LINE",
"246 -60 OFFCURVE",
"290 -87 OFFCURVE",
"348 -123 CURVE",
"353 -123 LINE",
"383 -105 OFFCURVE",
"410 -97 OFFCURVE",
"444 -97 CURVE SMOOTH",
"475 -97 OFFCURVE",
"501 -102 OFFCURVE",
"569 -131 CURVE"
);
}
);
width = 539;
}
);
unicode = 0961;
script = devanagari;
category = Letter;
},
{
color = 3;
glyphname = matraLru.rj;
lastChange = "2024-03-05 08:13:15 +0000";
layers = (
{
anchors = (
{
name = _bottom3;
position = "{173, 70}";
}
);
layerId = "C3E057B1-67D4-4FCF-93C0-B6D1362B390D";
paths = (
{
closed = 1;
nodes = (
"76 -96 LINE",
"100 -83 OFFCURVE",
"142 -68 OFFCURVE",
"175 -62 CURVE",
"176 -59 LINE",
"139 -23 LINE",
"107 -29 OFFCURVE",
"85 -37 OFFCURVE",
"52 -53 CURVE",
"83 -72 LINE",
"2 -13 LINE",
"16 -35 LINE",
"72 -6 OFFCURVE",
"164 26 OFFCURVE",
"266 13 CURVE",
"200 34 LINE",
"226 13 OFFCURVE",
"272 -10 OFFCURVE",
"293 -26 CURVE",
"277 -3 LINE",
"257 -2 OFFCURVE",
"226 -3 OFFCURVE",
"195 -11 CURVE",
"194 -14 LINE",
"232 -48 LINE",
"259 -41 OFFCURVE",
"292 -35 OFFCURVE",
"327 -32 CURVE",
"327 -26 LINE",
"294 4 OFFCURVE",
"237 42 OFFCURVE",
"207 67 CURVE",
"96 73 OFFCURVE",
"-2 37 OFFCURVE",
"-53 10 CURVE",
"-53 4 LINE",
"-13 -29 OFFCURVE",
"11 -50 OFFCURVE",
"71 -96 CURVE"
);
}
);
width = 337;
}
);
unicode = 0962;
script = devanagari;
category = Mark;
subCategory = Nonspacing;
},
{
color = 3;
glyphname = matraLruu.rj;
lastChange = "2024-03-05 08:13:15 +0000";
layers = (
{
anchors = (
{
name = _bottom3;
position = "{173, 70}";
}
);
layerId = "C3E057B1-67D4-4FCF-93C0-B6D1362B390D";
paths = (
{
closed = 1;
nodes = (
"313 -93 OFFCURVE",
"357 -89 OFFCURVE",
"386 -86 CURVE",
"386 -83 LINE",
"332 -34 OFFCURVE",
"278 10 OFFCURVE",
"197 76 CURVE",
"116 78 OFFCURVE",
"18 52 OFFCURVE",
"-31 21 CURVE",
"-32 15 LINE",
"87 -66 LINE",
"116 -58 LINE",
"21 11 LINE",
"36 -19 LINE",
"82 6 OFFCURVE",
"161 29 OFFCURVE",
"247 24 CURVE",
"186 43 LINE",
"344 -82 LINE",
"324 -48 LINE",
"299 -49 OFFCURVE",
"269 -55 OFFCURVE",
"241 -61 CURVE",
"240 -64 LINE",
"285 -101 LINE"
);
},
{
closed = 1;
nodes = (
"160 -131 OFFCURVE",
"183 -122 OFFCURVE",
"228 -112 CURVE",
"229 -110 LINE",
"188 -72 LINE",
"153 -79 OFFCURVE",
"130 -90 OFFCURVE",
"106 -101 CURVE",
"137 -116 LINE",
"46 -62 LINE",
"74 -86 LINE",
"98 -72 OFFCURVE",
"165 -45 OFFCURVE",
"221 -43 CURVE",
"222 -39 LINE",
"182 -4 LINE",
"119 -12 OFFCURVE",
"55 -27 OFFCURVE",
"2 -56 CURVE",
"1 -62 LINE",
"43 -90 OFFCURVE",
"66 -102 OFFCURVE",
"117 -137 CURVE",
"142 -138 LINE"
);
}
);
width = 396;
}
);
unicode = 0963;
script = devanagari;
category = Mark;
subCategory = Nonspacing;
},
{
color = 3;
glyphname = Zero.rj;
lastChange = "2024-03-05 08:13:15 +0000";
layers = (
{
layerId = "C3E057B1-67D4-4FCF-93C0-B6D1362B390D";
paths = (
{
closed = 1;
nodes = (
"466 99 OFFCURVE",
"537 174 OFFCURVE",
"537 317 CURVE SMOOTH",
"537 421 OFFCURVE",
"493 489 OFFCURVE",
"414 553 CURVE SMOOTH",
"350 604 OFFCURVE",
"295 635 OFFCURVE",
"236 635 CURVE SMOOTH",
"112 635 OFFCURVE",
"40 560 OFFCURVE",
"40 410 CURVE SMOOTH",
"40 300 OFFCURVE",
"91 218 OFFCURVE",
"181 159 CURVE SMOOTH",
"243 118 OFFCURVE",
"295 99 OFFCURVE",
"339 99 CURVE SMOOTH"
);
},
{
closed = 1;
nodes = (
"208 180 OFFCURVE",
"165 243 OFFCURVE",
"165 368 CURVE SMOOTH",
"165 493 OFFCURVE",
"212 554 OFFCURVE",
"292 554 CURVE SMOOTH",
"367 554 OFFCURVE",
"413 493 OFFCURVE",
"413 371 CURVE SMOOTH",
"413 243 OFFCURVE",
"365 180 OFFCURVE",
"286 180 CURVE SMOOTH"
);
}
);
width = 577;
}
);
unicode = 0966;
script = devanagari;
category = Number;
},
{
color = 3;
glyphname = One.rj;
lastChange = "2024-03-05 08:13:15 +0000";
layers = (
{
layerId = "C3E057B1-67D4-4FCF-93C0-B6D1362B390D";
paths = (
{
closed = 1;
nodes = (
"547 0 OFFCURVE",
"634 76 OFFCURVE",
"634 183 CURVE SMOOTH",
"634 280 OFFCURVE",
"594 344 OFFCURVE",
"433 460 CURVE SMOOTH",
"356 516 OFFCURVE",
"333 527 OFFCURVE",
"333 558 CURVE SMOOTH",
"333 581 OFFCURVE",
"352 597 OFFCURVE",
"378 597 CURVE SMOOTH",
"390 597 OFFCURVE",
"401 594 OFFCURVE",
"418 586 CURVE",
"428 601 LINE",
"386 639 OFFCURVE",
"340 664 OFFCURVE",
"300 664 CURVE SMOOTH",
"254 664 OFFCURVE",
"222 639 OFFCURVE",
"222 593 CURVE SMOOTH",
"222 553 OFFCURVE",
"254 529 OFFCURVE",
"366 450 CURVE SMOOTH",
"466 380 OFFCURVE",
"506 312 OFFCURVE",
"506 236 CURVE SMOOTH",
"506 142 OFFCURVE",
"454 75 OFFCURVE",
"380 75 CURVE SMOOTH",
"328 75 OFFCURVE",
"284 109 OFFCURVE",
"284 156 CURVE SMOOTH",
"284 220 OFFCURVE",
"315 252 OFFCURVE",
"373 252 CURVE SMOOTH",
"386 252 OFFCURVE",
"408 246 OFFCURVE",
"426 237 CURVE",
"436 255 LINE",
"398 303 OFFCURVE",
"346 332 OFFCURVE",
"297 332 CURVE SMOOTH",
"215 332 OFFCURVE",
"164 283 OFFCURVE",
"164 201 CURVE SMOOTH",
"164 151 OFFCURVE",
"200 99 OFFCURVE",
"248 62 CURVE SMOOTH",
"294 26 OFFCURVE",
"364 0 OFFCURVE",
"424 0 CURVE SMOOTH"
);
},
{
closed = 1;
nodes = (
"161 486 OFFCURVE",
"186 505 OFFCURVE",
"186 535 CURVE SMOOTH",
"186 562 OFFCURVE",
"156 592 OFFCURVE",
"120 598 CURVE",
"137 580 LINE",
"175 584 OFFCURVE",
"193 604 OFFCURVE",
"193 637 CURVE SMOOTH",
"193 687 OFFCURVE",
"137 731 OFFCURVE",
"41 755 CURVE",
"34 738 LINE",
"89 715 OFFCURVE",
"109 699 OFFCURVE",
"109 676 CURVE SMOOTH",
"109 657 OFFCURVE",
"97 645 OFFCURVE",
"77 645 CURVE SMOOTH",
"69 645 OFFCURVE",
"54 648 OFFCURVE",
"38 654 CURVE",
"31 635 LINE",
"74 617 OFFCURVE",
"96 600 OFFCURVE",
"96 579 CURVE SMOOTH",
"96 561 OFFCURVE",
"83 550 OFFCURVE",
"62 550 CURVE SMOOTH",
"49 550 OFFCURVE",
"33 554 OFFCURVE",
"8 565 CURVE",
"0 552 LINE",
"20 530 OFFCURVE",
"79 486 OFFCURVE",
"130 486 CURVE SMOOTH"
);
}
);
width = 669;
}
);
unicode = 0967;
script = devanagari;
category = Number;
},
{
color = 3;
glyphname = Two.rj;
lastChange = "2024-03-05 08:13:15 +0000";
layers = (
{
layerId = "C3E057B1-67D4-4FCF-93C0-B6D1362B390D";
paths = (
{
closed = 1;
nodes = (
"437 -24 OFFCURVE",
"471 5 OFFCURVE",
"471 51 CURVE SMOOTH",
"471 85 OFFCURVE",
"442 119 OFFCURVE",
"324 196 CURVE SMOOTH",
"190 283 OFFCURVE",
"163 338 OFFCURVE",
"163 427 CURVE SMOOTH",
"163 510 OFFCURVE",
"225 579 OFFCURVE",
"298 579 CURVE SMOOTH",
"364 579 OFFCURVE",
"408 546 OFFCURVE",
"408 494 CURVE SMOOTH",
"408 462 OFFCURVE",
"382 435 OFFCURVE",
"346 435 CURVE SMOOTH",
"330 435 OFFCURVE",
"310 438 OFFCURVE",
"295 443 CURVE",
"286 430 LINE",
"314 400 OFFCURVE",
"364 370 OFFCURVE",
"404 370 CURVE SMOOTH",
"466 370 OFFCURVE",
"503 402 OFFCURVE",
"503 457 CURVE SMOOTH",
"503 556 OFFCURVE",
"378 654 OFFCURVE",
"252 654 CURVE SMOOTH",
"126 654 OFFCURVE",
"35 585 OFFCURVE",
"35 471 CURVE SMOOTH",
"35 362 OFFCURVE",
"103 294 OFFCURVE",
"258 191 CURVE SMOOTH",
"336 139 OFFCURVE",
"358 113 OFFCURVE",
"358 82 CURVE SMOOTH",
"358 59 OFFCURVE",
"339 43 OFFCURVE",
"313 43 CURVE SMOOTH",
"301 43 OFFCURVE",
"290 46 OFFCURVE",
"273 54 CURVE",
"263 39 LINE",
"305 1 OFFCURVE",
"351 -24 OFFCURVE",
"391 -24 CURVE SMOOTH"
);
},
{
closed = 1;
nodes = (
"460 262 OFFCURVE",
"487 287 OFFCURVE",
"487 328 CURVE SMOOTH",
"487 364 OFFCURVE",
"450 391 OFFCURVE",
"392 399 CURVE",
"361 383 LINE",
"382 376 OFFCURVE",
"392 365 OFFCURVE",
"392 348 CURVE SMOOTH",
"392 328 OFFCURVE",
"376 316 OFFCURVE",
"344 316 CURVE SMOOTH",
"336 316 OFFCURVE",
"324 318 OFFCURVE",
"315 321 CURVE",
"306 308 LINE",
"337 282 OFFCURVE",
"375 262 OFFCURVE",
"410 262 CURVE SMOOTH"
);
}
);
width = 549;
}
);
leftKerningGroup = LK_Two;
rightKerningGroup = RK_Two;
unicode = 0968;
script = devanagari;
category = Number;
},
{
color = 3;
glyphname = Three.rj;
lastChange = "2024-03-05 08:13:15 +0000";
layers = (
{
layerId = "C3E057B1-67D4-4FCF-93C0-B6D1362B390D";
paths = (
{
closed = 1;
nodes = (
"437 -24 OFFCURVE",
"471 5 OFFCURVE",
"471 51 CURVE SMOOTH",
"471 85 OFFCURVE",
"442 119 OFFCURVE",
"324 196 CURVE SMOOTH",
"190 283 OFFCURVE",
"163 338 OFFCURVE",
"163 427 CURVE SMOOTH",
"163 497 OFFCURVE",
"205 553 OFFCURVE",
"258 572 CURVE SMOOTH",
"272 578 LINE SMOOTH",
"280 581 OFFCURVE",
"297 583 OFFCURVE",
"305 583 CURVE SMOOTH",
"365 583 OFFCURVE",
"408 549 OFFCURVE",
"408 500 CURVE SMOOTH",
"408 455 OFFCURVE",
"373 425 OFFCURVE",
"315 419 CURVE",
"315 401 LINE",
"361 395 OFFCURVE",
"388 376 OFFCURVE",
"388 350 CURVE SMOOTH",
"388 326 OFFCURVE",
"368 309 OFFCURVE",
"339 309 CURVE SMOOTH",
"328 309 OFFCURVE",
"315 312 OFFCURVE",
"304 316 CURVE",
"296 302 LINE",
"330 273 OFFCURVE",
"370 255 OFFCURVE",
"405 255 CURVE SMOOTH",
"458 255 OFFCURVE",
"487 278 OFFCURVE",
"487 322 CURVE SMOOTH",
"487 361 OFFCURVE",
"447 390 OFFCURVE",
"379 401 CURVE",
"402 372 LINE",
"473 378 OFFCURVE",
"503 411 OFFCURVE",
"503 462 CURVE SMOOTH",
"503 561 OFFCURVE",
"378 654 OFFCURVE",
"252 654 CURVE SMOOTH",
"126 654 OFFCURVE",
"35 585 OFFCURVE",
"35 471 CURVE SMOOTH",
"35 362 OFFCURVE",
"103 294 OFFCURVE",
"258 191 CURVE SMOOTH",
"336 139 OFFCURVE",
"358 113 OFFCURVE",
"358 82 CURVE SMOOTH",
"358 59 OFFCURVE",
"339 43 OFFCURVE",
"313 43 CURVE SMOOTH",
"301 43 OFFCURVE",
"290 46 OFFCURVE",
"273 54 CURVE",
"263 39 LINE",
"305 1 OFFCURVE",
"351 -24 OFFCURVE",
"391 -24 CURVE SMOOTH"
);
},
{
closed = 1;
nodes = (
"327 451 OFFCURVE",
"354 477 OFFCURVE",
"354 514 CURVE SMOOTH",
"354 567 OFFCURVE",
"289 601 OFFCURVE",
"196 595 CURVE",
"179 580 LINE",
"237 580 OFFCURVE",
"278 556 OFFCURVE",
"278 521 CURVE SMOOTH",
"278 504 OFFCURVE",
"265 493 OFFCURVE",
"247 493 CURVE SMOOTH",
"240 493 OFFCURVE",
"233 494 OFFCURVE",
"225 497 CURVE",
"217 483 LINE",
"235 463 OFFCURVE",
"261 451 OFFCURVE",
"289 451 CURVE SMOOTH"
);
}
);
width = 557;
}
);
leftKerningGroup = LK_Two;
rightKerningGroup = RK_Two;
unicode = 0969;
script = devanagari;
category = Number;
},
{
color = 3;
glyphname = Four.rj;
lastChange = "2024-03-05 08:13:15 +0000";
layers = (
{
layerId = "C3E057B1-67D4-4FCF-93C0-B6D1362B390D";
paths = (
{
closed = 1;
nodes = (
"449 21 OFFCURVE",
"516 94 OFFCURVE",
"516 201 CURVE SMOOTH",
"516 312 OFFCURVE",
"423 422 OFFCURVE",
"329 422 CURVE SMOOTH",
"268 422 OFFCURVE",
"226 382 OFFCURVE",
"186 313 CURVE",
"226 314 LINE",
"138 418 LINE",
"149 391 LINE",
"181 480 OFFCURVE",
"248 524 OFFCURVE",
"324 524 CURVE SMOOTH",
"385 524 OFFCURVE",
"443 496 OFFCURVE",
"500 440 CURVE",
"517 457 LINE",
"444 564 OFFCURVE",
"364 621 OFFCURVE",
"265 621 CURVE SMOOTH",
"161 621 OFFCURVE",
"89 577 OFFCURVE",
"51 474 CURVE SMOOTH",
"45 457 OFFCURVE",
"47 443 OFFCURVE",
"61 429 CURVE SMOOTH",
"124 362 OFFCURVE",
"194 290 OFFCURVE",
"258 230 CURVE",
"269 232 LINE",
"307 281 OFFCURVE",
"352 313 OFFCURVE",
"385 313 CURVE SMOOTH",
"412 323 OFFCURVE",
"428 303 OFFCURVE",
"428 258 CURVE SMOOTH",
"428 189 OFFCURVE",
"356 127 OFFCURVE",
"283 127 CURVE SMOOTH",
"210 127 OFFCURVE",
"163 164 OFFCURVE",
"54 270 CURVE",
"35 255 LINE",
"153 98 OFFCURVE",
"233 21 OFFCURVE",
"348 21 CURVE SMOOTH"
);
}
);
width = 552;
}
);
leftKerningGroup = LK_Four;
unicode = 096A;
script = devanagari;
category = Number;
},
{
color = 3;
glyphname = Five.rj;
lastChange = "2024-03-05 08:13:15 +0000";
layers = (
{
layerId = "C3E057B1-67D4-4FCF-93C0-B6D1362B390D";
paths = (
{
closed = 1;
nodes = (
"449 21 OFFCURVE",
"516 94 OFFCURVE",
"516 201 CURVE SMOOTH",
"516 312 OFFCURVE",
"423 422 OFFCURVE",
"329 422 CURVE SMOOTH",
"268 422 OFFCURVE",
"226 382 OFFCURVE",
"186 313 CURVE",
"226 314 LINE",
"138 418 LINE",
"149 391 LINE",
"181 480 OFFCURVE",
"247 514 OFFCURVE",
"311 514 CURVE SMOOTH",
"385 514 OFFCURVE",
"443 487 OFFCURVE",
"516 420 CURVE SMOOTH",
"606 329 LINE",
"628 351 LINE",
"330 684 LINE",
"294 650 LINE",
"425 520 LINE",
"408 552 LINE",
"359 589 OFFCURVE",
"308 611 OFFCURVE",
"252 611 CURVE SMOOTH",
"174 611 OFFCURVE",
"89 575 OFFCURVE",
"51 474 CURVE SMOOTH",
"45 457 OFFCURVE",
"47 443 OFFCURVE",
"61 429 CURVE SMOOTH",
"124 362 OFFCURVE",
"194 290 OFFCURVE",
"258 230 CURVE",
"269 232 LINE",
"307 281 OFFCURVE",
"352 313 OFFCURVE",
"385 313 CURVE SMOOTH",
"412 323 OFFCURVE",
"428 303 OFFCURVE",
"428 258 CURVE SMOOTH",
"428 189 OFFCURVE",
"356 127 OFFCURVE",
"283 127 CURVE SMOOTH",
"210 127 OFFCURVE",
"163 164 OFFCURVE",
"54 270 CURVE",
"35 255 LINE",
"153 98 OFFCURVE",
"233 21 OFFCURVE",
"348 21 CURVE SMOOTH"
);
}
);
width = 628;
}
);
leftKerningGroup = LK_Four;
unicode = 096B;
script = devanagari;
category = Number;
},
{
color = 3;
glyphname = Six.rj;
lastChange = "2024-03-05 08:13:15 +0000";
layers = (
{
layerId = "C3E057B1-67D4-4FCF-93C0-B6D1362B390D";
paths = (
{
closed = 1;
nodes = (
"466 18 OFFCURVE",
"528 79 OFFCURVE",
"528 174 CURVE SMOOTH",
"528 281 OFFCURVE",
"425 397 OFFCURVE",
"330 387 CURVE SMOOTH",
"273 387 OFFCURVE",
"223 340 OFFCURVE",
"195 277 CURVE",
"231 281 LINE",
"154 383 LINE",
"166 335 LINE",
"200 414 OFFCURVE",
"242 464 OFFCURVE",
"309 469 CURVE SMOOTH",
"360 473 OFFCURVE",
"434 449 OFFCURVE",
"493 393 CURVE",
"457 476 LINE",
"407 536 OFFCURVE",
"334 572 OFFCURVE",
"270 572 CURVE SMOOTH",
"169 572 OFFCURVE",
"106 522 OFFCURVE",
"67 436 CURVE SMOOTH",
"58 416 OFFCURVE",
"63 403 OFFCURVE",
"77 387 CURVE SMOOTH",
"111 348 OFFCURVE",
"204 252 OFFCURVE",
"268 195 CURVE",
"279 197 LINE",
"306 245 OFFCURVE",
"359 285 OFFCURVE",
"399 285 CURVE SMOOTH",
"420 285 OFFCURVE",
"435 269 OFFCURVE",
"435 246 CURVE SMOOTH",
"435 180 OFFCURVE",
"363 122 OFFCURVE",
"290 122 CURVE SMOOTH",
"217 122 OFFCURVE",
"163 156 OFFCURVE",
"54 275 CURVE",
"35 259 LINE",
"159 86 OFFCURVE",
"256 18 OFFCURVE",
"365 18 CURVE SMOOTH"
);
},
{
closed = 1;
nodes = (
"507 398 LINE",
"507 596 LINE",
"417 654 LINE",
"407 646 LINE",
"407 496 LINE",
"493 393 LINE"
);
}
);
width = 559;
}
);
unicode = 096C;
script = devanagari;
category = Number;
},
{
color = 3;
glyphname = Seven.rj;
lastChange = "2024-03-05 08:13:15 +0000";
layers = (
{
components = (
{
name = _terminal;
transform = "{1, 0, 0, 1, 296, 0}";
}
);
layerId = "C3E057B1-67D4-4FCF-93C0-B6D1362B390D";
paths = (
{
closed = 1;
nodes = (
"123 419 LINE",
"123 473 OFFCURVE",
"148 499 OFFCURVE",
"189 499 CURVE SMOOTH",
"237 499 OFFCURVE",
"278 472 OFFCURVE",
"307 425 CURVE",
"343 442 LINE",
"278 559 OFFCURVE",
"205 616 OFFCURVE",
"120 616 CURVE SMOOTH",
"39 616 OFFCURVE",
"0 569 OFFCURVE",
"0 472 CURVE",
"114 413 LINE"
);
},
{
closed = 1;
nodes = (
"396 213 LINE",
"396 608 LINE",
"306 654 LINE",
"296 646 LINE",
"296 213 LINE"
);
}
);
width = 461;
}
);
rightKerningGroup = RK_Danda;
unicode = 096D;
script = devanagari;
category = Number;
},
{
color = 3;
glyphname = Eight.rj;
lastChange = "2024-03-05 08:13:15 +0000";
layers = (
{
components = (
{
name = _terminal;
transform = "{1, 0, 0, 1, 60, 0}";
}
);
layerId = "C3E057B1-67D4-4FCF-93C0-B6D1362B390D";
paths = (
{
closed = 1;
nodes = (
"191 422 OFFCURVE",
"248 444 OFFCURVE",
"290 444 CURVE SMOOTH",
"325 444 OFFCURVE",
"360 430 OFFCURVE",
"384 400 CURVE",
"405 412 LINE",
"378 522 OFFCURVE",
"335 566 OFFCURVE",
"265 566 CURVE SMOOTH",
"186 566 OFFCURVE",
"115 518 OFFCURVE",
"74 437 CURVE",
"158 376 LINE"
);
},
{
closed = 1;
nodes = (
"160 213 LINE",
"160 608 LINE",
"70 654 LINE",
"60 646 LINE",
"60 213 LINE"
);
}
);
width = 415;
}
);
unicode = 096E;
script = devanagari;
category = Number;
},
{
color = 3;
glyphname = Nine.rj;
lastChange = "2024-03-05 08:13:15 +0000";
layers = (
{
layerId = "C3E057B1-67D4-4FCF-93C0-B6D1362B390D";
paths = (
{
closed = 1;
nodes = (
"511 272 LINE",
"511 345 LINE SMOOTH",
"511 397 OFFCURVE",
"480 437 OFFCURVE",
"415 458 CURVE SMOOTH",
"251 512 LINE SMOOTH",
"180 535 OFFCURVE",
"154 542 OFFCURVE",
"154 573 CURVE SMOOTH",
"154 599 OFFCURVE",
"171 615 OFFCURVE",
"202 615 CURVE SMOOTH",
"214 615 OFFCURVE",
"227 612 OFFCURVE",
"244 604 CURVE",
"254 619 LINE",
"212 657 OFFCURVE",
"169 677 OFFCURVE",
"129 677 CURVE SMOOTH",
"80 677 OFFCURVE",
"46 649 OFFCURVE",
"46 605 CURVE SMOOTH",
"46 553 OFFCURVE",
"83 528 OFFCURVE",
"179 491 CURVE SMOOTH",
"336 431 LINE SMOOTH",
"388 411 OFFCURVE",
"401 394 OFFCURVE",
"401 348 CURVE SMOOTH",
"401 272 LINE"
);
},
{
closed = 1;
nodes = (
"474 -55 OFFCURVE",
"508 -27 OFFCURVE",
"508 17 CURVE SMOOTH",
"508 69 OFFCURVE",
"471 94 OFFCURVE",
"375 131 CURVE SMOOTH",
"218 191 LINE SMOOTH",
"166 211 OFFCURVE",
"153 228 OFFCURVE",
"153 274 CURVE SMOOTH",
"153 350 LINE",
"43 350 LINE",
"43 277 LINE SMOOTH",
"43 225 OFFCURVE",
"74 185 OFFCURVE",
"139 164 CURVE SMOOTH",
"303 110 LINE SMOOTH",
"374 87 OFFCURVE",
"400 80 OFFCURVE",
"400 49 CURVE SMOOTH",
"400 23 OFFCURVE",
"383 7 OFFCURVE",
"352 7 CURVE SMOOTH",
"340 7 OFFCURVE",
"327 10 OFFCURVE",
"310 18 CURVE",
"300 3 LINE",
"342 -35 OFFCURVE",
"385 -55 OFFCURVE",
"425 -55 CURVE SMOOTH"
);
},
{
closed = 1;
nodes = (
"511 147 LINE",
"511 291 LINE",
"401 291 LINE",
"401 223 LINE SMOOTH",
"401 218 OFFCURVE",
"399 217 OFFCURVE",
"394 219 CURVE SMOOTH",
"337 242 LINE SMOOTH",
"332 244 OFFCURVE",
"331 247 OFFCURVE",
"331 252 CURVE SMOOTH",
"331 388 LINE",
"53 489 LINE",
"43 483 LINE",
"43 336 LINE",
"153 336 LINE",
"153 402 LINE SMOOTH",
"153 407 OFFCURVE",
"155 408 OFFCURVE",
"160 406 CURVE SMOOTH",
"217 387 LINE SMOOTH",
"222 385 OFFCURVE",
"223 382 OFFCURVE",
"223 377 CURVE SMOOTH",
"223 238 LINE",
"501 140 LINE"
);
}
);
width = 551;
}
);
unicode = 096F;
script = devanagari;
category = Number;
},
{
color = 3;
glyphname = Danda.rj;
lastChange = "2024-03-05 08:13:15 +0000";
layers = (
{
components = (
{
name = _terminal;
transform = "{1, 0, 0, 1, 84, 0}";
}
);
layerId = "C3E057B1-67D4-4FCF-93C0-B6D1362B390D";
paths = (
{
closed = 1;
nodes = (
"184 225 LINE",
"184 654 LINE",
"84 654 LINE",
"84 225 LINE"
);
}
);
width = 241;
}
);
leftKerningGroup = Danda;
rightKerningGroup = Danda;
unicode = 0964;
script = devanagari;
category = Punctuation;
},
{
glyphname = Siddhi.rj;
lastChange = "2024-03-05 08:13:15 +0000";
layers = (
{
components = (
{
name = matraA.rj;
transform = "{1, 0, 0, 1, 263, 0}";
}
);
layerId = "C3E057B1-67D4-4FCF-93C0-B6D1362B390D";
paths = (
{
closed = 1;
nodes = (
"353 -6 LINE",
"285 38 LINE SMOOTH",
"246 63 OFFCURVE",
"237 80 OFFCURVE",
"237 124 CURVE SMOOTH",
"237 623 LINE",
"201 598 LINE SMOOTH",
"147 561 OFFCURVE",
"92 500 OFFCURVE",
"27 424 CURVE",
"27 414 LINE",
"63 369 OFFCURVE",
"102 335 OFFCURVE",
"140 300 CURVE",
"144 331 LINE",
"99 281 OFFCURVE",
"40 216 OFFCURVE",
"26 196 CURVE",
"26 187 LINE",
"98 126 OFFCURVE",
"224 40 OFFCURVE",
"341 -26 CURVE"
);
},
{
closed = 1;
nodes = (
"237 623 LINE",
"237 654 LINE",
"12 654 LINE",
"10 646 LINE",
"31 565 OFFCURVE",
"109 542 OFFCURVE",
"169 542 CURVE"
);
}
);
width = 464;
}
);
rightKerningGroup = Danda;
rightMetricsKey = Danda.rj;
unicode = A8FC;
category = Punctuation;
},
{
glyphname = Continuation_Mark.rj;
lastChange = "2024-03-05 08:13:15 +0000";
layers = (
{
layerId = "C3E057B1-67D4-4FCF-93C0-B6D1362B390D";
paths = (
{
closed = 1;
nodes = (
"283 -8 LINE",
"239 17 LINE SMOOTH",
"199 40 OFFCURVE",
"184 61 OFFCURVE",
"184 102 CURVE SMOOTH",
"184 145 LINE",
"84 145 LINE",
"84 69 LINE",
"117 50 OFFCURVE",
"191 12 OFFCURVE",
"273 -26 CURVE"
);
},
{
closed = 1;
nodes = (
"184 137 LINE",
"184 190 LINE",
"94 243 LINE",
"84 236 LINE",
"84 137 LINE"
);
},
{
closed = 1;
nodes = (
"184 264 LINE",
"184 398 LINE",
"94 451 LINE",
"84 444 LINE",
"84 310 LINE",
"174 257 LINE"
);
},
{
closed = 1;
nodes = (
"184 472 LINE",
"184 654 LINE",
"84 654 LINE",
"84 518 LINE",
"174 465 LINE"
);
}
);
width = 241;
}
);
leftKerningGroup = Danda;
leftMetricsKey = Danda.rj;
rightKerningGroup = Danda;
rightMetricsKey = Danda.rj;
unicode = 1144E;
category = Punctuation;
},
{
glyphname = FlowerPunctuationMark.rj;
lastChange = "2024-03-05 08:13:15 +0000";
layers = (
{
components = (
{
name = _petal1_part;
transform = "{1, 0, 0, 1, -76, 20}";
},
{
name = _petal1_part;
transform = "{0, 1, -1, 0, 667, -128}";
},
{
name = _petal1_part;
transform = "{0, -1, 1, 0, 67, 775}";
},
{
name = _petal1_part;
transform = "{-1, 0, 0, -1, 810, 627}";
}
);
layerId = "C3E057B1-67D4-4FCF-93C0-B6D1362B390D";
paths = (
{
closed = 1;
nodes = (
"393 277 OFFCURVE",
"416 299 OFFCURVE",
"416 327 CURVE SMOOTH",
"416 354 OFFCURVE",
"393 376 OFFCURVE",
"366 376 CURVE SMOOTH",
"339 376 OFFCURVE",
"317 354 OFFCURVE",
"317 327 CURVE SMOOTH",
"317 299 OFFCURVE",
"339 277 OFFCURVE",
"366 277 CURVE SMOOTH"
);
}
);
width = 734;
}
);
unicode = 2055;
category = Symbol;
},
{
glyphname = Padma.rj;
lastChange = "2024-03-05 10:02:07 +0000";
layers = (
{
layerId = "C3E057B1-67D4-4FCF-93C0-B6D1362B390D";
paths = (
{
closed = 1;
nodes = (
"873 118 OFFCURVE",
"924 292 OFFCURVE",
"924 436 CURVE SMOOTH",
"924 599 OFFCURVE",
"863 684 OFFCURVE",
"754 710 CURVE",
"752 852 OFFCURVE",
"644 951 OFFCURVE",
"491 951 CURVE",
"491 928 LINE",
"638 928 OFFCURVE",
"735 831 OFFCURVE",
"726 692 CURVE",
"836 667 OFFCURVE",
"896 600 OFFCURVE",
"896 436 CURVE SMOOTH",
"896 296 OFFCURVE",
"848 125 OFFCURVE",
"748 -86 CURVE",
"773 -97 LINE"
);
},
{
closed = 1;
nodes = (
"145 -229 OFFCURVE",
"180 -218 OFFCURVE",
"193 -202 CURVE",
"193 -175 LINE",
"171 -192 OFFCURVE",
"156 -202 OFFCURVE",
"125 -205 CURVE",
"115 -159 OFFCURVE",
"148 -113 OFFCURVE",
"193 -99 CURVE",
"165 -101 LINE",
"129 -118 OFFCURVE",
"107 -156 OFFCURVE",
"107 -200 CURVE SMOOTH",
"107 -208 OFFCURVE",
"109 -219 OFFCURVE",
"113 -229 CURVE"
);
},
{
closed = 1;
nodes = (
"158 -181 OFFCURVE",
"170 -170 OFFCURVE",
"177 -155 CURVE SMOOTH",
"191 -126 OFFCURVE",
"202 -112 OFFCURVE",
"215 -106 CURVE",
"205 -101 LINE",
"164 -119 OFFCURVE",
"134 -146 OFFCURVE",
"140 -184 CURVE"
);
},
{
closed = 1;
nodes = (
"242 -229 OFFCURVE",
"261 -216 OFFCURVE",
"269 -192 CURVE",
"262 -165 LINE",
"256 -191 OFFCURVE",
"234 -209 OFFCURVE",
"208 -214 CURVE",
"201 -205 OFFCURVE",
"197 -197 OFFCURVE",
"197 -181 CURVE SMOOTH",
"197 -152 OFFCURVE",
"227 -113 OFFCURVE",
"260 -100 CURVE",
"252 -94 LINE",
"213 -107 OFFCURVE",
"182 -149 OFFCURVE",
"182 -186 CURVE SMOOTH",
"182 -207 OFFCURVE",
"187 -221 OFFCURVE",
"208 -241 CURVE"
);
},
{
closed = 1;
nodes = (
"231 -189 OFFCURVE",
"242 -180 OFFCURVE",
"254 -155 CURVE SMOOTH",
"269 -123 OFFCURVE",
"277 -113 OFFCURVE",
"291 -105 CURVE",
"274 -103 LINE",
"235 -123 OFFCURVE",
"212 -152 OFFCURVE",
"212 -177 CURVE SMOOTH",
"212 -183 OFFCURVE",
"213 -187 OFFCURVE",
"215 -192 CURVE"
);
},
{
closed = 1;
nodes = (
"329 -233 OFFCURVE",
"343 -217 OFFCURVE",
"354 -194 CURVE",
"345 -165 LINE",
"337 -192 OFFCURVE",
"320 -213 OFFCURVE",
"290 -218 CURVE",
"281 -210 OFFCURVE",
"276 -199 OFFCURVE",
"276 -183 CURVE SMOOTH",
"276 -151 OFFCURVE",
"297 -120 OFFCURVE",
"341 -97 CURVE",
"336 -93 LINE",
"294 -104 OFFCURVE",
"260 -145 OFFCURVE",
"260 -183 CURVE SMOOTH",
"260 -204 OFFCURVE",
"264 -226 OFFCURVE",
"289 -245 CURVE"
);
},
{
closed = 1;
nodes = (
"308 -194 OFFCURVE",
"317 -188 OFFCURVE",
"323 -179 CURVE SMOOTH",
"339 -157 OFFCURVE",
"343 -124 OFFCURVE",
"373 -103 CURVE",
"362 -100 LINE",
"316 -119 OFFCURVE",
"291 -149 OFFCURVE",
"291 -178 CURVE SMOOTH",
"291 -185 OFFCURVE",
"293 -191 OFFCURVE",
"295 -197 CURVE"
);
},
{
closed = 1;
nodes = (
"415 -236 OFFCURVE",
"435 -220 OFFCURVE",
"446 -197 CURVE",
"433 -168 LINE",
"430 -195 OFFCURVE",
"404 -216 OFFCURVE",
"375 -221 CURVE",
"366 -213 OFFCURVE",
"360 -202 OFFCURVE",
"360 -186 CURVE SMOOTH",
"360 -154 OFFCURVE",
"382 -121 OFFCURVE",
"421 -97 CURVE",
"415 -94 LINE",
"375 -106 OFFCURVE",
"342 -148 OFFCURVE",
"342 -186 CURVE SMOOTH",
"342 -207 OFFCURVE",
"348 -229 OFFCURVE",
"375 -248 CURVE"
);
},
{
closed = 1;
nodes = (
"402 -195 OFFCURVE",
"411 -185 OFFCURVE",
"419 -161 CURVE SMOOTH",
"429 -131 OFFCURVE",
"435 -114 OFFCURVE",
"454 -99 CURVE",
"443 -98 LINE",
"400 -118 OFFCURVE",
"377 -149 OFFCURVE",
"377 -180 CURVE SMOOTH",
"377 -187 OFFCURVE",
"379 -193 OFFCURVE",
"382 -200 CURVE"
);
},
{
closed = 1;
nodes = (
"491 -223 LINE",
"465 -211 OFFCURVE",
"453 -192 OFFCURVE",
"453 -168 CURVE SMOOTH",
"453 -142 OFFCURVE",
"468 -115 OFFCURVE",
"484 -99 CURVE",
"475 -99 LINE",
"452 -111 OFFCURVE",
"432 -148 OFFCURVE",
"432 -179 CURVE SMOOTH",
"432 -211 OFFCURVE",
"451 -234 OFFCURVE",
"491 -250 CURVE"
);
},
{
closed = 1;
nodes = (
"491 -99 LINE",
"477 -123 OFFCURVE",
"470 -143 OFFCURVE",
"470 -168 CURVE SMOOTH",
"470 -185 OFFCURVE",
"478 -199 OFFCURVE",
"491 -208 CURVE"
);
},
{
closed = 1;
nodes = (
"531 -234 OFFCURVE",
"550 -211 OFFCURVE",
"550 -179 CURVE SMOOTH",
"550 -148 OFFCURVE",
"530 -111 OFFCURVE",
"507 -99 CURVE",
"498 -99 LINE",
"514 -115 OFFCURVE",
"529 -142 OFFCURVE",
"529 -168 CURVE SMOOTH",
"529 -192 OFFCURVE",
"517 -211 OFFCURVE",
"491 -223 CURVE",
"491 -250 LINE"
);
},
{
closed = 1;
nodes = (
"504 -199 OFFCURVE",
"512 -185 OFFCURVE",
"512 -168 CURVE SMOOTH",
"512 -143 OFFCURVE",
"505 -123 OFFCURVE",
"491 -99 CURVE",
"491 -208 LINE"
);
},
{
closed = 1;
nodes = (
"824 -109 LINE",
"825 -106 OFFCURVE",
"825 -103 OFFCURVE",
"825 -100 CURVE SMOOTH",
"825 -89 OFFCURVE",
"817 -83 OFFCURVE",
"800 -83 CURVE SMOOTH",
"177 -83 LINE SMOOTH",
"160 -83 OFFCURVE",
"152 -89 OFFCURVE",
"152 -100 CURVE SMOOTH",
"152 -103 OFFCURVE",
"152 -106 OFFCURVE",
"153 -109 CURVE"
);
},
{
closed = 1;
nodes = (
"634 -229 OFFCURVE",
"640 -207 OFFCURVE",
"640 -186 CURVE SMOOTH",
"640 -148 OFFCURVE",
"607 -106 OFFCURVE",
"567 -94 CURVE",
"561 -97 LINE",
"600 -121 OFFCURVE",
"622 -154 OFFCURVE",
"622 -186 CURVE SMOOTH",
"622 -202 OFFCURVE",
"616 -213 OFFCURVE",
"607 -221 CURVE",
"578 -216 OFFCURVE",
"552 -195 OFFCURVE",
"549 -168 CURVE",
"536 -197 LINE",
"547 -220 OFFCURVE",
"567 -236 OFFCURVE",
"607 -248 CURVE"
);
},
{
closed = 1;
nodes = (
"603 -193 OFFCURVE",
"605 -187 OFFCURVE",
"605 -180 CURVE SMOOTH",
"605 -149 OFFCURVE",
"582 -118 OFFCURVE",
"539 -98 CURVE",
"528 -99 LINE",
"547 -114 OFFCURVE",
"553 -131 OFFCURVE",
"563 -161 CURVE SMOOTH",
"571 -185 OFFCURVE",
"580 -195 OFFCURVE",
"600 -200 CURVE"
);
},
{
closed = 1;
nodes = (
"689 -191 OFFCURVE",
"691 -185 OFFCURVE",
"691 -178 CURVE SMOOTH",
"691 -149 OFFCURVE",
"666 -119 OFFCURVE",
"620 -100 CURVE",
"609 -103 LINE",
"639 -124 OFFCURVE",
"643 -157 OFFCURVE",
"659 -179 CURVE SMOOTH",
"665 -188 OFFCURVE",
"674 -194 OFFCURVE",
"687 -197 CURVE"
);
},
{
closed = 1;
nodes = (
"718 -226 OFFCURVE",
"722 -204 OFFCURVE",
"722 -183 CURVE SMOOTH",
"722 -145 OFFCURVE",
"688 -104 OFFCURVE",
"646 -93 CURVE",
"641 -97 LINE",
"685 -120 OFFCURVE",
"706 -151 OFFCURVE",
"706 -183 CURVE SMOOTH",
"706 -199 OFFCURVE",
"701 -210 OFFCURVE",
"692 -218 CURVE",
"662 -213 OFFCURVE",
"645 -192 OFFCURVE",
"637 -165 CURVE",
"628 -194 LINE",
"639 -217 OFFCURVE",
"653 -233 OFFCURVE",
"693 -245 CURVE"
);
},
{
closed = 1;
nodes = (
"769 -187 OFFCURVE",
"770 -183 OFFCURVE",
"770 -177 CURVE SMOOTH",
"770 -152 OFFCURVE",
"747 -123 OFFCURVE",
"708 -103 CURVE",
"691 -105 LINE",
"705 -113 OFFCURVE",
"713 -123 OFFCURVE",
"728 -155 CURVE SMOOTH",
"740 -180 OFFCURVE",
"751 -189 OFFCURVE",
"767 -192 CURVE"
);
},
{
closed = 1;
nodes = (
"795 -221 OFFCURVE",
"800 -207 OFFCURVE",
"800 -186 CURVE SMOOTH",
"800 -149 OFFCURVE",
"769 -107 OFFCURVE",
"730 -94 CURVE",
"722 -100 LINE",
"755 -113 OFFCURVE",
"785 -152 OFFCURVE",
"785 -181 CURVE SMOOTH",
"785 -197 OFFCURVE",
"781 -205 OFFCURVE",
"774 -214 CURVE",
"748 -209 OFFCURVE",
"726 -191 OFFCURVE",
"720 -165 CURVE",
"713 -192 LINE",
"721 -216 OFFCURVE",
"740 -229 OFFCURVE",
"774 -241 CURVE"
);
},
{
closed = 1;
nodes = (
"848 -146 OFFCURVE",
"818 -119 OFFCURVE",
"777 -101 CURVE",
"767 -106 LINE",
"780 -112 OFFCURVE",
"791 -126 OFFCURVE",
"805 -155 CURVE SMOOTH",
"812 -170 OFFCURVE",
"824 -181 OFFCURVE",
"842 -184 CURVE"
);
},
{
closed = 1;
nodes = (
"873 -219 OFFCURVE",
"875 -208 OFFCURVE",
"875 -200 CURVE SMOOTH",
"875 -156 OFFCURVE",
"853 -118 OFFCURVE",
"817 -101 CURVE",
"789 -99 LINE",
"834 -113 OFFCURVE",
"867 -159 OFFCURVE",
"857 -205 CURVE",
"826 -202 OFFCURVE",
"811 -192 OFFCURVE",
"789 -175 CURVE",
"789 -202 LINE",
"802 -218 OFFCURVE",
"837 -229 OFFCURVE",
"869 -229 CURVE"
);
},
{
closed = 1;
nodes = (
"234 -86 LINE",
"134 125 OFFCURVE",
"86 296 OFFCURVE",
"86 436 CURVE SMOOTH",
"86 600 OFFCURVE",
"146 667 OFFCURVE",
"256 692 CURVE",
"247 831 OFFCURVE",
"344 928 OFFCURVE",
"491 928 CURVE",
"491 951 LINE",
"338 951 OFFCURVE",
"230 852 OFFCURVE",
"228 710 CURVE",
"119 684 OFFCURVE",
"58 599 OFFCURVE",
"58 436 CURVE SMOOTH",
"58 292 OFFCURVE",
"109 118 OFFCURVE",
"209 -97 CURVE"
);
}
);
width = 982;
}
);
unicode = 0FC6;
},
{
glyphname = Jihvamuliya.rj;
lastChange = "2024-03-05 08:13:15 +0000";
layers = (
{
layerId = "C3E057B1-67D4-4FCF-93C0-B6D1362B390D";
paths = (
{
closed = 1;
nodes = (
"500 469 LINE",
"498 477 LINE",
"421 554 LINE",
"8 554 LINE",
"3 535 LINE",
"196 383 LINE",
"284 382 LINE",
"322 351 LINE"
);
},
{
closed = 1;
nodes = (
"498 218 LINE",
"503 237 LINE",
"310 389 LINE",
"222 400 LINE",
"184 421 LINE",
"6 303 LINE",
"8 295 LINE",
"85 218 LINE"
);
},
{
closed = 1;
nodes = (
"266 360 LINE",
"333 309 LINE",
"172 309 LINE"
);
},
{
closed = 1;
nodes = (
"173 463 LINE",
"334 463 LINE",
"240 412 LINE"
);
}
);
width = 527;
}
);
unicode = 1CF5;
script = Devanagari;
},
{
glyphname = Upadhmaniya.rj;
lastChange = "2024-03-05 08:13:15 +0000";
layers = (
{
layerId = "C3E057B1-67D4-4FCF-93C0-B6D1362B390D";
paths = (
{
closed = 1;
nodes = (
"284 328 OFFCURVE",
"314 358 OFFCURVE",
"314 402 CURVE",
"257 418 LINE",
"280 372 OFFCURVE",
"335 328 OFFCURVE",
"403 328 CURVE SMOOTH",
"471 328 OFFCURVE",
"506 367 OFFCURVE",
"506 424 CURVE SMOOTH",
"506 498 OFFCURVE",
"445 524 OFFCURVE",
"383 526 CURVE",
"374 516 LINE",
"384 500 OFFCURVE",
"395 474 OFFCURVE",
"395 454 CURVE SMOOTH",
"395 430 OFFCURVE",
"387 405 OFFCURVE",
"349 405 CURVE SMOOTH",
"308 405 OFFCURVE",
"283 444 OFFCURVE",
"267 499 CURVE",
"236 489 LINE",
"244 411 OFFCURVE",
"211 393 OFFCURVE",
"181 393 CURVE SMOOTH",
"158 393 OFFCURVE",
"139 410 OFFCURVE",
"139 437 CURVE SMOOTH",
"139 455 OFFCURVE",
"148 470 OFFCURVE",
"158 477 CURVE",
"158 484 LINE",
"116 507 OFFCURVE",
"76 526 OFFCURVE",
"36 542 CURVE",
"21 528 OFFCURVE",
"15 509 OFFCURVE",
"15 486 CURVE SMOOTH",
"15 448 OFFCURVE",
"62 404 OFFCURVE",
"105 376 CURVE SMOOTH",
"140 353 OFFCURVE",
"186 328 OFFCURVE",
"227 328 CURVE SMOOTH"
);
}
);
width = 530;
}
);
unicode = 1CF6;
script = Devanagari;
},
{
glyphname = degree;
lastChange = "2024-03-05 10:00:30 +0000";
layers = (
{
layerId = "C3E057B1-67D4-4FCF-93C0-B6D1362B390D";
paths = (
{
closed = 1;
nodes = (
"255 397 OFFCURVE",
"307 446 OFFCURVE",
"307 525 CURVE SMOOTH",
"307 604 OFFCURVE",
"255 654 OFFCURVE",
"179 654 CURVE SMOOTH",
"103 654 OFFCURVE",
"50 604 OFFCURVE",
"50 525 CURVE SMOOTH",
"50 446 OFFCURVE",
"103 397 OFFCURVE",
"179 397 CURVE SMOOTH"
);
},
{
closed = 1;
nodes = (
"145 464 OFFCURVE",
"122 488 OFFCURVE",
"122 525 CURVE SMOOTH",
"122 563 OFFCURVE",
"145 587 OFFCURVE",
"179 587 CURVE SMOOTH",
"212 587 OFFCURVE",
"236 563 OFFCURVE",
"236 525 CURVE SMOOTH",
"236 488 OFFCURVE",
"212 464 OFFCURVE",
"179 464 CURVE SMOOTH"
);
}
);
width = 357;
}
);
unicode = 00B0;
},
{
glyphname = bar;
lastChange = "2024-03-05 08:13:15 +0000";
layers = (
{
layerId = "C3E057B1-67D4-4FCF-93C0-B6D1362B390D";
paths = (
{
closed = 1;
nodes = (
"208 -154 LINE",
"208 785 LINE",
"135 785 LINE",
"135 -154 LINE"
);
}
);
width = 323;
}
);
unicode = 007C;
},
{
glyphname = plus;
lastChange = "2024-03-05 08:13:15 +0000";
layers = (
{
layerId = "C3E057B1-67D4-4FCF-93C0-B6D1362B390D";
paths = (
{
closed = 1;
nodes = (
"323 77 LINE",
"323 511 LINE",
"245 511 LINE",
"245 77 LINE"
);
},
{
closed = 1;
nodes = (
"502 256 LINE",
"502 332 LINE",
"70 332 LINE",
"70 256 LINE"
);
}
);
width = 572;
}
);
leftMetricsKey = minus;
rightMetricsKey = minus;
unicode = 002B;
},
{
glyphname = minus;
lastChange = "2024-03-05 08:13:15 +0000";
layers = (
{
layerId = "C3E057B1-67D4-4FCF-93C0-B6D1362B390D";
paths = (
{
closed = 1;
nodes = (
"502 256 LINE",
"502 332 LINE",
"70 332 LINE",
"70 256 LINE"
);
}
);
width = 572;
}
);
leftKerningGroup = _hyphen;
rightKerningGroup = _hyphen;
unicode = 2212;
},
{
glyphname = multiply;
lastChange = "2024-03-05 08:14:25 +0000";
layers = (
{
layerId = "C3E057B1-67D4-4FCF-93C0-B6D1362B390D";
paths = (
{
closed = 1;
nodes = (
"276 251 LINE",
"306 282 LINE",
"473 446 LINE",
"420 500 LINE",
"255 332 LINE",
"225 302 LINE",
"62 142 LINE",
"116 88 LINE"
);
},
{
closed = 1;
nodes = (
"473 142 LINE",
"310 302 LINE",
"278 335 LINE",
"116 500 LINE",
"62 446 LINE",
"227 284 LINE",
"260 251 LINE",
"420 88 LINE"
);
}
);
width = 535;
}
);
unicode = 00D7;
},
{
glyphname = equal;
lastChange = "2024-03-05 08:13:15 +0000";
layers = (
{
layerId = "C3E057B1-67D4-4FCF-93C0-B6D1362B390D";
paths = (
{
closed = 1;
nodes = (
"502 351 LINE",
"502 427 LINE",
"70 427 LINE",
"70 351 LINE"
);
},
{
closed = 1;
nodes = (
"502 166 LINE",
"502 242 LINE",
"70 242 LINE",
"70 166 LINE"
);
}
);
width = 572;
}
);
leftMetricsKey = minus;
rightMetricsKey = minus;
unicode = 003D;
},
{
glyphname = less;
lastChange = "2024-03-05 08:13:15 +0000";
layers = (
{
layerId = "C3E057B1-67D4-4FCF-93C0-B6D1362B390D";
paths = (
{
closed = 1;
nodes = (
"433 154 LINE",
"144 292 LINE",
"433 429 LINE",
"433 514 LINE",
"50 324 LINE",
"50 261 LINE",
"433 69 LINE"
);
}
);
width = 483;
}
);
unicode = 003C;
},
{
glyphname = percent;
lastChange = "2024-03-05 08:13:15 +0000";
layers = (
{
layerId = "C3E057B1-67D4-4FCF-93C0-B6D1362B390D";
paths = (
{
closed = 1;
nodes = (
"246 0 LINE",
"648 632 LINE",
"559 632 LINE",
"156 0 LINE"
);
},
{
closed = 1;
nodes = (
"283 334 OFFCURVE",
"344 393 OFFCURVE",
"344 492 CURVE SMOOTH",
"344 594 OFFCURVE",
"286 648 OFFCURVE",
"197 648 CURVE SMOOTH",
"113 648 OFFCURVE",
"50 590 OFFCURVE",
"50 492 CURVE SMOOTH",
"50 389 OFFCURVE",
"110 334 OFFCURVE",
"197 334 CURVE SMOOTH"
);
},
{
closed = 1;
nodes = (
"160 410 OFFCURVE",
"135 441 OFFCURVE",
"135 491 CURVE SMOOTH",
"135 541 OFFCURVE",
"160 572 OFFCURVE",
"197 573 CURVE SMOOTH",
"234 574 OFFCURVE",
"259 544 OFFCURVE",
"259 491 CURVE SMOOTH",
"259 438 OFFCURVE",
"234 408 OFFCURVE",
"197 409 CURVE SMOOTH"
);
},
{
closed = 1;
nodes = (
"687 -14 OFFCURVE",
"748 45 OFFCURVE",
"748 144 CURVE SMOOTH",
"748 246 OFFCURVE",
"690 300 OFFCURVE",
"601 300 CURVE SMOOTH",
"517 300 OFFCURVE",
"454 242 OFFCURVE",
"454 144 CURVE SMOOTH",
"454 41 OFFCURVE",
"514 -14 OFFCURVE",
"601 -14 CURVE SMOOTH"
);
},
{
closed = 1;
nodes = (
"564 62 OFFCURVE",
"539 93 OFFCURVE",
"539 143 CURVE SMOOTH",
"539 193 OFFCURVE",
"564 224 OFFCURVE",
"601 225 CURVE SMOOTH",
"638 226 OFFCURVE",
"663 196 OFFCURVE",
"663 143 CURVE SMOOTH",
"663 90 OFFCURVE",
"638 60 OFFCURVE",
"601 61 CURVE SMOOTH"
);
}
);
width = 798;
}
);
unicode = 0025;
},
{
glyphname = period;
lastChange = "2024-03-05 08:13:15 +0000";
layers = (
{
layerId = "C3E057B1-67D4-4FCF-93C0-B6D1362B390D";
paths = (
{
closed = 1;
nodes = (
"159 13 OFFCURVE",
"187 44 OFFCURVE",
"187 88 CURVE SMOOTH",
"187 131 OFFCURVE",
"159 162 OFFCURVE",
"119 162 CURVE SMOOTH",
"78 162 OFFCURVE",
"50 131 OFFCURVE",
"50 88 CURVE SMOOTH",
"50 44 OFFCURVE",
"78 13 OFFCURVE",
"119 13 CURVE SMOOTH"
);
}
);
width = 237;
}
);
leftKerningGroup = _period;
rightKerningGroup = _period;
unicode = 002E;
},
{
glyphname = comma;
lastChange = "2024-03-05 08:13:15 +0000";
layers = (
{
layerId = "C3E057B1-67D4-4FCF-93C0-B6D1362B390D";
paths = (
{
closed = 1;
nodes = (
"160 -82 OFFCURVE",
"218 -8 OFFCURVE",
"218 75 CURVE SMOOTH",
"218 130 OFFCURVE",
"191 165 OFFCURVE",
"143 165 CURVE SMOOTH",
"101 165 OFFCURVE",
"72 134 OFFCURVE",
"72 90 CURVE SMOOTH",
"72 47 OFFCURVE",
"101 17 OFFCURVE",
"142 17 CURVE SMOOTH",
"163 17 OFFCURVE",
"175 22 OFFCURVE",
"185 26 CURVE",
"155 53 LINE",
"155 -13 OFFCURVE",
"122 -61 OFFCURVE",
"72 -97 CURVE",
"86 -116 LINE"
);
}
);
width = 271;
}
);
leftKerningGroup = _period;
rightKerningGroup = _period;
unicode = 002C;
},
{
glyphname = exclam;
lastChange = "2024-03-05 08:13:15 +0000";
layers = (
{
components = (
{
name = period;
}
);
layerId = "C3E057B1-67D4-4FCF-93C0-B6D1362B390D";
paths = (
{
closed = 1;
nodes = (
"124 209 LINE",
"142 297 OFFCURVE",
"178 460 OFFCURVE",
"178 599 CURVE SMOOTH",
"178 648 OFFCURVE",
"155 669 OFFCURVE",
"119 669 CURVE SMOOTH",
"84 669 OFFCURVE",
"60 648 OFFCURVE",
"60 599 CURVE SMOOTH",
"60 460 OFFCURVE",
"96 297 OFFCURVE",
"114 209 CURVE"
);
}
);
width = 237;
}
);
unicode = 0021;
},
{
glyphname = question;
lastChange = "2024-03-05 08:13:15 +0000";
layers = (
{
components = (
{
name = period;
transform = "{1, 0, 0, 1, 53, 0}";
}
);
layerId = "C3E057B1-67D4-4FCF-93C0-B6D1362B390D";
paths = (
{
closed = 1;
nodes = (
"174 209 LINE",
"171 270 OFFCURVE",
"197 299 OFFCURVE",
"246 341 CURVE SMOOTH",
"283 373 LINE SMOOTH",
"333 416 OFFCURVE",
"358 441 OFFCURVE",
"358 489 CURVE SMOOTH",
"358 569 OFFCURVE",
"262 668 OFFCURVE",
"169 668 CURVE SMOOTH",
"107 668 OFFCURVE",
"55 636 OFFCURVE",
"20 594 CURVE",
"95 516 LINE",
"104 516 LINE",
"140 555 OFFCURVE",
"181 585 OFFCURVE",
"218 585 CURVE SMOOTH",
"254 585 OFFCURVE",
"278 565 OFFCURVE",
"278 532 CURVE SMOOTH",
"278 502 OFFCURVE",
"257 489 OFFCURVE",
"217 454 CURVE SMOOTH",
"180 422 LINE SMOOTH",
"136 384 OFFCURVE",
"115 360 OFFCURVE",
"115 316 CURVE SMOOTH",
"115 282 OFFCURVE",
"143 240 OFFCURVE",
"164 209 CURVE"
);
}
);
width = 421;
}
);
unicode = 003F;
},
{
glyphname = bullet;
lastChange = "2024-03-05 08:13:15 +0000";
layers = (
{
anchors = (
{
name = top2;
position = "{242, 320}";
}
);
layerId = "C3E057B1-67D4-4FCF-93C0-B6D1362B390D";
paths = (
{
closed = 1;
nodes = (
"297 203 OFFCURVE",
"343 248 OFFCURVE",
"343 323 CURVE SMOOTH",
"343 398 OFFCURVE",
"297 444 OFFCURVE",
"221 444 CURVE SMOOTH",
"151 444 OFFCURVE",
"100 395 OFFCURVE",
"100 323 CURVE SMOOTH",
"100 253 OFFCURVE",
"151 203 OFFCURVE",
"221 203 CURVE SMOOTH"
);
}
);
width = 443;
}
);
unicode = 2022;
},
{
glyphname = asterisk;
lastChange = "2024-03-05 08:13:15 +0000";
layers = (
{
layerId = "C3E057B1-67D4-4FCF-93C0-B6D1362B390D";
paths = (
{
closed = 1;
nodes = (
"364 412 OFFCURVE",
"366 437 OFFCURVE",
"343 466 CURVE SMOOTH",
"324 489 OFFCURVE",
"282 511 OFFCURVE",
"221 545 CURVE",
"216 541 LINE",
"238 473 OFFCURVE",
"254 431 OFFCURVE",
"270 406 CURVE",
"294 376 OFFCURVE",
"320 375 OFFCURVE",
"342 394 CURVE SMOOTH"
);
},
{
closed = 1;
nodes = (
"135 375 OFFCURVE",
"161 376 OFFCURVE",
"185 406 CURVE",
"201 431 OFFCURVE",
"217 473 OFFCURVE",
"239 541 CURVE",
"234 545 LINE",
"173 511 OFFCURVE",
"131 489 OFFCURVE",
"112 466 CURVE SMOOTH",
"89 437 OFFCURVE",
"91 412 OFFCURVE",
"113 394 CURVE SMOOTH"
);
},
{
closed = 1;
nodes = (
"239 535 LINE",
"187 581 OFFCURVE",
"152 613 OFFCURVE",
"123 623 CURVE SMOOTH",
"89 635 OFFCURVE",
"66 625 OFFCURVE",
"56 597 CURVE SMOOTH",
"46 570 OFFCURVE",
"56 546 OFFCURVE",
"92 534 CURVE",
"121 527 OFFCURVE",
"166 527 OFFCURVE",
"237 529 CURVE"
);
},
{
closed = 1;
nodes = (
"232 522 LINE",
"259 591 OFFCURVE",
"275 636 OFFCURVE",
"275 669 CURVE SMOOTH",
"275 704 OFFCURVE",
"257 722 OFFCURVE",
"228 722 CURVE SMOOTH",
"200 722 OFFCURVE",
"183 704 OFFCURVE",
"183 669 CURVE SMOOTH",
"183 636 OFFCURVE",
"200 591 OFFCURVE",
"225 522 CURVE"
);
},
{
closed = 1;
nodes = (
"292 527 OFFCURVE",
"337 527 OFFCURVE",
"366 534 CURVE",
"402 546 OFFCURVE",
"412 570 OFFCURVE",
"402 597 CURVE SMOOTH",
"392 625 OFFCURVE",
"369 635 OFFCURVE",
"335 623 CURVE SMOOTH",
"306 613 OFFCURVE",
"271 581 OFFCURVE",
"219 535 CURVE",
"221 529 LINE"
);
}
);
width = 458;
}
);
unicode = 002A;
},
{
glyphname = numbersign;
lastChange = "2024-03-05 09:59:19 +0000";
layers = (
{
layerId = "C3E057B1-67D4-4FCF-93C0-B6D1362B390D";
paths = (
{
closed = 1;
nodes = (
"453 0 LINE",
"594 631 LINE",
"511 631 LINE",
"370 0 LINE"
);
},
{
closed = 1;
nodes = (
"610 168 LINE",
"629 251 LINE",
"69 251 LINE",
"50 168 LINE"
);
},
{
closed = 1;
nodes = (
"231 0 LINE",
"371 631 LINE",
"287 631 LINE",
"148 0 LINE"
);
},
{
closed = 1;
nodes = (
"660 396 LINE",
"679 479 LINE",
"119 479 LINE",
"100 396 LINE"
);
}
);
width = 729;
}
);
unicode = 0023;
},
{
glyphname = slash;
lastChange = "2024-03-05 08:13:15 +0000";
layers = (
{
layerId = "C3E057B1-67D4-4FCF-93C0-B6D1362B390D";
paths = (
{
closed = 1;
nodes = (
"145 -154 LINE",
"404 785 LINE",
"329 785 LINE",
"70 -154 LINE"
);
}
);
width = 439;
}
);
leftKerningGroup = slash;
rightKerningGroup = slash;
unicode = 002F;
},
{
glyphname = hyphen;
lastChange = "2024-03-05 08:13:15 +0000";
layers = (
{
layerId = "C3E057B1-67D4-4FCF-93C0-B6D1362B390D";
paths = (
{
closed = 1;
nodes = (
"337 241 LINE",
"337 327 LINE",
"70 327 LINE",
"70 241 LINE"
);
}
);
width = 407;
}
);
leftKerningGroup = _hyphen;
rightKerningGroup = _hyphen;
unicode = 002D;
},
{
glyphname = endash;
lastChange = "2024-03-05 08:13:15 +0000";
layers = (
{
layerId = "C3E057B1-67D4-4FCF-93C0-B6D1362B390D";
paths = (
{
closed = 1;
nodes = (
"505 241 LINE",
"485 317 LINE",
"70 317 LINE",
"90 241 LINE"
);
}
);
width = 575;
}
);
leftKerningGroup = _hyphen;
leftMetricsKey = hyphen;
rightKerningGroup = _hyphen;
rightMetricsKey = hyphen;
unicode = 2013;
},
{
glyphname = emdash;
lastChange = "2024-03-05 08:13:15 +0000";
layers = (
{
layerId = "C3E057B1-67D4-4FCF-93C0-B6D1362B390D";
paths = (
{
closed = 1;
nodes = (
"911 241 LINE",
"911 316 LINE",
"70 316 LINE",
"70 241 LINE"
);
}
);
width = 981;
}
);
leftKerningGroup = _hyphen;
leftMetricsKey = hyphen;
rightKerningGroup = _hyphen;
rightMetricsKey = hyphen;
unicode = 2014;
},
{
glyphname = parenleft;
lastChange = "2024-03-05 08:13:15 +0000";
layers = (
{
layerId = "C3E057B1-67D4-4FCF-93C0-B6D1362B390D";
paths = (
{
closed = 1;
nodes = (
"322 -119 LINE",
"234 -36 OFFCURVE",
"177 117 OFFCURVE",
"177 306 CURVE SMOOTH",
"177 496 OFFCURVE",
"234 650 OFFCURVE",
"321 731 CURVE",
"308 747 LINE",
"167 666 OFFCURVE",
"70 509 OFFCURVE",
"70 308 CURVE SMOOTH",
"70 108 OFFCURVE",
"167 -51 OFFCURVE",
"308 -135 CURVE"
);
}
);
width = 322;
}
);
leftKerningGroup = _bracketleft;
rightKerningGroup = _bracketleft;
unicode = 0028;
},
{
glyphname = braceleft;
lastChange = "2024-03-05 08:13:15 +0000";
layers = (
{
layerId = "C3E057B1-67D4-4FCF-93C0-B6D1362B390D";
paths = (
{
closed = 1;
nodes = (
"323 -108 LINE",
"235 -107 OFFCURVE",
"218 -68 OFFCURVE",
"218 25 CURVE SMOOTH",
"218 66 OFFCURVE",
"219 107 OFFCURVE",
"219 140 CURVE SMOOTH",
"219 226 OFFCURVE",
"202 284 OFFCURVE",
"132 303 CURVE",
"132 307 LINE",
"30 307 LINE",
"30 297 LINE",
"108 291 OFFCURVE",
"118 253 OFFCURVE",
"118 163 CURVE SMOOTH",
"118 29 LINE SMOOTH",
"118 -83 OFFCURVE",
"158 -140 OFFCURVE",
"323 -134 CURVE"
);
},
{
closed = 1;
nodes = (
"132 303 LINE",
"132 306 LINE",
"202 327 OFFCURVE",
"219 384 OFFCURVE",
"219 470 CURVE SMOOTH",
"219 502 OFFCURVE",
"218 543 OFFCURVE",
"218 585 CURVE SMOOTH",
"218 682 OFFCURVE",
"237 716 OFFCURVE",
"323 717 CURVE",
"323 744 LINE",
"158 749 OFFCURVE",
"118 693 OFFCURVE",
"118 580 CURVE SMOOTH",
"118 447 LINE SMOOTH",
"118 356 OFFCURVE",
"108 317 OFFCURVE",
"30 311 CURVE",
"30 303 LINE"
);
}
);
width = 363;
}
);
leftKerningGroup = _bracketleft;
rightKerningGroup = _bracketleft;
unicode = 007B;
},
{
glyphname = bracketleft;
lastChange = "2024-03-05 08:13:15 +0000";
layers = (
{
layerId = "C3E057B1-67D4-4FCF-93C0-B6D1362B390D";
paths = (
{
closed = 1;
nodes = (
"290 -134 LINE",
"290 -90 LINE",
"190 -90 LINE",
"190 711 LINE",
"290 711 LINE",
"290 745 LINE",
"90 745 LINE",
"90 -134 LINE"
);
}
);
width = 330;
}
);
leftKerningGroup = _bracketleft;
rightKerningGroup = _bracketleft;
unicode = 005B;
},
{
glyphname = quoteright;
lastChange = "2024-03-05 08:13:15 +0000";
layers = (
{
layerId = "C3E057B1-67D4-4FCF-93C0-B6D1362B390D";
paths = (
{
closed = 1;
nodes = (
"140 460 OFFCURVE",
"198 534 OFFCURVE",
"198 617 CURVE SMOOTH",
"198 672 OFFCURVE",
"171 707 OFFCURVE",
"123 707 CURVE SMOOTH",
"81 707 OFFCURVE",
"52 676 OFFCURVE",
"52 632 CURVE SMOOTH",
"52 589 OFFCURVE",
"81 559 OFFCURVE",
"122 559 CURVE SMOOTH",
"143 559 OFFCURVE",
"155 564 OFFCURVE",
"165 568 CURVE",
"135 595 LINE",
"135 529 OFFCURVE",
"102 481 OFFCURVE",
"52 445 CURVE",
"66 426 LINE"
);
}
);
width = 251;
}
);
leftKerningGroup = _quoteright;
rightKerningGroup = _quoteright;
unicode = 2019;
},
{
glyphname = quotesingle;
lastChange = "2024-03-05 08:13:15 +0000";
layers = (
{
layerId = "C3E057B1-67D4-4FCF-93C0-B6D1362B390D";
paths = (
{
closed = 1;
nodes = (
"144 437 LINE",
"178 537 OFFCURVE",
"189 602 OFFCURVE",
"189 649 CURVE SMOOTH",
"189 695 OFFCURVE",
"171 717 OFFCURVE",
"134 717 CURVE SMOOTH",
"98 717 OFFCURVE",
"80 695 OFFCURVE",
"80 649 CURVE SMOOTH",
"80 602 OFFCURVE",
"93 537 OFFCURVE",
"125 437 CURVE"
);
}
);
width = 269;
}
);
leftKerningGroup = _quotesingle;
rightKerningGroup = _quotesingle;
unicode = 0027;
},
{
color = 3;
glyphname = KaSsa.rj;
lastChange = "2024-03-05 09:53:24 +0000";
layers = (
{
anchors = (
{
name = bottom;
position = "{338, 25}";
},
{
name = bottom2;
position = "{318, 33}";
},
{
name = bottom3;
position = "{338, -2}";
},
{
name = top1;
position = "{426, 646}";
},
{
name = top2;
position = "{323, 646}";
},
{
name = top_alt;
position = "{75, 604}";
}
);
components = (
{
name = _terminal;
transform = "{1, 0, 0, 1, 501, 0}";
}
);
layerId = "C3E057B1-67D4-4FCF-93C0-B6D1362B390D";
paths = (
{
closed = 1;
nodes = (
"163 257 OFFCURVE",
"222 303 OFFCURVE",
"290 303 CURVE SMOOTH",
"334 303 OFFCURVE",
"378 288 OFFCURVE",
"418 265 CURVE",
"426 268 LINE",
"426 617 LINE",
"326 617 LINE",
"326 329 LINE",
"384 317 LINE",
"333 363 OFFCURVE",
"291 381 OFFCURVE",
"234 381 CURVE SMOOTH",
"126 381 OFFCURVE",
"79 283 OFFCURVE",
"56 283 CURVE SMOOTH",
"46 283 OFFCURVE",
"38 289 OFFCURVE",
"23 300 CURVE",
"9 292 LINE",
"88 224 OFFCURVE",
"110 206 OFFCURVE",
"134 180 CURVE"
);
},
{
closed = 1;
nodes = (
"335 58 OFFCURVE",
"372 72 OFFCURVE",
"399 98 CURVE",
"433 98 LINE",
"433 159 LINE SMOOTH",
"433 209 OFFCURVE",
"360 264 OFFCURVE",
"297 264 CURVE SMOOTH",
"254 264 OFFCURVE",
"221 228 OFFCURVE",
"203 199 CURVE",
"280 161 LINE",
"304 186 OFFCURVE",
"319 200 OFFCURVE",
"339 200 CURVE SMOOTH",
"347 200 OFFCURVE",
"354 194 OFFCURVE",
"354 186 CURVE SMOOTH",
"354 166 OFFCURVE",
"317 139 OFFCURVE",
"268 139 CURVE SMOOTH",
"186 139 OFFCURVE",
"136 174 OFFCURVE",
"102 250 CURVE",
"9 292 LINE",
"107 135 OFFCURVE",
"192 58 OFFCURVE",
"289 58 CURVE SMOOTH"
);
},
{
closed = 1;
nodes = (
"504 -35 LINE",
"445 -1 OFFCURVE",
"433 11 OFFCURVE",
"433 58 CURVE SMOOTH",
"433 131 LINE",
"338 131 LINE",
"338 28 LINE",
"377 3 OFFCURVE",
"440 -26 OFFCURVE",
"496 -51 CURVE"
);
},
{
closed = 1;
nodes = (
"105 378 LINE",
"156 412 OFFCURVE",
"200 427 OFFCURVE",
"258 427 CURVE SMOOTH",
"281 427 OFFCURVE",
"315 424 OFFCURVE",
"347 419 CURVE",
"350 458 LINE",
"308 481 OFFCURVE",
"241 503 OFFCURVE",
"178 503 CURVE SMOOTH",
"116 503 OFFCURVE",
"61 484 OFFCURVE",
"14 448 CURVE",
"96 377 LINE"
);
},
{
closed = 1;
nodes = (
"559 370 LINE",
"506 405 OFFCURVE",
"483 418 OFFCURVE",
"392 459 CURVE",
"390 406 LINE",
"472 377 OFFCURVE",
"501 365 OFFCURVE",
"571 325 CURVE"
);
},
{
closed = 1;
nodes = (
"248 549 OFFCURVE",
"340 559 OFFCURVE",
"374 564 CURVE",
"389 569 LINE",
"605 569 LINE",
"610 577 LINE",
"565 654 LINE",
"1 654 LINE",
"-5 644 LINE",
"16 583 OFFCURVE",
"86 549 OFFCURVE",
"186 549 CURVE SMOOTH"
);
},
{
closed = 1;
nodes = (
"601 213 LINE",
"601 455 LINE",
"510 493 LINE",
"501 488 LINE",
"501 213 LINE"
);
}
);
width = 656;
}
);
leftKerningGroup = LK_RaKa;
rightKerningGroup = RK_Danda;
script = devanagari;
category = Letter;
subCategory = Other;
},
{
color = 3;
glyphname = JaNya.rj;
lastChange = "2024-03-05 08:13:15 +0000";
layers = (
{
anchors = (
{
name = bottom;
position = "{287, 94}";
},
{
name = bottom2;
position = "{270, -2}";
},
{
name = bottom3;
position = "{258, 0}";
},
{
name = top1;
position = "{385, 646}";
},
{
name = top2;
position = "{301, 646}";
},
{
name = top_alt;
position = "{79, 610}";
}
);
components = (
{
name = _JaPre1;
transform = "{1, 0, 0, 1, -10, 0}";
}
);
layerId = "C3E057B1-67D4-4FCF-93C0-B6D1362B390D";
paths = (
{
closed = 1;
nodes = (
"465 -22 LINE",
"446 -12 LINE SMOOTH",
"390 17 OFFCURVE",
"379 32 OFFCURVE",
"379 103 CURVE SMOOTH",
"379 289 LINE",
"287 312 LINE",
"287 194 LINE SMOOTH",
"287 134 OFFCURVE",
"261 104 OFFCURVE",
"208 104 CURVE SMOOTH",
"163 104 OFFCURVE",
"122 118 OFFCURVE",
"72 141 CURVE",
"60 120 LINE",
"170 65 OFFCURVE",
"296 16 OFFCURVE",
"457 -40 CURVE"
);
},
{
closed = 1;
nodes = (
"194 146 OFFCURVE",
"216 161 OFFCURVE",
"216 191 CURVE SMOOTH",
"216 203 OFFCURVE",
"213 232 OFFCURVE",
"211 249 CURVE",
"183 216 LINE",
"242 212 OFFCURVE",
"275 199 OFFCURVE",
"306 174 CURVE",
"311 213 LINE",
"277 245 OFFCURVE",
"215 270 OFFCURVE",
"168 270 CURVE SMOOTH",
"121 270 OFFCURVE",
"88 250 OFFCURVE",
"88 215 CURVE SMOOTH",
"88 178 OFFCURVE",
"124 146 OFFCURVE",
"167 146 CURVE SMOOTH"
);
},
{
closed = 1;
nodes = (
"548 61 OFFCURVE",
"580 88 OFFCURVE",
"580 127 CURVE SMOOTH",
"580 172 OFFCURVE",
"526 222 OFFCURVE",
"476 222 CURVE SMOOTH",
"454 222 OFFCURVE",
"431 211 OFFCURVE",
"415 193 CURVE",
"469 141 LINE",
"482 153 OFFCURVE",
"498 161 OFFCURVE",
"508 161 CURVE SMOOTH",
"516 161 OFFCURVE",
"521 157 OFFCURVE",
"521 150 CURVE SMOOTH",
"521 133 OFFCURVE",
"499 119 OFFCURVE",
"472 119 CURVE SMOOTH",
"443 119 OFFCURVE",
"406 142 OFFCURVE",
"359 189 CURVE",
"355 156 LINE",
"397 96 OFFCURVE",
"451 61 OFFCURVE",
"511 61 CURVE SMOOTH"
);
},
{
closed = 1;
nodes = (
"587 234 LINE",
"542 263 OFFCURVE",
"539 275 OFFCURVE",
"539 316 CURVE SMOOTH",
"539 472 LINE",
"448 510 LINE",
"439 505 LINE",
"439 296 LINE",
"471 273 OFFCURVE",
"525 242 OFFCURVE",
"576 216 CURVE"
);
}
);
width = 607;
}
);
leftKerningGroup = LK_KaYa;
rightKerningGroup = RK_Gha;
script = devanagari;
category = Letter;
subCategory = Other;
},
{
color = 5;
glyphname = KaRa.rj;
lastChange = "2024-03-05 08:13:15 +0000";
layers = (
{
anchors = (
{
name = bottom;
position = "{303, 35}";
},
{
name = bottom2;
position = "{298, 46}";
},
{
name = bottom3;
position = "{254, 0}";
},
{
name = top;
position = "{79, 606}";
},
{
name = top1;
position = "{415, 646}";
},
{
name = top2;
position = "{325, 646}";
}
);
components = (
{
name = _Rakar1;
transform = "{1, 0, 0, 1, -4, 0}";
},
{
name = _terminal;
transform = "{1, 0, 0, 1, 493, 0}";
}
);
layerId = "C3E057B1-67D4-4FCF-93C0-B6D1362B390D";
paths = (
{
closed = 1;
nodes = (
"415 168 LINE",
"415 646 LINE",
"315 602 LINE",
"315 402 LINE",
"337 422 LINE",
"307 458 OFFCURVE",
"256 482 OFFCURVE",
"192 482 CURVE SMOOTH",
"91 482 OFFCURVE",
"31 431 OFFCURVE",
"31 346 CURVE SMOOTH",
"31 250 OFFCURVE",
"126 184 OFFCURVE",
"321 123 CURVE"
);
},
{
closed = 1;
nodes = (
"249 196 LINE",
"175 241 OFFCURVE",
"149 266 OFFCURVE",
"149 313 CURVE SMOOTH",
"149 364 OFFCURVE",
"180 394 OFFCURVE",
"249 394 CURVE SMOOTH",
"272 394 OFFCURVE",
"300 389 OFFCURVE",
"327 378 CURVE",
"319 402 LINE",
"319 283 LINE",
"362 312 LINE",
"334 320 OFFCURVE",
"317 322 OFFCURVE",
"299 322 CURVE SMOOTH",
"238 322 OFFCURVE",
"210 285 OFFCURVE",
"210 239 CURVE SMOOTH",
"210 221 OFFCURVE",
"214 204 OFFCURVE",
"224 182 CURVE"
);
},
{
closed = 1;
nodes = (
"543 336 LINE",
"484 376 OFFCURVE",
"449 402 OFFCURVE",
"362 440 CURVE",
"362 373 LINE",
"445 344 OFFCURVE",
"482 325 OFFCURVE",
"552 282 CURVE"
);
},
{
closed = 1;
nodes = (
"593 223 LINE",
"593 414 LINE",
"502 452 LINE",
"493 447 LINE",
"493 223 LINE"
);
},
{
closed = 1;
nodes = (
"328 542 OFFCURVE",
"499 558 OFFCURVE",
"610 576 CURVE",
"617 584 LINE",
"575 654 LINE",
"-4 654 LINE",
"-9 646 LINE",
"22 574 OFFCURVE",
"81 542 OFFCURVE",
"194 542 CURVE SMOOTH"
);
}
);
width = 648;
}
);
leftKerningGroup = LK_Ka;
leftMetricsKey = Ka.rj;
rightKerningGroup = RK_Danda;
rightMetricsKey = Ka.rj;
script = devanagari;
category = Letter;
subCategory = Other;
},
{
color = 5;
glyphname = KhaRa.rj;
lastChange = "2024-03-05 08:13:15 +0000";
layers = (
{
anchors = (
{
name = bottom3;
position = "{328, -10}";
},
{
name = top1;
position = "{533, 646}";
},
{
name = top2;
position = "{338, 646}";
}
);
layerId = "C3E057B1-67D4-4FCF-93C0-B6D1362B390D";
paths = (
{
closed = 1;
nodes = (
"462 -14 LINE",
"362 33 LINE SMOOTH",
"213 103 OFFCURVE",
"152 183 OFFCURVE",
"152 288 CURVE SMOOTH",
"152 370 OFFCURVE",
"217 422 OFFCURVE",
"302 422 CURVE SMOOTH",
"312 422 OFFCURVE",
"327 421 OFFCURVE",
"341 419 CURVE",
"333 459 LINE",
"292 474 OFFCURVE",
"244 484 OFFCURVE",
"210 484 CURVE SMOOTH",
"103 484 OFFCURVE",
"33 418 OFFCURVE",
"33 317 CURVE SMOOTH",
"33 242 OFFCURVE",
"74 175 OFFCURVE",
"164 118 CURVE",
"162 114 LINE",
"142 117 OFFCURVE",
"115 115 OFFCURVE",
"90 108 CURVE",
"88 97 LINE",
"162 43 LINE",
"180 47 OFFCURVE",
"190 48 OFFCURVE",
"210 48 CURVE SMOOTH",
"252 48 OFFCURVE",
"289 35 OFFCURVE",
"350 9 CURVE SMOOTH",
"453 -35 LINE"
);
},
{
closed = 1;
nodes = (
"633 -7 LINE",
"583 17 LINE SMOOTH",
"548 34 OFFCURVE",
"533 58 OFFCURVE",
"533 99 CURVE SMOOTH",
"533 176 LINE",
"446 184 LINE",
"446 140 OFFCURVE",
"427 123 OFFCURVE",
"380 123 CURVE SMOOTH",
"356 123 OFFCURVE",
"313 139 OFFCURVE",
"292 150 CURVE",
"282 128 LINE",
"376 82 OFFCURVE",
"574 -7 OFFCURVE",
"625 -26 CURVE"
);
},
{
closed = 1;
nodes = (
"440 188 LINE",
"366 203 OFFCURVE",
"331 230 OFFCURVE",
"331 260 CURVE SMOOTH",
"331 289 OFFCURVE",
"352 309 OFFCURVE",
"393 309 CURVE SMOOTH",
"411 309 OFFCURVE",
"438 304 OFFCURVE",
"457 296 CURVE",
"436 331 LINE",
"436 246 LINE",
"460 258 LINE",
"445 263 OFFCURVE",
"433 267 OFFCURVE",
"423 267 CURVE SMOOTH",
"393 267 OFFCURVE",
"368 247 OFFCURVE",
"368 214 CURVE SMOOTH",
"368 206 OFFCURVE",
"370 196 OFFCURVE",
"376 186 CURVE"
);
},
{
closed = 1;
nodes = (
"533 159 LINE",
"533 646 LINE",
"433 601 LINE",
"433 341 LINE",
"457 335 LINE",
"428 357 OFFCURVE",
"383 369 OFFCURVE",
"339 369 CURVE SMOOTH",
"279 369 OFFCURVE",
"237 334 OFFCURVE",
"237 285 CURVE SMOOTH",
"237 219 OFFCURVE",
"313 175 OFFCURVE",
"468 150 CURVE"
);
},
{
closed = 1;
nodes = (
"348 424 LINE",
"348 594 LINE",
"248 594 LINE",
"248 454 LINE",
"341 419 LINE"
);
},
{
closed = 1;
nodes = (
"227 555 OFFCURVE",
"290 561 OFFCURVE",
"330 568 CURVE",
"312 569 LINE",
"495 569 LINE",
"533 646 LINE",
"523 654 LINE",
"-4 654 LINE",
"-8 646 LINE",
"18 581 OFFCURVE",
"72 555 OFFCURVE",
"184 555 CURVE SMOOTH"
);
}
);
width = 589;
}
);
leftKerningGroup = LK_Ka;
leftMetricsKey = Kha.rj;
rightKerningGroup = RK_Danda;
rightMetricsKey = Kha.rj;
script = devanagari;
category = Letter;
subCategory = Other;
},
{
color = 5;
glyphname = GaRa.rj;
lastChange = "2024-03-05 09:53:24 +0000";
layers = (
{
anchors = (
{
name = bottom;
position = "{369, 33}";
},
{
name = bottom2;
position = "{367, 56}";
},
{
name = bottom3;
position = "{336, 9}";
},
{
name = top;
position = "{79, 579}";
},
{
name = top1;
position = "{484, 646}";
},
{
name = top2;
position = "{264, 646}";
}
);
components = (
{
name = _Rakar2;
}
);
layerId = "C3E057B1-67D4-4FCF-93C0-B6D1362B390D";
paths = (
{
closed = 1;
nodes = (
"257 221 OFFCURVE",
"284 259 OFFCURVE",
"284 336 CURVE SMOOTH",
"284 598 LINE",
"184 598 LINE",
"184 370 LINE",
"208 421 LINE",
"195 438 OFFCURVE",
"178 447 OFFCURVE",
"159 447 CURVE SMOOTH",
"93 447 OFFCURVE",
"102 355 OFFCURVE",
"63 355 CURVE SMOOTH",
"54 355 OFFCURVE",
"44 361 OFFCURVE",
"33 371 CURVE",
"17 358 LINE",
"72 266 OFFCURVE",
"123 221 OFFCURVE",
"198 221 CURVE SMOOTH"
);
},
{
closed = 1;
nodes = (
"202 529 OFFCURVE",
"240 544 OFFCURVE",
"254 580 CURVE",
"258 569 LINE",
"444 569 LINE",
"484 646 LINE",
"475 654 LINE",
"6 654 LINE",
"0 646 LINE",
"10 583 OFFCURVE",
"75 529 OFFCURVE",
"155 529 CURVE SMOOTH"
);
},
{
closed = 1;
nodes = (
"484 281 LINE",
"484 646 LINE",
"384 608 LINE",
"384 281 LINE"
);
}
);
width = 539;
}
);
leftKerningGroup = LK_Ga;
leftMetricsKey = Ga.rj;
rightKerningGroup = RK_Danda;
rightMetricsKey = matraA.rj;
script = devanagari;
category = Letter;
subCategory = Other;
},
{
color = 5;
glyphname = GhaRa.rj;
lastChange = "2024-03-05 08:13:15 +0000";
layers = (
{
anchors = (
{
name = bottom;
position = "{377, 5}";
},
{
name = bottom2;
position = "{379, 38}";
},
{
name = bottom3;
position = "{306, 9}";
},
{
name = top1;
position = "{487, 646}";
},
{
name = top2;
position = "{304, 646}";
},
{
name = top_alt;
position = "{86, 603}";
}
);
components = (
{
name = _Rakar3;
}
);
layerId = "C3E057B1-67D4-4FCF-93C0-B6D1362B390D";
paths = (
{
closed = 1;
nodes = (
"348 338 LINE SMOOTH",
"347 377 OFFCURVE",
"328 385 OFFCURVE",
"258 405 CURVE",
"251 397 LINE",
"262 389 OFFCURVE",
"266 384 OFFCURVE",
"266 377 CURVE SMOOTH",
"266 367 OFFCURVE",
"258 359 OFFCURVE",
"231 359 CURVE SMOOTH",
"196 359 OFFCURVE",
"160 378 OFFCURVE",
"103 425 CURVE",
"158 372 LINE",
"193 418 OFFCURVE",
"241 440 OFFCURVE",
"301 440 CURVE SMOOTH",
"360 440 OFFCURVE",
"409 430 OFFCURVE",
"523 366 CURVE",
"535 384 LINE",
"496 412 OFFCURVE",
"488 422 OFFCURVE",
"488 457 CURVE SMOOTH",
"487 646 LINE",
"387 633 LINE",
"391 451 LINE",
"405 464 LINE",
"365 498 OFFCURVE",
"306 521 OFFCURVE",
"248 521 CURVE SMOOTH",
"124 521 OFFCURVE",
"89 449 OFFCURVE",
"46 449 CURVE SMOOTH",
"37 449 OFFCURVE",
"31 452 OFFCURVE",
"17 460 CURVE",
"6 446 LINE",
"60 395 OFFCURVE",
"153 323 OFFCURVE",
"227 321 CURVE",
"349 291 LINE"
);
},
{
closed = 1;
nodes = (
"351 142 OFFCURVE",
"413 161 OFFCURVE",
"454 188 CURVE",
"397 275 LINE",
"367 248 OFFCURVE",
"276 223 OFFCURVE",
"196 227 CURVE SMOOTH",
"152 229 OFFCURVE",
"132 237 OFFCURVE",
"133 252 CURVE SMOOTH",
"135 272 OFFCURVE",
"180 287 OFFCURVE",
"279 287 CURVE SMOOTH",
"303 287 OFFCURVE",
"319 286 OFFCURVE",
"340 285 CURVE",
"349 291 LINE",
"268 346 LINE",
"252 347 OFFCURVE",
"227 349 OFFCURVE",
"209 351 CURVE",
"162 366 LINE",
"101 358 OFFCURVE",
"53 331 OFFCURVE",
"53 281 CURVE SMOOTH",
"53 222 OFFCURVE",
"159 150 OFFCURVE",
"267 144 CURVE SMOOTH"
);
},
{
closed = 1;
nodes = (
"488 200 LINE",
"488 316 LINE",
"398 358 LINE",
"388 353 LINE",
"388 200 LINE"
);
},
{
closed = 1;
nodes = (
"314 607 LINE",
"214 607 LINE",
"214 461 LINE",
"314 446 LINE"
);
},
{
closed = 1;
nodes = (
"206 564 OFFCURVE",
"266 576 OFFCURVE",
"289 593 CURVE",
"307 572 LINE",
"447 572 LINE",
"487 646 LINE",
"478 654 LINE",
"4 654 LINE",
"-1 646 LINE",
"20 588 OFFCURVE",
"72 564 OFFCURVE",
"145 564 CURVE SMOOTH"
);
}
);
width = 541;
}
);
leftKerningGroup = LK_Gha;
rightKerningGroup = RK_Gha;
script = devanagari;
category = Letter;
subCategory = Other;
},
{
color = 5;
glyphname = NgaRa.rj;
lastChange = "2024-03-05 08:13:15 +0000";
layers = (
{
anchors = (
{
name = bottom;
position = "{312, 45}";
},
{
name = bottom2;
position = "{314, 56}";
},
{
name = bottom3;
position = "{286, 29}";
},
{
name = top;
position = "{64, 597}";
},
{
name = top1;
position = "{501, 646}";
},
{
name = top2;
position = "{291, 646}";
}
);
layerId = "C3E057B1-67D4-4FCF-93C0-B6D1362B390D";
paths = (
{
closed = 1;
nodes = (
"234 209 LINE",
"273 251 OFFCURVE",
"303 274 OFFCURVE",
"334 274 CURVE SMOOTH",
"349 274 OFFCURVE",
"358 262 OFFCURVE",
"358 248 CURVE",
"448 239 LINE",
"448 295 OFFCURVE",
"355 358 OFFCURVE",
"295 358 CURVE SMOOTH",
"239 358 OFFCURVE",
"190 322 OFFCURVE",
"164 274 CURVE",
"205 263 LINE",
"99 352 LINE",
"127 309 LINE",
"157 377 OFFCURVE",
"217 406 OFFCURVE",
"282 406 CURVE SMOOTH",
"360 406 OFFCURVE",
"433 367 OFFCURVE",
"539 288 CURVE",
"553 304 LINE",
"514 340 OFFCURVE",
"501 359 OFFCURVE",
"501 398 CURVE SMOOTH",
"501 646 LINE",
"401 613 LINE",
"401 424 LINE",
"430 424 LINE",
"371 468 OFFCURVE",
"302 495 OFFCURVE",
"230 495 CURVE SMOOTH",
"131 495 OFFCURVE",
"61 439 OFFCURVE",
"36 380 CURVE SMOOTH",
"29 364 OFFCURVE",
"37 353 OFFCURVE",
"47 345 CURVE SMOOTH",
"95 304 OFFCURVE",
"170 246 OFFCURVE",
"224 207 CURVE"
);
},
{
closed = 1;
nodes = (
"547 -37 LINE",
"495 -8 LINE SMOOTH",
"456 14 OFFCURVE",
"448 37 OFFCURVE",
"448 68 CURVE SMOOTH",
"448 239 LINE",
"358 248 LINE",
"358 203 OFFCURVE",
"300 165 OFFCURVE",
"245 165 CURVE SMOOTH",
"192 165 OFFCURVE",
"134 189 OFFCURVE",
"41 249 CURVE",
"27 229 LINE",
"167 132 OFFCURVE",
"343 35 OFFCURVE",
"537 -55 CURVE"
);
},
{
closed = 1;
nodes = (
"331 613 LINE",
"231 613 LINE",
"231 443 LINE",
"331 420 LINE"
);
},
{
closed = 1;
nodes = (
"331 613 LINE",
"231 613 LINE",
"231 443 LINE",
"331 420 LINE"
);
},
{
closed = 1;
nodes = (
"222 549 OFFCURVE",
"292 565 OFFCURVE",
"319 584 CURVE",
"305 579 LINE",
"477 579 LINE",
"501 646 LINE",
"492 654 LINE",
"-5 654 LINE",
"-10 646 LINE",
"11 585 OFFCURVE",
"72 549 OFFCURVE",
"153 549 CURVE SMOOTH"
);
}
);
width = 560;
}
);
leftKerningGroup = LK_Dda;
rightKerningGroup = RK_Tta;
script = devanagari;
category = Letter;
subCategory = Other;
},
{
color = 5;
glyphname = CaRa.rj;
lastChange = "2024-03-05 08:13:15 +0000";
layers = (
{
anchors = (
{
name = bottom;
position = "{343, 35}";
},
{
name = bottom2;
position = "{338, 46}";
},
{
name = bottom3;
position = "{306, 9}";
},
{
name = top;
position = "{97, 597}";
},
{
name = top1;
position = "{455, 646}";
},
{
name = top2;
position = "{253, 646}";
}
);
components = (
{
name = _Rakar1;
transform = "{1, 0, 0, 1, 36, 0}";
}
);
layerId = "C3E057B1-67D4-4FCF-93C0-B6D1362B390D";
paths = (
{
closed = 1;
nodes = (
"328 165 OFFCURVE",
"370 173 OFFCURVE",
"397 191 CURVE",
"349 271 LINE",
"324 259 OFFCURVE",
"305 253 OFFCURVE",
"268 254 CURVE SMOOTH",
"199 255 OFFCURVE",
"160 266 OFFCURVE",
"142 310 CURVE",
"121 267 LINE",
"157 257 LINE",
"174 347 OFFCURVE",
"225 400 OFFCURVE",
"305 400 CURVE SMOOTH",
"348 400 OFFCURVE",
"391 385 OFFCURVE",
"443 361 CURVE",
"403 438 LINE",
"355 470 OFFCURVE",
"300 490 OFFCURVE",
"254 490 CURVE SMOOTH",
"114 490 OFFCURVE",
"94 373 OFFCURVE",
"62 373 CURVE SMOOTH",
"53 373 OFFCURVE",
"42 378 OFFCURVE",
"27 395 CURVE",
"10 382 LINE",
"95 240 OFFCURVE",
"178 165 OFFCURVE",
"294 165 CURVE SMOOTH"
);
},
{
closed = 1;
nodes = (
"385 221 LINE",
"406 330 LINE",
"378 339 OFFCURVE",
"358 342 OFFCURVE",
"341 342 CURVE SMOOTH",
"280 342 OFFCURVE",
"239 301 OFFCURVE",
"239 247 CURVE SMOOTH",
"239 232 OFFCURVE",
"249 221 OFFCURVE",
"254 208 CURVE"
);
},
{
closed = 1;
nodes = (
"455 166 LINE",
"455 646 LINE",
"355 618 LINE",
"355 166 LINE"
);
},
{
closed = 1;
nodes = (
"294 542 OFFCURVE",
"344 557 OFFCURVE",
"398 569 CURVE",
"455 646 LINE",
"446 654 LINE",
"15 654 LINE",
"10 646 LINE",
"41 580 OFFCURVE",
"99 542 OFFCURVE",
"203 542 CURVE SMOOTH"
);
}
);
width = 511;
}
);
leftKerningGroup = LK_Ka;
rightKerningGroup = RK_Danda;
rightMetricsKey = matraA.rj;
script = devanagari;
category = Letter;
subCategory = Other;
},
{
color = 5;
glyphname = ChaRa.rj;
lastChange = "2024-03-05 08:13:15 +0000";
layers = (
{
anchors = (
{
name = bottom;
position = "{366, 5}";
},
{
name = bottom2;
position = "{368, 38}";
},
{
name = bottom3;
position = "{306, 9}";
},
{
name = top;
position = "{101, 609}";
},
{
name = top1;
position = "{477, 646}";
},
{
name = top2;
position = "{284, 646}";
}
);
components = (
{
name = _Rakar3;
transform = "{1, 0, 0, 1, -11, 0}";
}
);
layerId = "C3E057B1-67D4-4FCF-93C0-B6D1362B390D";
paths = (
{
closed = 1;
nodes = (
"477 162 LINE",
"477 646 LINE",
"379 589 LINE",
"379 317 LINE",
"396 320 LINE",
"370 336 OFFCURVE",
"334 346 OFFCURVE",
"298 346 CURVE SMOOTH",
"234 346 OFFCURVE",
"181 310 OFFCURVE",
"181 266 CURVE SMOOTH",
"181 205 OFFCURVE",
"239 163 OFFCURVE",
"385 119 CURVE"
);
},
{
closed = 1;
nodes = (
"201 173 OFFCURVE",
"234 180 OFFCURVE",
"265 195 CURVE",
"252 230 LINE",
"227 221 OFFCURVE",
"206 217 OFFCURVE",
"189 217 CURVE SMOOTH",
"149 217 OFFCURVE",
"126 233 OFFCURVE",
"126 261 CURVE SMOOTH",
"126 294 OFFCURVE",
"153 317 OFFCURVE",
"190 317 CURVE",
"149 383 LINE",
"81 383 OFFCURVE",
"33 339 OFFCURVE",
"33 277 CURVE SMOOTH",
"33 216 OFFCURVE",
"87 173 OFFCURVE",
"164 173 CURVE SMOOTH"
);
},
{
closed = 1;
nodes = (
"369 166 LINE",
"308 182 OFFCURVE",
"283 200 OFFCURVE",
"283 238 CURVE SMOOTH",
"283 268 OFFCURVE",
"309 290 OFFCURVE",
"352 290 CURVE SMOOTH",
"373 290 OFFCURVE",
"389 286 OFFCURVE",
"412 278 CURVE",
"382 305 LINE",
"382 216 LINE",
"416 235 LINE",
"399 241 OFFCURVE",
"383 245 OFFCURVE",
"370 245 CURVE SMOOTH",
"339 245 OFFCURVE",
"317 224 OFFCURVE",
"317 194 CURVE SMOOTH",
"317 185 OFFCURVE",
"319 174 OFFCURVE",
"325 162 CURVE"
);
},
{
closed = 1;
nodes = (
"267 290 LINE",
"232 311 OFFCURVE",
"179 351 OFFCURVE",
"138 388 CURVE",
"181 333 LINE",
"190 392 OFFCURVE",
"240 434 OFFCURVE",
"301 434 CURVE SMOOTH",
"330 434 OFFCURVE",
"358 425 OFFCURVE",
"388 408 CURVE",
"401 456 LINE",
"353 495 OFFCURVE",
"301 514 OFFCURVE",
"245 514 CURVE SMOOTH",
"136 514 OFFCURVE",
"109 423 OFFCURVE",
"73 423 CURVE SMOOTH",
"67 423 OFFCURVE",
"57 426 OFFCURVE",
"38 438 CURVE",
"21 420 LINE",
"102 350 OFFCURVE",
"186 293 OFFCURVE",
"253 255 CURVE"
);
},
{
closed = 1;
nodes = (
"371 302 LINE",
"403 363 LINE",
"390 376 OFFCURVE",
"354 389 OFFCURVE",
"326 389 CURVE SMOOTH",
"271 389 OFFCURVE",
"232 349 OFFCURVE",
"232 292 CURVE"
);
},
{
closed = 1;
nodes = (
"272 564 OFFCURVE",
"381 576 OFFCURVE",
"414 589 CURVE",
"477 646 LINE",
"468 654 LINE",
"6 654 LINE",
"2 646 LINE",
"22 585 OFFCURVE",
"85 564 OFFCURVE",
"181 564 CURVE SMOOTH"
);
}
);
width = 530;
}
);
leftKerningGroup = LK_Tha;
leftMetricsKey = Cha.rj;
rightKerningGroup = RK_Danda;
rightMetricsKey = matraA.rj;
script = devanagari;
category = Letter;
subCategory = Other;
},
{
color = 5;
glyphname = JaRa.rj;
lastChange = "2024-03-05 08:13:15 +0000";
layers = (
{
anchors = (
{
name = bottom;
position = "{327, 45}";
},
{
name = bottom2;
position = "{323, 56}";
},
{
name = bottom3;
position = "{296, 29}";
},
{
name = top;
position = "{79, 597}";
},
{
name = top1;
position = "{460, 646}";
},
{
name = top2;
position = "{341, 646}";
}
);
components = (
{
name = _terminal;
transform = "{1, 0, 0, 1, 532, -20}";
}
);
layerId = "C3E057B1-67D4-4FCF-93C0-B6D1362B390D";
paths = (
{
closed = 1;
nodes = (
"556 -37 LINE",
"504 -8 LINE SMOOTH",
"465 14 OFFCURVE",
"457 37 OFFCURVE",
"457 68 CURVE SMOOTH",
"457 239 LINE",
"367 248 LINE",
"367 203 OFFCURVE",
"309 165 OFFCURVE",
"254 165 CURVE SMOOTH",
"201 165 OFFCURVE",
"143 189 OFFCURVE",
"50 249 CURVE",
"36 229 LINE",
"176 132 OFFCURVE",
"352 35 OFFCURVE",
"546 -55 CURVE"
);
},
{
closed = 1;
nodes = (
"243 209 LINE",
"279 248 OFFCURVE",
"311 274 OFFCURVE",
"343 274 CURVE SMOOTH",
"358 274 OFFCURVE",
"367 262 OFFCURVE",
"367 248 CURVE",
"457 239 LINE",
"457 295 OFFCURVE",
"364 358 OFFCURVE",
"304 358 CURVE SMOOTH",
"252 358 OFFCURVE",
"207 322 OFFCURVE",
"179 274 CURVE",
"214 263 LINE",
"114 350 LINE",
"142 309 LINE",
"172 377 OFFCURVE",
"232 406 OFFCURVE",
"297 406 CURVE SMOOTH",
"377 406 OFFCURVE",
"457 369 OFFCURVE",
"551 301 CURVE",
"548 366 LINE",
"514 399 OFFCURVE",
"462 438 OFFCURVE",
"417 462 CURVE",
"389 469 LINE",
"344 487 OFFCURVE",
"297 497 OFFCURVE",
"255 497 CURVE SMOOTH",
"141 497 OFFCURVE",
"76 436 OFFCURVE",
"51 376 CURVE SMOOTH",
"44 360 OFFCURVE",
"52 349 OFFCURVE",
"62 341 CURVE SMOOTH",
"110 300 OFFCURVE",
"179 248 OFFCURVE",
"233 207 CURVE"
);
},
{
closed = 1;
nodes = (
"632 193 LINE",
"632 425 LINE",
"541 463 LINE",
"532 458 LINE",
"532 193 LINE"
);
},
{
closed = 1;
nodes = (
"460 608 LINE",
"360 608 LINE",
"360 443 LINE",
"460 400 LINE"
);
},
{
closed = 1;
nodes = (
"335 549 OFFCURVE",
"524 566 OFFCURVE",
"635 576 CURVE",
"642 584 LINE",
"600 654 LINE",
"2 654 LINE",
"-3 646 LINE",
"28 579 OFFCURVE",
"88 549 OFFCURVE",
"201 549 CURVE SMOOTH"
);
}
);
width = 682;
}
);
leftKerningGroup = LK_Dda;
rightKerningGroup = RK_Danda;
script = devanagari;
category = Letter;
subCategory = Other;
},
{
color = 5;
glyphname = JhaRa.rj;
lastChange = "2024-03-05 08:13:15 +0000";
layers = (
{
anchors = (
{
name = bottom;
position = "{247, 73}";
},
{
name = bottom2;
position = "{224, 78}";
},
{
name = bottom3;
position = "{196, 39}";
},
{
name = top;
position = "{80, 576}";
},
{
name = top1;
position = "{532, 646}";
},
{
name = top2;
position = "{294, 646}";
}
);
layerId = "C3E057B1-67D4-4FCF-93C0-B6D1362B390D";
paths = (
{
closed = 1;
nodes = (
"347 186 LINE",
"347 638 LINE",
"247 598 LINE",
"247 404 LINE",
"292 444 LINE",
"274 461 OFFCURVE",
"255 470 OFFCURVE",
"223 470 CURVE SMOOTH",
"99 470 OFFCURVE",
"117 341 OFFCURVE",
"62 341 CURVE SMOOTH",
"51 341 OFFCURVE",
"31 348 OFFCURVE",
"16 356 CURVE",
"4 336 LINE",
"124 260 OFFCURVE",
"198 226 OFFCURVE",
"310 176 CURVE"
);
},
{
closed = 1;
nodes = (
"447 -9 LINE",
"395 19 LINE SMOOTH",
"361 37 OFFCURVE",
"347 58 OFFCURVE",
"347 99 CURVE SMOOTH",
"347 292 LINE",
"247 292 LINE",
"247 198 LINE SMOOTH",
"247 155 OFFCURVE",
"221 138 OFFCURVE",
"183 136 CURVE SMOOTH",
"144 135 OFFCURVE",
"108 148 OFFCURVE",
"33 176 CURVE",
"23 155 LINE",
"149 95 OFFCURVE",
"283 34 OFFCURVE",
"437 -27 CURVE"
);
},
{
closed = 1;
nodes = (
"564 177 LINE",
"535 200 OFFCURVE",
"532 203 OFFCURVE",
"532 240 CURVE SMOOTH",
"532 646 LINE",
"432 608 LINE",
"432 249 LINE",
"478 243 LINE",
"421 277 OFFCURVE",
"369 312 OFFCURVE",
"319 344 CURVE",
"306 291 LINE",
"364 260 OFFCURVE",
"451 215 OFFCURVE",
"553 161 CURVE"
);
},
{
closed = 1;
nodes = (
"200 531 OFFCURVE",
"288 544 OFFCURVE",
"302 580 CURVE",
"273 569 LINE",
"492 569 LINE",
"532 646 LINE",
"523 654 LINE",
"1 654 LINE",
"-4 646 LINE",
"12 582 OFFCURVE",
"73 531 OFFCURVE",
"153 531 CURVE SMOOTH"
);
}
);
width = 587;
}
);
leftKerningGroup = LK_KaJha;
rightKerningGroup = RK_Pha;
script = devanagari;
category = Letter;
subCategory = Other;
},
{
color = 5;
glyphname = NyaRa.rj;
lastChange = "2024-03-05 08:13:15 +0000";
layers = (
{
anchors = (
{
name = bottom;
position = "{270, 65}";
},
{
name = bottom2;
position = "{265, 76}";
},
{
name = bottom3;
position = "{216, 39}";
},
{
name = top;
position = "{89, 604}";
},
{
name = top1;
position = "{567, 646}";
},
{
name = top2;
position = "{339, 646}";
}
);
components = (
{
name = _Rakar1;
transform = "{1, 0, 0, 1, -37, 30}";
}
);
layerId = "C3E057B1-67D4-4FCF-93C0-B6D1362B390D";
paths = (
{
closed = 1;
nodes = (
"339 191 OFFCURVE",
"377 231 OFFCURVE",
"381 329 CURVE",
"355 317 LINE",
"382 297 LINE",
"382 615 LINE",
"287 615 LINE",
"287 381 LINE SMOOTH",
"287 305 OFFCURVE",
"251 268 OFFCURVE",
"178 268 CURVE SMOOTH",
"134 268 OFFCURVE",
"91 281 OFFCURVE",
"26 312 CURVE",
"16 295 LINE",
"107 236 OFFCURVE",
"184 191 OFFCURVE",
"249 191 CURVE SMOOTH"
);
},
{
closed = 1;
nodes = (
"174 340 OFFCURVE",
"193 358 OFFCURVE",
"193 400 CURVE SMOOTH",
"193 414 OFFCURVE",
"190 447 OFFCURVE",
"187 466 CURVE",
"161 425 LINE",
"210 422 OFFCURVE",
"264 411 OFFCURVE",
"313 367 CURVE",
"319 416 LINE",
"263 470 OFFCURVE",
"189 494 OFFCURVE",
"134 494 CURVE SMOOTH",
"79 494 OFFCURVE",
"41 463 OFFCURVE",
"41 418 CURVE SMOOTH",
"41 375 OFFCURVE",
"89 340 OFFCURVE",
"138 340 CURVE SMOOTH"
);
},
{
closed = 1;
nodes = (
"599 177 LINE",
"570 200 OFFCURVE",
"567 203 OFFCURVE",
"567 240 CURVE SMOOTH",
"567 646 LINE",
"467 608 LINE",
"467 249 LINE",
"513 243 LINE",
"456 277 OFFCURVE",
"404 312 OFFCURVE",
"354 344 CURVE",
"341 291 LINE",
"399 260 OFFCURVE",
"486 215 OFFCURVE",
"588 161 CURVE"
);
},
{
closed = 1;
nodes = (
"233 548 OFFCURVE",
"273 553 OFFCURVE",
"333 566 CURVE SMOOTH",
"344 569 LINE",
"526 569 LINE",
"567 646 LINE",
"560 654 LINE",
"12 654 LINE",
"8 646 LINE",
"32 582 OFFCURVE",
"69 548 OFFCURVE",
"185 548 CURVE SMOOTH"
);
}
);
width = 622;
}
);
leftKerningGroup = LK_vowelA;
rightKerningGroup = RK_Pha;
script = devanagari;
category = Letter;
subCategory = Other;
},
{
color = 5;
glyphname = TtaRa.rj;
lastChange = "2024-03-05 08:13:15 +0000";
layers = (
{
anchors = (
{
name = bottom;
position = "{302, -31}";
},
{
name = bottom2;
position = "{246, 67}";
},
{
name = bottom3;
position = "{216, 49}";
},
{
name = top;
position = "{90, 593}";
},
{
name = top1;
position = "{513, 646}";
},
{
name = top2;
position = "{304, 646}";
}
);
layerId = "C3E057B1-67D4-4FCF-93C0-B6D1362B390D";
paths = (
{
closed = 1;
nodes = (
"301 239 LINE",
"283 249 LINE",
"237 285 OFFCURVE",
"175 335 OFFCURVE",
"149 355 CURVE",
"133 326 LINE",
"175 305 LINE",
"205 369 OFFCURVE",
"255 400 OFFCURVE",
"326 400 CURVE SMOOTH",
"392 400 OFFCURVE",
"456 369 OFFCURVE",
"550 291 CURVE",
"564 307 LINE",
"531 340 OFFCURVE",
"513 367 OFFCURVE",
"513 401 CURVE SMOOTH",
"513 646 LINE",
"413 634 LINE",
"413 407 LINE",
"423 432 LINE",
"367 482 OFFCURVE",
"321 499 OFFCURVE",
"268 499 CURVE SMOOTH",
"132 499 OFFCURVE",
"106 398 OFFCURVE",
"60 398 CURVE SMOOTH",
"49 398 OFFCURVE",
"35 405 OFFCURVE",
"18 417 CURVE",
"6 402 LINE",
"79 339 OFFCURVE",
"185 267 OFFCURVE",
"287 196 CURVE",
"337 172 LINE"
);
},
{
closed = 1;
nodes = (
"463 -17 LINE",
"407 16 LINE SMOOTH",
"374 36 OFFCURVE",
"362 54 OFFCURVE",
"362 95 CURVE SMOOTH",
"362 260 LINE",
"262 260 LINE",
"262 239 LINE SMOOTH",
"262 203 OFFCURVE",
"250 164 OFFCURVE",
"199 164 CURVE SMOOTH",
"165 164 OFFCURVE",
"120 183 OFFCURVE",
"43 229 CURVE",
"31 211 LINE",
"135 139 OFFCURVE",
"302 39 OFFCURVE",
"453 -37 CURVE"
);
},
{
closed = 1;
nodes = (
"362 236 OFFCURVE",
"383 261 OFFCURVE",
"419 261 CURVE SMOOTH",
"438 261 OFFCURVE",
"459 251 OFFCURVE",
"484 230 CURVE",
"496 245 LINE",
"434 306 OFFCURVE",
"391 330 OFFCURVE",
"345 330 CURVE SMOOTH",
"301 330 OFFCURVE",
"262 301 OFFCURVE",
"246 252 CURVE",
"362 193 LINE"
);
},
{
closed = 1;
nodes = (
"340 635 LINE",
"240 635 LINE",
"240 445 LINE",
"340 438 LINE"
);
},
{
closed = 1;
nodes = (
"217 548 OFFCURVE",
"275 562 OFFCURVE",
"296 578 CURVE",
"304 569 LINE",
"478 569 LINE",
"513 646 LINE",
"504 654 LINE",
"6 654 LINE",
"0 644 LINE",
"22 584 OFFCURVE",
"79 548 OFFCURVE",
"167 548 CURVE SMOOTH"
);
}
);
width = 574;
}
);
leftKerningGroup = LK_Tta;
rightKerningGroup = RK_Tta;
script = devanagari;
category = Letter;
subCategory = Other;
},
{
color = 5;
glyphname = TthaRa.rj;
lastChange = "2024-03-05 08:13:15 +0000";
layers = (
{
anchors = (
{
name = bottom;
position = "{337, 33}";
},
{
name = bottom2;
position = "{335, 56}";
},
{
name = bottom3;
position = "{269, 29}";
},
{
name = top1;
position = "{331, 646}";
},
{
name = top2;
position = "{259, 646}";
}
);
components = (
{
name = _Rakar2;
transform = "{1, 0, 0, 1, -32, 0}";
}
);
layerId = "C3E057B1-67D4-4FCF-93C0-B6D1362B390D";
paths = (
{
closed = 1;
nodes = (
"334 221 LINE",
"270 232 LINE",
"184 269 OFFCURVE",
"162 295 OFFCURVE",
"162 363 CURVE SMOOTH",
"162 423 OFFCURVE",
"204 458 OFFCURVE",
"274 458 CURVE SMOOTH",
"293 458 OFFCURVE",
"322 453 OFFCURVE",
"337 450 CURVE",
"315 488 LINE",
"264 513 LINE",
"121 539 OFFCURVE",
"37 490 OFFCURVE",
"37 380 CURVE SMOOTH",
"37 284 OFFCURVE",
"141 212 OFFCURVE",
"354 162 CURVE"
);
},
{
closed = 1;
nodes = (
"421 197 OFFCURVE",
"452 237 OFFCURVE",
"452 305 CURVE SMOOTH",
"452 347 LINE SMOOTH",
"452 408 OFFCURVE",
"416 456 OFFCURVE",
"303 508 CURVE",
"271 461 LINE",
"318 451 OFFCURVE",
"344 433 OFFCURVE",
"344 383 CURVE SMOOTH",
"344 346 LINE SMOOTH",
"344 280 OFFCURVE",
"308 236 OFFCURVE",
"224 222 CURVE",
"361 173 LINE"
);
},
{
closed = 1;
nodes = (
"331 601 LINE",
"231 601 LINE",
"231 485 LINE",
"331 457 LINE"
);
},
{
closed = 1;
nodes = (
"266 563 OFFCURVE",
"384 573 OFFCURVE",
"466 585 CURVE",
"471 593 LINE",
"439 654 LINE",
"5 654 LINE",
"0 646 LINE",
"18 586 OFFCURVE",
"86 563 OFFCURVE",
"203 563 CURVE SMOOTH"
);
}
);
width = 501;
}
);
leftKerningGroup = LK_Ka;
rightKerningGroup = RK_Danda;
script = devanagari;
category = Letter;
subCategory = Other;
},
{
color = 5;
glyphname = DdaRa.rj;
lastChange = "2024-03-05 08:13:15 +0000";
layers = (
{
anchors = (
{
name = bottom;
position = "{316, 45}";
},
{
name = bottom2;
position = "{322, 56}";
},
{
name = bottom3;
position = "{286, 29}";
},
{
name = top;
position = "{68, 597}";
},
{
name = top1;
position = "{449, 646}";
},
{
name = top2;
position = "{272, 646}";
}
);
layerId = "C3E057B1-67D4-4FCF-93C0-B6D1362B390D";
paths = (
{
closed = 1;
nodes = (
"555 -37 LINE",
"503 -8 LINE SMOOTH",
"464 14 OFFCURVE",
"456 37 OFFCURVE",
"456 68 CURVE SMOOTH",
"456 234 LINE",
"366 245 LINE",
"366 205 OFFCURVE",
"309 164 OFFCURVE",
"251 164 CURVE SMOOTH",
"189 164 OFFCURVE",
"135 187 OFFCURVE",
"39 249 CURVE",
"25 229 LINE",
"165 132 OFFCURVE",
"353 35 OFFCURVE",
"545 -55 CURVE"
);
},
{
closed = 1;
nodes = (
"240 204 LINE",
"273 242 OFFCURVE",
"314 269 OFFCURVE",
"339 269 CURVE SMOOTH",
"355 269 OFFCURVE",
"366 259 OFFCURVE",
"366 245 CURVE",
"456 234 LINE",
"456 290 OFFCURVE",
"363 353 OFFCURVE",
"303 353 CURVE SMOOTH",
"243 353 OFFCURVE",
"200 319 OFFCURVE",
"173 274 CURVE",
"205 267 LINE",
"103 355 LINE",
"131 309 LINE",
"159 377 OFFCURVE",
"219 406 OFFCURVE",
"286 406 CURVE SMOOTH",
"336 406 OFFCURVE",
"386 391 OFFCURVE",
"440 364 CURVE",
"449 368 LINE",
"371 459 LINE",
"331 483 OFFCURVE",
"285 497 OFFCURVE",
"240 497 CURVE SMOOTH",
"128 497 OFFCURVE",
"65 436 OFFCURVE",
"40 376 CURVE SMOOTH",
"33 360 OFFCURVE",
"41 349 OFFCURVE",
"51 341 CURVE SMOOTH",
"100 299 OFFCURVE",
"174 243 OFFCURVE",
"230 202 CURVE"
);
},
{
closed = 1;
nodes = (
"223 549 OFFCURVE",
"328 560 OFFCURVE",
"361 574 CURVE",
"449 646 LINE",
"441 654 LINE",
"-5 654 LINE",
"-10 646 LINE",
"11 585 OFFCURVE",
"72 549 OFFCURVE",
"163 549 CURVE SMOOTH"
);
},
{
closed = 1;
nodes = (
"449 646 LINE",
"349 618 LINE",
"349 411 LINE",
"449 368 LINE"
);
}
);
width = 504;
}
);
leftKerningGroup = LK_Dda;
rightKerningGroup = RK_Danda;
script = devanagari;
category = Letter;
subCategory = Other;
},
{
color = 5;
glyphname = DdhaRa.rj;
lastChange = "2024-03-05 08:13:15 +0000";
layers = (
{
anchors = (
{
name = bottom;
position = "{367, 5}";
},
{
name = bottom2;
position = "{369, 38}";
},
{
name = bottom3;
position = "{296, 9}";
},
{
name = top;
position = "{87, 607}";
},
{
name = top1;
position = "{508, 646}";
},
{
name = top2;
position = "{279, 646}";
}
);
components = (
{
name = _Rakar3;
transform = "{1, 0, 0, 1, -10, 0}";
}
);
layerId = "C3E057B1-67D4-4FCF-93C0-B6D1362B390D";
paths = (
{
closed = 1;
nodes = (
"377 143 OFFCURVE",
"416 156 OFFCURVE",
"477 188 CURVE",
"477 248 LINE SMOOTH",
"477 311 OFFCURVE",
"397 370 OFFCURVE",
"336 370 CURVE SMOOTH",
"286 370 OFFCURVE",
"247 346 OFFCURVE",
"220 296 CURVE",
"304 258 LINE",
"332 289 OFFCURVE",
"353 304 OFFCURVE",
"371 304 CURVE SMOOTH",
"381 304 OFFCURVE",
"388 298 OFFCURVE",
"388 290 CURVE SMOOTH",
"388 255 OFFCURVE",
"342 230 OFFCURVE",
"296 230 CURVE SMOOTH",
"223 230 OFFCURVE",
"172 264 OFFCURVE",
"129 336 CURVE",
"118 298 LINE",
"131 260 LINE",
"163 364 OFFCURVE",
"238 421 OFFCURVE",
"330 421 CURVE SMOOTH",
"392 421 OFFCURVE",
"457 374 OFFCURVE",
"545 311 CURVE",
"559 327 LINE",
"518 364 OFFCURVE",
"508 382 OFFCURVE",
"508 421 CURVE SMOOTH",
"508 646 LINE",
"408 607 LINE",
"408 410 LINE",
"427 441 LINE",
"375 489 OFFCURVE",
"320 511 OFFCURVE",
"258 511 CURVE SMOOTH",
"149 511 OFFCURVE",
"88 405 OFFCURVE",
"52 405 CURVE SMOOTH",
"44 405 OFFCURVE",
"35 410 OFFCURVE",
"16 426 CURVE",
"2 415 LINE",
"113 230 OFFCURVE",
"219 143 OFFCURVE",
"324 143 CURVE SMOOTH"
);
},
{
closed = 1;
nodes = (
"335 635 LINE",
"235 635 LINE",
"235 445 LINE",
"335 438 LINE"
);
},
{
closed = 1;
nodes = (
"212 558 OFFCURVE",
"266 569 OFFCURVE",
"291 578 CURVE",
"299 569 LINE",
"473 569 LINE",
"508 646 LINE",
"499 654 LINE",
"1 654 LINE",
"-5 644 LINE",
"17 590 OFFCURVE",
"74 558 OFFCURVE",
"162 558 CURVE SMOOTH"
);
}
);
width = 581;
}
);
leftKerningGroup = LK_Tta;
rightKerningGroup = RK_Tta;
script = devanagari;
category = Letter;
subCategory = Other;
},
{
color = 5;
glyphname = NnaRa.rj;
lastChange = "2024-03-05 08:13:15 +0000";
layers = (
{
anchors = (
{
name = bottom;
position = "{429, 49}";
},
{
name = bottom3;
position = "{600, -20}";
},
{
name = top;
position = "{102, 604}";
},
{
name = top1;
position = "{595, 646}";
},
{
name = top2;
position = "{328, 646}";
}
);
layerId = "C3E057B1-67D4-4FCF-93C0-B6D1362B390D";
paths = (
{
closed = 1;
nodes = (
"446 -3 LINE",
"310 71 LINE SMOOTH",
"195 133 OFFCURVE",
"144 185 OFFCURVE",
"144 252 CURVE SMOOTH",
"144 316 OFFCURVE",
"189 361 OFFCURVE",
"253 361 CURVE SMOOTH",
"274 361 OFFCURVE",
"299 355 OFFCURVE",
"337 340 CURVE",
"344 373 LINE",
"302 428 OFFCURVE",
"258 450 OFFCURVE",
"189 450 CURVE SMOOTH",
"94 450 OFFCURVE",
"26 386 OFFCURVE",
"26 296 CURVE SMOOTH",
"26 203 OFFCURVE",
"97 134 OFFCURVE",
"263 55 CURVE SMOOTH",
"432 -26 LINE"
);
},
{
closed = 1;
nodes = (
"395 182 OFFCURVE",
"407 193 OFFCURVE",
"407 216 CURVE",
"349 331 LINE",
"290 331 OFFCURVE",
"240 299 OFFCURVE",
"240 261 CURVE SMOOTH",
"240 219 OFFCURVE",
"299 182 OFFCURVE",
"370 182 CURVE SMOOTH"
);
},
{
closed = 1;
nodes = (
"694 -8 LINE",
"643 19 LINE SMOOTH",
"607 38 OFFCURVE",
"595 64 OFFCURVE",
"595 105 CURVE SMOOTH",
"595 281 LINE",
"495 281 LINE",
"495 236 LINE SMOOTH",
"495 160 OFFCURVE",
"466 129 OFFCURVE",
"392 129 CURVE SMOOTH",
"373 129 OFFCURVE",
"349 134 OFFCURVE",
"321 143 CURVE",
"312 123 LINE",
"415 78 OFFCURVE",
"547 25 OFFCURVE",
"686 -26 CURVE"
);
},
{
closed = 1;
nodes = (
"407 604 LINE",
"307 604 LINE",
"307 287 LINE",
"407 216 LINE"
);
},
{
closed = 1;
nodes = (
"229 540 OFFCURVE",
"300 548 OFFCURVE",
"335 567 CURVE",
"336 569 LINE",
"539 569 LINE",
"595 646 LINE",
"588 654 LINE",
"4 654 LINE",
"0 646 LINE",
"27 582 OFFCURVE",
"77 540 OFFCURVE",
"187 540 CURVE SMOOTH"
);
},
{
closed = 1;
nodes = (
"595 203 LINE",
"595 646 LINE",
"495 604 LINE",
"495 203 LINE"
);
}
);
width = 650;
}
);
leftKerningGroup = LK_Ka;
leftMetricsKey = Nna.rj;
rightKerningGroup = RK_Danda;
rightMetricsKey = Nna.rj;
script = devanagari;
category = Letter;
subCategory = Other;
},
{
color = 5;
glyphname = TaRa.rj;
lastChange = "2024-03-05 09:53:24 +0000";
layers = (
{
anchors = (
{
name = bottom2;
position = "{359, 36}";
},
{
name = bottom3;
position = "{478, -23}";
},
{
name = top;
position = "{94, 584}";
},
{
name = top1;
position = "{434, 646}";
},
{
name = top2;
position = "{237, 646}";
}
);
layerId = "C3E057B1-67D4-4FCF-93C0-B6D1362B390D";
paths = (
{
closed = 1;
nodes = (
"354 -8 LINE",
"237 76 OFFCURVE",
"156 147 OFFCURVE",
"98 230 CURVE",
"102 166 LINE",
"172 166 OFFCURVE",
"206 213 OFFCURVE",
"206 272 CURVE SMOOTH",
"206 286 OFFCURVE",
"205 291 OFFCURVE",
"205 305 CURVE SMOOTH",
"205 351 OFFCURVE",
"232 375 OFFCURVE",
"277 375 CURVE SMOOTH",
"311 375 OFFCURVE",
"330 366 OFFCURVE",
"377 329 CURVE",
"374 378 LINE",
"333 430 OFFCURVE",
"273 456 OFFCURVE",
"198 456 CURVE SMOOTH",
"96 456 OFFCURVE",
"30 394 OFFCURVE",
"30 300 CURVE SMOOTH",
"30 194 OFFCURVE",
"126 97 OFFCURVE",
"341 -27 CURVE"
);
},
{
closed = 1;
nodes = (
"410 72 LINE",
"410 256 LINE",
"384 294 LINE",
"366 300 OFFCURVE",
"347 302 OFFCURVE",
"335 302 CURVE SMOOTH",
"300 302 OFFCURVE",
"282 287 OFFCURVE",
"281 241 CURVE SMOOTH",
"280 205 OFFCURVE",
"277 190 OFFCURVE",
"258 190 CURVE SMOOTH",
"250 190 OFFCURVE",
"243 194 OFFCURVE",
"231 201 CURVE",
"218 184 LINE",
"267 141 OFFCURVE",
"420 30 OFFCURVE",
"524 -26 CURVE"
);
},
{
closed = 1;
nodes = (
"534 -9 LINE",
"479 30 LINE SMOOTH",
"444 55 OFFCURVE",
"434 67 OFFCURVE",
"434 107 CURVE SMOOTH",
"434 236 LINE",
"367 236 LINE",
"367 87 LINE",
"524 -26 LINE"
);
},
{
closed = 1;
nodes = (
"265 536 OFFCURVE",
"337 548 OFFCURVE",
"393 573 CURVE",
"434 646 LINE",
"425 654 LINE",
"-4 654 LINE",
"-9 646 LINE",
"18 572 OFFCURVE",
"78 536 OFFCURVE",
"174 536 CURVE SMOOTH"
);
},
{
closed = 1;
nodes = (
"434 203 LINE",
"434 646 LINE",
"334 618 LINE",
"334 395 LINE",
"339 376 LINE",
"339 203 LINE"
);
}
);
width = 489;
}
);
leftKerningGroup = LK_Ka;
rightKerningGroup = RK_Danda;
script = devanagari;
category = Letter;
subCategory = Other;
},
{
color = 5;
glyphname = ThaRa.rj;
lastChange = "2024-03-05 08:28:36 +0000";
layers = (
{
anchors = (
{
name = bottom;
position = "{337, 25}";
},
{
name = bottom2;
position = "{324, 38}";
},
{
name = bottom3;
position = "{244, 9}";
},
{
name = top1;
position = "{433, 646}";
},
{
name = top2;
position = "{224, 646}";
}
);
components = (
{
name = _Rakar3;
transform = "{1, 0, 0, 1, -55, 0}";
}
);
layerId = "C3E057B1-67D4-4FCF-93C0-B6D1362B390D";
paths = (
{
closed = 1;
nodes = (
"433 146 LINE",
"433 646 LINE",
"333 603 LINE",
"333 331 LINE",
"361 331 LINE",
"321 362 OFFCURVE",
"261 382 OFFCURVE",
"204 382 CURVE SMOOTH",
"177 382 OFFCURVE",
"150 381 OFFCURVE",
"129 372 CURVE SMOOTH",
"100 362 LINE",
"71 346 OFFCURVE",
"51 321 OFFCURVE",
"51 281 CURVE SMOOTH",
"51 197 OFFCURVE",
"131 159 OFFCURVE",
"339 112 CURVE"
);
},
{
closed = 1;
nodes = (
"262 171 LINE",
"192 195 OFFCURVE",
"164 219 OFFCURVE",
"164 256 CURVE SMOOTH",
"164 298 OFFCURVE",
"193 322 OFFCURVE",
"244 322 CURVE SMOOTH",
"272 322 OFFCURVE",
"309 318 OFFCURVE",
"347 305 CURVE",
"338 331 LINE",
"338 223 LINE",
"361 256 LINE",
"346 264 OFFCURVE",
"323 267 OFFCURVE",
"306 267 CURVE SMOOTH",
"260 267 OFFCURVE",
"228 238 OFFCURVE",
"230 196 CURVE SMOOTH",
"231 176 OFFCURVE",
"239 156 OFFCURVE",
"252 144 CURVE"
);
},
{
closed = 1;
nodes = (
"312 251 LINE",
"259 272 OFFCURVE",
"218 293 OFFCURVE",
"178 331 CURVE",
"146 299 LINE",
"193 270 OFFCURVE",
"246 246 OFFCURVE",
"301 230 CURVE"
);
},
{
closed = 1;
nodes = (
"171 339 LINE",
"158 354 OFFCURVE",
"153 368 OFFCURVE",
"153 381 CURVE SMOOTH",
"153 416 OFFCURVE",
"176 442 OFFCURVE",
"231 442 CURVE SMOOTH",
"270 442 OFFCURVE",
"322 426 OFFCURVE",
"349 401 CURVE",
"357 443 LINE",
"317 486 OFFCURVE",
"248 513 OFFCURVE",
"176 513 CURVE SMOOTH",
"87 513 OFFCURVE",
"40 481 OFFCURVE",
"40 423 CURVE SMOOTH",
"40 371 OFFCURVE",
"78 344 OFFCURVE",
"152 319 CURVE"
);
},
{
closed = 1;
nodes = (
"260 557 OFFCURVE",
"332 567 OFFCURVE",
"386 587 CURVE",
"433 646 LINE",
"424 654 LINE",
"6 654 LINE",
"1 646 LINE",
"35 586 OFFCURVE",
"105 557 OFFCURVE",
"194 557 CURVE SMOOTH"
);
}
);
width = 486;
}
);
leftKerningGroup = LK_Tha;
rightKerningGroup = RK_Danda;
rightMetricsKey = matraA.rj;
script = devanagari;
category = Letter;
subCategory = Other;
},
{
color = 5;
glyphname = DaRa.rj;
lastChange = "2024-03-05 08:13:15 +0000";
layers = (
{
anchors = (
{
name = bottom;
position = "{381, 5}";
},
{
name = bottom2;
position = "{383, 38}";
},
{
name = bottom3;
position = "{314, 9}";
},
{
name = top;
position = "{114, 606}";
},
{
name = top1;
position = "{480, 646}";
},
{
name = top2;
position = "{263, 646}";
}
);
components = (
{
name = _Rakar3;
transform = "{1, 0, 0, 1, 4, 0}";
}
);
layerId = "C3E057B1-67D4-4FCF-93C0-B6D1362B390D";
paths = (
{
closed = 1;
nodes = (
"391 143 OFFCURVE",
"430 156 OFFCURVE",
"491 188 CURVE",
"491 248 LINE SMOOTH",
"491 311 OFFCURVE",
"411 370 OFFCURVE",
"350 370 CURVE SMOOTH",
"300 370 OFFCURVE",
"261 346 OFFCURVE",
"234 296 CURVE",
"318 258 LINE",
"346 289 OFFCURVE",
"367 304 OFFCURVE",
"385 304 CURVE SMOOTH",
"395 304 OFFCURVE",
"402 298 OFFCURVE",
"402 290 CURVE SMOOTH",
"402 255 OFFCURVE",
"351 230 OFFCURVE",
"300 230 CURVE SMOOTH",
"231 230 OFFCURVE",
"163 274 OFFCURVE",
"143 336 CURVE",
"132 298 LINE",
"145 260 LINE",
"177 364 OFFCURVE",
"252 421 OFFCURVE",
"344 421 CURVE SMOOTH",
"382 421 OFFCURVE",
"424 409 OFFCURVE",
"472 383 CURVE",
"480 388 LINE",
"480 646 LINE",
"380 607 LINE",
"380 450 LINE",
"441 430 LINE",
"389 482 OFFCURVE",
"334 508 OFFCURVE",
"272 508 CURVE SMOOTH",
"163 508 OFFCURVE",
"102 405 OFFCURVE",
"66 405 CURVE SMOOTH",
"58 405 OFFCURVE",
"49 410 OFFCURVE",
"30 426 CURVE",
"16 415 LINE",
"107 240 OFFCURVE",
"233 143 OFFCURVE",
"338 143 CURVE SMOOTH"
);
},
{
closed = 1;
nodes = (
"285 560 OFFCURVE",
"376 570 OFFCURVE",
"425 590 CURVE",
"480 646 LINE",
"470 654 LINE",
"4 654 LINE",
"0 646 LINE",
"22 600 OFFCURVE",
"97 560 OFFCURVE",
"187 560 CURVE SMOOTH"
);
}
);
width = 545;
}
);
leftKerningGroup = LK_Tta;
rightKerningGroup = RK_Danda;
rightMetricsKey = matraA.rj;
script = devanagari;
category = Letter;
subCategory = Other;
},
{
color = 5;
glyphname = DhaRa.rj;
lastChange = "2024-03-05 08:13:15 +0000";
layers = (
{
anchors = (
{
name = bottom;
position = "{312, 35}";
},
{
name = bottom2;
position = "{307, 46}";
},
{
name = bottom3;
position = "{274, 9}";
},
{
name = top1;
position = "{424, 646}";
},
{
name = top2;
position = "{254, 646}";
}
);
components = (
{
name = _Rakar1;
transform = "{1, 0, 0, 1, 5, 0}";
}
);
layerId = "C3E057B1-67D4-4FCF-93C0-B6D1362B390D";
paths = (
{
closed = 1;
nodes = (
"424 167 LINE",
"424 654 LINE",
"324 654 LINE",
"324 396 LINE",
"348 439 LINE",
"197 471 LINE",
"92 471 OFFCURVE",
"30 424 OFFCURVE",
"30 340 CURVE SMOOTH",
"30 246 OFFCURVE",
"131 177 OFFCURVE",
"330 126 CURVE"
);
},
{
closed = 1;
nodes = (
"258 195 LINE",
"184 228 OFFCURVE",
"148 266 OFFCURVE",
"148 313 CURVE SMOOTH",
"148 366 OFFCURVE",
"189 398 OFFCURVE",
"258 398 CURVE SMOOTH",
"281 398 OFFCURVE",
"309 392 OFFCURVE",
"336 381 CURVE",
"329 406 LINE",
"329 284 LINE",
"371 314 LINE",
"343 322 OFFCURVE",
"326 324 OFFCURVE",
"308 324 CURVE SMOOTH",
"247 324 OFFCURVE",
"219 286 OFFCURVE",
"219 239 CURVE SMOOTH",
"219 221 OFFCURVE",
"223 203 OFFCURVE",
"233 181 CURVE"
);
},
{
closed = 1;
nodes = (
"364 446 LINE",
"234 477 OFFCURVE",
"163 522 OFFCURVE",
"163 596 CURVE SMOOTH",
"163 622 OFFCURVE",
"164 631 OFFCURVE",
"170 654 CURVE",
"42 654 LINE",
"36 640 OFFCURVE",
"35 627 OFFCURVE",
"35 612 CURVE SMOOTH",
"35 519 OFFCURVE",
"131 462 OFFCURVE",
"324 431 CURVE"
);
}
);
width = 480;
}
);
leftKerningGroup = LK_Ka;
rightKerningGroup = RK_Danda;
rightMetricsKey = matraA.rj;
script = devanagari;
category = Letter;
subCategory = Other;
},
{
color = 5;
glyphname = NaRa.rj;
lastChange = "2024-03-05 08:13:15 +0000";
layers = (
{
anchors = (
{
name = bottom;
position = "{332, 33}";
},
{
name = bottom2;
position = "{330, 56}";
},
{
name = bottom3;
position = "{304, 9}";
},
{
name = top;
position = "{105, 588}";
},
{
name = top1;
position = "{447, 646}";
},
{
name = top2;
position = "{249, 646}";
}
);
components = (
{
name = _Rakar2;
transform = "{1, 0, 0, 1, -37, 0}";
}
);
layerId = "C3E057B1-67D4-4FCF-93C0-B6D1362B390D";
paths = (
{
closed = 1;
nodes = (
"231 218 OFFCURVE",
"256 243 OFFCURVE",
"256 294 CURVE SMOOTH",
"256 409 LINE",
"234 359 LINE",
"281 354 OFFCURVE",
"328 335 OFFCURVE",
"373 301 CURVE",
"382 348 LINE",
"320 416 OFFCURVE",
"260 450 OFFCURVE",
"170 450 CURVE SMOOTH",
"101 450 OFFCURVE",
"45 405 OFFCURVE",
"45 342 CURVE SMOOTH",
"45 270 OFFCURVE",
"112 218 OFFCURVE",
"182 218 CURVE SMOOTH"
);
},
{
closed = 1;
nodes = (
"269 529 OFFCURVE",
"345 540 OFFCURVE",
"404 566 CURVE",
"447 646 LINE",
"438 654 LINE",
"10 654 LINE",
"5 646 LINE",
"33 567 OFFCURVE",
"93 529 OFFCURVE",
"186 529 CURVE SMOOTH"
);
},
{
closed = 1;
nodes = (
"447 209 LINE",
"447 646 LINE",
"347 594 LINE",
"347 209 LINE"
);
}
);
width = 502;
}
);
leftKerningGroup = LK_Na;
rightKerningGroup = RK_Danda;
rightMetricsKey = matraA.rj;
script = devanagari;
category = Letter;
subCategory = Other;
},
{
color = 5;
glyphname = PaRa.rj;
lastChange = "2024-03-05 08:13:15 +0000";
layers = (
{
anchors = (
{
name = bottom;
position = "{350, 35}";
},
{
name = bottom2;
position = "{345, 46}";
},
{
name = bottom3;
position = "{284, 9}";
},
{
name = top;
position = "{79, 614}";
},
{
name = top1;
position = "{462, 646}";
},
{
name = top2;
position = "{274, 646}";
}
);
components = (
{
name = _Rakar1;
transform = "{1, 0, 0, 1, 43, 0}";
}
);
layerId = "C3E057B1-67D4-4FCF-93C0-B6D1362B390D";
paths = (
{
closed = 1;
nodes = (
"462 162 LINE",
"462 646 LINE",
"362 608 LINE",
"362 232 LINE",
"397 315 LINE",
"367 331 OFFCURVE",
"341 336 OFFCURVE",
"314 336 CURVE SMOOTH",
"258 336 OFFCURVE",
"225 301 OFFCURVE",
"225 249 CURVE SMOOTH",
"225 227 OFFCURVE",
"229 216 OFFCURVE",
"239 200 CURVE",
"311 201 LINE",
"190 238 OFFCURVE",
"141 274 OFFCURVE",
"141 327 CURVE SMOOTH",
"141 377 OFFCURVE",
"177 402 OFFCURVE",
"238 402 CURVE SMOOTH",
"247 402 OFFCURVE",
"259 401 OFFCURVE",
"269 399 CURVE",
"277 406 LINE",
"277 610 LINE",
"177 610 LINE",
"177 433 LINE",
"253 444 LINE",
"218 466 OFFCURVE",
"183 477 OFFCURVE",
"150 477 CURVE SMOOTH",
"74 477 OFFCURVE",
"20 431 OFFCURVE",
"20 359 CURVE SMOOTH",
"20 260 OFFCURVE",
"106 206 OFFCURVE",
"373 135 CURVE"
);
},
{
closed = 1;
nodes = (
"191 550 OFFCURVE",
"245 567 OFFCURVE",
"265 581 CURVE",
"194 569 LINE",
"419 569 LINE",
"462 646 LINE",
"453 654 LINE",
"5 654 LINE",
"0 646 LINE",
"10 586 OFFCURVE",
"64 550 OFFCURVE",
"146 550 CURVE SMOOTH"
);
}
);
width = 518;
}
);
leftKerningGroup = LK_Ka;
rightKerningGroup = RK_Danda;
rightMetricsKey = matraA.rj;
script = devanagari;
category = Letter;
subCategory = Other;
},
{
color = 5;
glyphname = PhaRa.rj;
lastChange = "2024-03-05 08:13:15 +0000";
layers = (
{
anchors = (
{
name = bottom;
position = "{350, 35}";
},
{
name = bottom2;
position = "{345, 46}";
},
{
name = top;
position = "{79, 614}";
},
{
name = top1;
position = "{652, 646}";
},
{
name = top2;
position = "{371, 646}";
}
);
components = (
{
name = PaRa.rj;
}
);
layerId = "C3E057B1-67D4-4FCF-93C0-B6D1362B390D";
paths = (
{
closed = 1;
nodes = (
"704 117 LINE",
"659 150 OFFCURVE",
"652 167 OFFCURVE",
"652 210 CURVE SMOOTH",
"652 646 LINE",
"552 639 LINE",
"552 210 LINE",
"563 232 LINE",
"520 260 OFFCURVE",
"464 309 OFFCURVE",
"438 332 CURVE",
"419 271 LINE",
"509 210 OFFCURVE",
"579 170 OFFCURVE",
"692 100 CURVE"
);
},
{
closed = 1;
nodes = (
"623 569 LINE",
"652 646 LINE",
"644 654 LINE",
"415 654 LINE",
"415 569 LINE"
);
}
);
width = 704;
}
);
leftKerningGroup = LK_Ka;
rightKerningGroup = RK_Pha;
rightMetricsKey = Pha.rj;
script = devanagari;
category = Letter;
subCategory = Other;
},
{
color = 5;
glyphname = BaRa.rj;
lastChange = "2024-03-05 08:13:15 +0000";
layers = (
{
anchors = (
{
name = bottom;
position = "{317, 35}";
},
{
name = bottom2;
position = "{312, 46}";
},
{
name = bottom3;
position = "{258, 0}";
},
{
name = top;
position = "{79, 606}";
},
{
name = top1;
position = "{429, 646}";
},
{
name = top2;
position = "{239, 646}";
}
);
components = (
{
name = _Rakar1;
transform = "{1, 0, 0, 1, 10, 0}";
}
);
layerId = "C3E057B1-67D4-4FCF-93C0-B6D1362B390D";
paths = (
{
closed = 1;
nodes = (
"429 168 LINE",
"429 646 LINE",
"329 602 LINE",
"329 402 LINE",
"351 422 LINE",
"321 458 OFFCURVE",
"266 482 OFFCURVE",
"202 482 CURVE SMOOTH",
"97 482 OFFCURVE",
"35 431 OFFCURVE",
"35 345 CURVE SMOOTH",
"35 249 OFFCURVE",
"136 178 OFFCURVE",
"335 126 CURVE"
);
},
{
closed = 1;
nodes = (
"263 196 LINE",
"189 228 OFFCURVE",
"153 265 OFFCURVE",
"153 311 CURVE SMOOTH",
"153 363 OFFCURVE",
"194 394 OFFCURVE",
"263 394 CURVE SMOOTH",
"286 394 OFFCURVE",
"314 389 OFFCURVE",
"341 378 CURVE",
"333 402 LINE",
"333 283 LINE",
"376 312 LINE",
"348 320 OFFCURVE",
"331 322 OFFCURVE",
"313 322 CURVE SMOOTH",
"252 322 OFFCURVE",
"224 285 OFFCURVE",
"224 239 CURVE SMOOTH",
"224 221 OFFCURVE",
"228 204 OFFCURVE",
"238 182 CURVE"
);
},
{
closed = 1;
nodes = (
"281 542 OFFCURVE",
"314 550 OFFCURVE",
"382 571 CURVE",
"429 646 LINE",
"420 654 LINE",
"-3 654 LINE",
"-9 646 LINE",
"21 576 OFFCURVE",
"90 542 OFFCURVE",
"188 542 CURVE SMOOTH"
);
}
);
width = 485;
}
);
leftKerningGroup = LK_Ka;
leftMetricsKey = Ba.rj;
rightKerningGroup = RK_Danda;
rightMetricsKey = matraA.rj;
script = devanagari;
category = Letter;
subCategory = Other;
},
{
color = 5;
glyphname = BhaRa.rj;
lastChange = "2024-03-05 08:13:15 +0000";
layers = (
{
anchors = (
{
name = bottom;
position = "{294, 49}";
},
{
name = bottom2;
position = "{371, 42}";
},
{
name = bottom3;
position = "{498, -23}";
},
{
name = top;
position = "{112, 579}";
},
{
name = top1;
position = "{460, 646}";
},
{
name = top2;
position = "{264, 646}";
}
);
layerId = "C3E057B1-67D4-4FCF-93C0-B6D1362B390D";
paths = (
{
closed = 1;
nodes = (
"372 -5 LINE",
"277 71 OFFCURVE",
"183 182 OFFCURVE",
"121 259 CURVE",
"157 181 LINE",
"212 200 OFFCURVE",
"228 237 OFFCURVE",
"236 307 CURVE SMOOTH",
"243 367 OFFCURVE",
"270 387 OFFCURVE",
"310 387 CURVE SMOOTH",
"333 387 OFFCURVE",
"358 370 OFFCURVE",
"380 341 CURVE",
"375 418 LINE",
"333 457 OFFCURVE",
"292 474 OFFCURVE",
"257 474 CURVE SMOOTH",
"117 474 OFFCURVE",
"127 327 OFFCURVE",
"51 327 CURVE SMOOTH",
"43 327 OFFCURVE",
"29 333 OFFCURVE",
"17 343 CURVE",
"0 326 LINE",
"73 221 OFFCURVE",
"197 91 OFFCURVE",
"355 -26 CURVE"
);
},
{
closed = 1;
nodes = (
"560 -9 LINE",
"505 31 LINE SMOOTH",
"470 56 OFFCURVE",
"460 68 OFFCURVE",
"460 108 CURVE SMOOTH",
"460 236 LINE",
"410 294 LINE",
"392 300 OFFCURVE",
"373 302 OFFCURVE",
"361 302 CURVE SMOOTH",
"326 302 OFFCURVE",
"308 287 OFFCURVE",
"307 241 CURVE SMOOTH",
"306 205 OFFCURVE",
"303 190 OFFCURVE",
"284 190 CURVE SMOOTH",
"276 190 OFFCURVE",
"269 194 OFFCURVE",
"257 201 CURVE",
"244 184 LINE",
"273 151 OFFCURVE",
"446 30 OFFCURVE",
"550 -26 CURVE"
);
},
{
closed = 1;
nodes = (
"295 536 OFFCURVE",
"363 548 OFFCURVE",
"419 573 CURVE",
"460 646 LINE",
"451 654 LINE",
"16 654 LINE",
"11 646 LINE",
"38 572 OFFCURVE",
"98 536 OFFCURVE",
"204 536 CURVE SMOOTH"
);
},
{
closed = 1;
nodes = (
"460 203 LINE",
"460 646 LINE",
"365 618 LINE",
"365 203 LINE"
);
}
);
width = 515;
}
);
leftKerningGroup = LK_Bha;
rightKerningGroup = RK_Danda;
script = devanagari;
category = Letter;
subCategory = Other;
},
{
color = 5;
glyphname = MaRa.rj;
lastChange = "2024-03-05 08:13:15 +0000";
layers = (
{
anchors = (
{
name = bottom;
position = "{328, 33}";
},
{
name = bottom2;
position = "{326, 56}";
},
{
name = bottom3;
position = "{318, 9}";
},
{
name = top;
position = "{79, 586}";
},
{
name = top1;
position = "{443, 646}";
},
{
name = top2;
position = "{259, 646}";
}
);
components = (
{
name = _Rakar2;
transform = "{1, 0, 0, 1, -41, 0}";
}
);
layerId = "C3E057B1-67D4-4FCF-93C0-B6D1362B390D";
paths = (
{
closed = 1;
nodes = (
"186 539 OFFCURVE",
"236 556 OFFCURVE",
"246 582 CURVE",
"221 569 LINE",
"409 569 LINE",
"443 646 LINE",
"434 654 LINE",
"5 654 LINE",
"0 646 LINE",
"17 575 OFFCURVE",
"65 539 OFFCURVE",
"139 539 CURVE SMOOTH"
);
},
{
closed = 1;
nodes = (
"223 219 OFFCURVE",
"246 238 OFFCURVE",
"246 277 CURVE SMOOTH",
"246 399 LINE",
"158 444 LINE",
"77 444 OFFCURVE",
"28 407 OFFCURVE",
"28 344 CURVE SMOOTH",
"28 276 OFFCURVE",
"97 219 OFFCURVE",
"179 219 CURVE SMOOTH"
);
},
{
closed = 1;
nodes = (
"374 318 LINE",
"339 364 OFFCURVE",
"275 416 OFFCURVE",
"215 431 CURVE",
"215 337 LINE",
"265 334 OFFCURVE",
"319 315 OFFCURVE",
"367 279 CURVE"
);
},
{
closed = 1;
nodes = (
"244 371 LINE",
"244 620 LINE",
"144 620 LINE",
"144 371 LINE"
);
},
{
closed = 1;
nodes = (
"443 646 LINE",
"343 604 LINE",
"343 219 LINE",
"443 209 LINE"
);
}
);
width = 498;
}
);
leftKerningGroup = LK_Na;
leftMetricsKey = Ma.rj;
rightKerningGroup = RK_Danda;
rightMetricsKey = matraA.rj;
script = devanagari;
category = Letter;
subCategory = Other;
},
{
color = 5;
glyphname = YaRa.rj;
lastChange = "2024-03-05 08:13:15 +0000";
layers = (
{
anchors = (
{
name = bottom;
position = "{381, 33}";
},
{
name = bottom2;
position = "{379, 56}";
},
{
name = bottom3;
position = "{378, 9}";
},
{
name = top;
position = "{74, 608}";
},
{
name = top1;
position = "{496, 646}";
},
{
name = top2;
position = "{279, 646}";
}
);
components = (
{
name = _Rakar2;
transform = "{1, 0, 0, 1, 12, 0}";
}
);
layerId = "C3E057B1-67D4-4FCF-93C0-B6D1362B390D";
paths = (
{
closed = 1;
nodes = (
"258 194 LINE",
"276 228 OFFCURVE",
"301 247 OFFCURVE",
"334 247 CURVE SMOOTH",
"363 247 OFFCURVE",
"390 235 OFFCURVE",
"419 206 CURVE",
"429 249 LINE",
"395 306 OFFCURVE",
"337 339 OFFCURVE",
"272 339 CURVE SMOOTH",
"232 339 OFFCURVE",
"187 313 OFFCURVE",
"175 253 CURVE",
"235 256 LINE",
"182 283 OFFCURVE",
"148 305 OFFCURVE",
"85 348 CURVE",
"123 285 LINE",
"132 362 OFFCURVE",
"179 399 OFFCURVE",
"248 399 CURVE SMOOTH",
"261 399 OFFCURVE",
"278 396 OFFCURVE",
"299 391 CURVE",
"306 396 LINE",
"301 421 LINE",
"261 455 OFFCURVE",
"217 478 OFFCURVE",
"176 478 CURVE SMOOTH",
"77 478 OFFCURVE",
"17 425 OFFCURVE",
"13 334 CURVE",
"16 329 LINE",
"70 295 OFFCURVE",
"149 244 OFFCURVE",
"246 191 CURVE"
);
},
{
closed = 1;
nodes = (
"306 633 LINE",
"206 633 LINE",
"206 426 LINE",
"306 396 LINE"
);
},
{
closed = 1;
nodes = (
"216 547 OFFCURVE",
"255 557 OFFCURVE",
"276 566 CURVE",
"277 569 LINE",
"456 569 LINE",
"496 646 LINE",
"487 654 LINE",
"9 654 LINE",
"5 646 LINE",
"24 574 OFFCURVE",
"80 547 OFFCURVE",
"176 547 CURVE SMOOTH"
);
},
{
closed = 1;
nodes = (
"496 179 LINE",
"496 646 LINE",
"396 594 LINE",
"396 179 LINE"
);
}
);
width = 551;
}
);
leftKerningGroup = LK_Ka;
rightKerningGroup = RK_Danda;
rightMetricsKey = matraA.rj;
script = devanagari;
category = Letter;
subCategory = Other;
},
{
color = 5;
glyphname = LaRa.rj;
lastChange = "2024-03-05 08:13:15 +0000";
layers = (
{
anchors = (
{
name = bottom;
position = "{405, 49}";
},
{
name = bottom3;
position = "{562, -16}";
},
{
name = top;
position = "{97, 594}";
},
{
name = top1;
position = "{571, 646}";
},
{
name = top2;
position = "{306, 646}";
}
);
layerId = "C3E057B1-67D4-4FCF-93C0-B6D1362B390D";
paths = (
{
closed = 1;
nodes = (
"446 -5 LINE",
"314 61 LINE SMOOTH",
"201 118 OFFCURVE",
"145 178 OFFCURVE",
"145 243 CURVE SMOOTH",
"145 308 OFFCURVE",
"186 347 OFFCURVE",
"255 347 CURVE SMOOTH",
"276 347 OFFCURVE",
"301 341 OFFCURVE",
"339 326 CURVE",
"346 352 LINE",
"306 405 OFFCURVE",
"260 437 OFFCURVE",
"193 437 CURVE SMOOTH",
"89 437 OFFCURVE",
"27 382 OFFCURVE",
"27 289 CURVE SMOOTH",
"27 188 OFFCURVE",
"96 118 OFFCURVE",
"270 44 CURVE SMOOTH",
"435 -26 LINE"
);
},
{
closed = 1;
nodes = (
"670 -8 LINE",
"619 19 LINE SMOOTH",
"583 38 OFFCURVE",
"571 64 OFFCURVE",
"571 105 CURVE SMOOTH",
"571 281 LINE",
"471 281 LINE",
"471 236 LINE SMOOTH",
"471 160 OFFCURVE",
"442 129 OFFCURVE",
"368 129 CURVE SMOOTH",
"349 129 OFFCURVE",
"325 134 OFFCURVE",
"297 143 CURVE",
"288 123 LINE",
"391 78 OFFCURVE",
"523 25 OFFCURVE",
"662 -26 CURVE"
);
},
{
closed = 1;
nodes = (
"377 175 OFFCURVE",
"386 183 OFFCURVE",
"386 206 CURVE SMOOTH",
"386 389 LINE",
"355 365 LINE",
"395 355 OFFCURVE",
"447 337 OFFCURVE",
"486 318 CURVE",
"502 362 LINE",
"463 397 OFFCURVE",
"401 436 OFFCURVE",
"305 473 CURVE",
"291 464 LINE",
"291 254 LINE",
"326 305 LINE",
"271 305 OFFCURVE",
"232 276 OFFCURVE",
"232 246 CURVE SMOOTH",
"232 207 OFFCURVE",
"287 175 OFFCURVE",
"353 175 CURVE SMOOTH"
);
},
{
closed = 1;
nodes = (
"314 529 OFFCURVE",
"459 542 OFFCURVE",
"537 564 CURVE",
"571 646 LINE",
"562 654 LINE",
"4 654 LINE",
"0 646 LINE",
"25 572 OFFCURVE",
"99 529 OFFCURVE",
"229 529 CURVE SMOOTH"
);
},
{
closed = 1;
nodes = (
"571 203 LINE",
"571 646 LINE",
"471 618 LINE",
"471 203 LINE"
);
}
);
width = 626;
}
);
leftKerningGroup = LK_Ka;
leftMetricsKey = La.rj;
rightKerningGroup = RK_Danda;
rightMetricsKey = matraA.rj;
script = devanagari;
category = Letter;
subCategory = Other;
},
{
color = 5;
glyphname = VaRa.rj;
lastChange = "2024-03-05 08:13:15 +0000";
layers = (
{
anchors = (
{
name = bottom;
position = "{317, 35}";
},
{
name = bottom2;
position = "{312, 46}";
},
{
name = bottom3;
position = "{258, 0}";
},
{
name = top;
position = "{79, 606}";
},
{
name = top1;
position = "{429, 646}";
},
{
name = top2;
position = "{239, 646}";
}
);
components = (
{
name = _Rakar1;
transform = "{1, 0, 0, 1, 10, 0}";
}
);
layerId = "C3E057B1-67D4-4FCF-93C0-B6D1362B390D";
paths = (
{
closed = 1;
nodes = (
"429 168 LINE",
"429 646 LINE",
"329 602 LINE",
"329 402 LINE",
"351 422 LINE",
"321 458 OFFCURVE",
"266 482 OFFCURVE",
"202 482 CURVE SMOOTH",
"97 482 OFFCURVE",
"35 431 OFFCURVE",
"35 345 CURVE SMOOTH",
"35 249 OFFCURVE",
"136 178 OFFCURVE",
"335 126 CURVE"
);
},
{
closed = 1;
nodes = (
"362 283 OFFCURVE",
"331 312 OFFCURVE",
"234 323 CURVE",
"229 307 LINE",
"250 295 OFFCURVE",
"265 275 OFFCURVE",
"265 257 CURVE SMOOTH",
"265 236 OFFCURVE",
"253 223 OFFCURVE",
"233 223 CURVE SMOOTH",
"190 223 OFFCURVE",
"153 263 OFFCURVE",
"153 311 CURVE SMOOTH",
"153 363 OFFCURVE",
"194 394 OFFCURVE",
"264 394 CURVE SMOOTH",
"288 394 OFFCURVE",
"314 389 OFFCURVE",
"341 378 CURVE",
"333 408 LINE",
"333 222 LINE",
"362 206 LINE"
);
},
{
closed = 1;
nodes = (
"281 542 OFFCURVE",
"314 550 OFFCURVE",
"382 571 CURVE",
"429 646 LINE",
"420 654 LINE",
"-3 654 LINE",
"-9 646 LINE",
"21 576 OFFCURVE",
"90 542 OFFCURVE",
"188 542 CURVE SMOOTH"
);
}
);
width = 485;
}
);
leftKerningGroup = LK_Ka;
leftMetricsKey = Va.rj;
rightKerningGroup = RK_Danda;
rightMetricsKey = matraA.rj;
script = devanagari;
category = Letter;
subCategory = Other;
},
{
color = 5;
glyphname = ShaRa.rj;
lastChange = "2024-03-05 08:13:15 +0000";
layers = (
{
anchors = (
{
name = bottom;
position = "{440, 49}";
},
{
name = bottom2;
position = "{366, 40}";
},
{
name = bottom3;
position = "{388, 6}";
},
{
name = top;
position = "{87, 604}";
},
{
name = top1;
position = "{452, 646}";
},
{
name = top2;
position = "{256, 646}";
}
);
layerId = "C3E057B1-67D4-4FCF-93C0-B6D1362B390D";
paths = (
{
closed = 1;
nodes = (
"362 -6 LINE",
"248 65 OFFCURVE",
"194 112 OFFCURVE",
"126 176 CURVE",
"174 101 LINE",
"220 119 OFFCURVE",
"234 138 OFFCURVE",
"241 198 CURVE SMOOTH",
"247 244 OFFCURVE",
"264 275 OFFCURVE",
"303 275 CURVE SMOOTH",
"333 275 OFFCURVE",
"357 256 OFFCURVE",
"373 225 CURVE",
"368 298 LINE",
"326 334 OFFCURVE",
"295 347 OFFCURVE",
"258 347 CURVE SMOOTH",
"132 347 OFFCURVE",
"142 209 OFFCURVE",
"78 209 CURVE SMOOTH",
"66 209 OFFCURVE",
"52 214 OFFCURVE",
"40 225 CURVE",
"23 205 LINE",
"135 103 OFFCURVE",
"209 53 OFFCURVE",
"349 -26 CURVE"
);
},
{
closed = 1;
nodes = (
"552 -9 LINE",
"499 22 LINE SMOOTH",
"460 45 OFFCURVE",
"452 60 OFFCURVE",
"452 108 CURVE SMOOTH",
"452 296 LINE",
"357 296 LINE",
"357 198 LINE",
"410 222 LINE",
"393 226 OFFCURVE",
"375 228 OFFCURVE",
"363 228 CURVE SMOOTH",
"324 228 OFFCURVE",
"312 214 OFFCURVE",
"312 166 CURVE SMOOTH",
"312 142 OFFCURVE",
"303 130 OFFCURVE",
"288 130 CURVE SMOOTH",
"280 130 OFFCURVE",
"273 132 OFFCURVE",
"264 136 CURVE",
"255 118 LINE",
"334 75 OFFCURVE",
"454 16 OFFCURVE",
"542 -26 CURVE"
);
},
{
closed = 1;
nodes = (
"178 271 LINE",
"158 297 OFFCURVE",
"150 321 OFFCURVE",
"150 343 CURVE SMOOTH",
"150 388 OFFCURVE",
"178 419 OFFCURVE",
"239 419 CURVE SMOOTH",
"274 419 OFFCURVE",
"325 404 OFFCURVE",
"357 380 CURVE",
"359 418 LINE",
"329 457 OFFCURVE",
"258 502 OFFCURVE",
"183 502 CURVE SMOOTH",
"91 502 OFFCURVE",
"37 459 OFFCURVE",
"37 387 CURVE SMOOTH",
"37 329 OFFCURVE",
"78 284 OFFCURVE",
"159 252 CURVE"
);
},
{
closed = 1;
nodes = (
"252 558 OFFCURVE",
"317 562 OFFCURVE",
"405 581 CURVE",
"452 646 LINE",
"443 654 LINE",
"4 654 LINE",
"0 646 LINE",
"33 585 OFFCURVE",
"91 558 OFFCURVE",
"192 558 CURVE SMOOTH"
);
},
{
closed = 1;
nodes = (
"452 646 LINE",
"352 618 LINE",
"352 283 LINE",
"452 261 LINE"
);
}
);
width = 507;
}
);
leftKerningGroup = LK_Sha;
rightKerningGroup = RK_Danda;
script = devanagari;
category = Letter;
subCategory = Other;
},
{
color = 5;
glyphname = SsaRa.rj;
lastChange = "2024-03-05 08:13:15 +0000";
layers = (
{
anchors = (
{
name = bottom;
position = "{350, 35}";
},
{
name = bottom2;
position = "{345, 46}";
},
{
name = bottom3;
position = "{284, 9}";
},
{
name = top;
position = "{79, 614}";
},
{
name = top1;
position = "{462, 646}";
},
{
name = top2;
position = "{274, 646}";
}
);
components = (
{
name = _Rakar1;
transform = "{1, 0, 0, 1, 43, 0}";
}
);
layerId = "C3E057B1-67D4-4FCF-93C0-B6D1362B390D";
paths = (
{
closed = 1;
nodes = (
"462 162 LINE",
"462 646 LINE",
"362 608 LINE",
"362 232 LINE",
"407 317 LINE",
"377 333 OFFCURVE",
"351 338 OFFCURVE",
"324 338 CURVE SMOOTH",
"268 338 OFFCURVE",
"235 303 OFFCURVE",
"235 251 CURVE SMOOTH",
"235 229 OFFCURVE",
"239 218 OFFCURVE",
"249 202 CURVE",
"311 201 LINE",
"190 238 OFFCURVE",
"141 274 OFFCURVE",
"141 327 CURVE SMOOTH",
"141 377 OFFCURVE",
"177 402 OFFCURVE",
"238 402 CURVE SMOOTH",
"247 402 OFFCURVE",
"259 401 OFFCURVE",
"269 399 CURVE",
"277 406 LINE",
"277 610 LINE",
"177 610 LINE",
"177 433 LINE",
"253 444 LINE",
"218 466 OFFCURVE",
"183 477 OFFCURVE",
"150 477 CURVE SMOOTH",
"74 477 OFFCURVE",
"20 431 OFFCURVE",
"20 359 CURVE SMOOTH",
"20 260 OFFCURVE",
"106 206 OFFCURVE",
"373 135 CURVE"
);
},
{
closed = 1;
nodes = (
"392 350 LINE",
"243 464 LINE",
"213 419 LINE",
"373 319 LINE"
);
},
{
closed = 1;
nodes = (
"191 550 OFFCURVE",
"245 567 OFFCURVE",
"265 581 CURVE",
"194 569 LINE",
"419 569 LINE",
"462 646 LINE",
"453 654 LINE",
"5 654 LINE",
"0 646 LINE",
"10 586 OFFCURVE",
"64 550 OFFCURVE",
"146 550 CURVE SMOOTH"
);
}
);
width = 518;
}
);
leftKerningGroup = LK_Ka;
rightKerningGroup = RK_Danda;
rightMetricsKey = matraA.rj;
script = devanagari;
category = Letter;
subCategory = Other;
},
